<svg width="70" height="70" viewBox="0 0 70 70" fill="none" xmlns="http://www.w3.org/2000/svg">
<path d="M17.8462 15.8457H41.3848V19.7688H17.8462V15.8457ZM17.8462 23.6919H41.3848V27.615H17.8462V23.6919ZM17.8462 31.5381H29.6155V35.4612H17.8462V31.5381ZM17.8462 51.1536H25.6924V55.0767H17.8462V51.1536Z" fill="#E0A200"/>
<path d="M60.4256 41.9211L54.5409 36.0364C54.1731 35.6687 53.6742 35.4621 53.1541 35.4621C52.634 35.4621 52.1351 35.6687 51.7673 36.0364L33.5386 54.2651V62.9234H42.1969L60.4256 44.6947C60.7933 44.3269 60.9999 43.828 60.9999 43.3079C60.9999 42.7878 60.7933 42.2889 60.4256 41.9211ZM40.5727 59.0003H37.4617V55.8893L47.2695 46.0815L50.3805 49.1926L40.5727 59.0003ZM53.1541 46.4189L50.0431 43.3079L53.1541 40.1969L56.2651 43.3079L53.1541 46.4189ZM25.6924 62.9234H13.9231C12.8829 62.9224 11.8857 62.5087 11.1502 61.7732C10.4147 61.0377 10.001 60.0405 10 59.0003V11.9231C10.001 10.8829 10.4147 9.8857 11.1502 9.1502C11.8857 8.4147 12.8829 8.00104 13.9231 8H45.3079C46.3481 8.00104 47.3453 8.4147 48.0808 9.1502C48.8163 9.8857 49.23 10.8829 49.231 11.9231V31.5386H45.3079V11.9231H13.9231V59.0003H25.6924V62.9234Z" fill="#E0A200"/>
</svg>
