<svg width="40" height="40" viewBox="0 0 40 40" fill="none" xmlns="http://www.w3.org/2000/svg">
<path d="M20 37C17.6543 35.0252 15.4801 32.8602 13.5 30.5278C10.5286 27.0249 7 21.8083 7 16.8373C6.99871 14.2985 7.76051 11.8165 9.189 9.7052C10.6175 7.59395 12.6484 5.9484 15.0248 4.97681C17.4012 4.00522 20.0162 3.75127 22.5389 4.24709C25.0616 4.74291 27.3785 5.96622 29.1965 7.7622C30.4069 8.95154 31.3663 10.366 32.0192 11.9237C32.672 13.4815 33.0054 15.1515 32.9999 16.8373C32.9999 21.8083 29.4714 27.0249 26.5 30.5278C24.5199 32.8602 22.3456 35.0252 20 37ZM20 11.3383C18.5223 11.3383 17.1052 11.9177 16.0604 12.9489C15.0155 13.9802 14.4286 15.3789 14.4286 16.8373C14.4286 18.2957 15.0155 19.6943 16.0604 20.7256C17.1052 21.7568 18.5223 22.3362 20 22.3362C21.4776 22.3362 22.8947 21.7568 23.9396 20.7256C24.9844 19.6943 25.5714 18.2957 25.5714 16.8373C25.5714 15.3789 24.9844 13.9802 23.9396 12.9489C22.8947 11.9177 21.4776 11.3383 20 11.3383Z" fill="#50393F"/>
</svg>
