<svg width="176" height="84" viewBox="0 0 176 84" fill="none" xmlns="http://www.w3.org/2000/svg">
<path d="M124.843 40.1189L144.022 60.8891L143.619 61.3592L108.223 37.2246L100.232 45.2829C96.4914 39.5145 92.8853 33.9476 88.8159 27.689C87.2781 37.4933 85.8544 46.6058 84.3301 56.3295L71.8934 40.7501L49.7332 66.7515L32.8511 52.6092L26.9618 67.9603C25.4307 64.7907 24.1145 62.0845 22.6909 59.1298L0.0605469 72.9027L31.414 41.4217L47.779 49.5673L85.888 0.57959C89.2456 3.5813 92.7778 6.30768 95.8265 9.4907C104.731 18.7779 113.447 28.2934 122.251 37.6477C123.084 38.5408 124.017 39.3399 124.904 40.1793L124.843 40.1189Z" fill="#FFBA08"/>
<path d="M124.897 40.1526L137.535 29.0522L175.939 67.9335L175.879 68.1148C175.08 67.5172 174.287 66.8994 173.475 66.3084C162.099 58.0084 150.71 49.7263 139.308 41.462C138.284 40.8434 137.113 40.5095 135.917 40.495C132.243 40.2802 128.53 40.2399 124.863 40.1257C124.843 40.119 124.897 40.1526 124.897 40.1526Z" fill="#FFBA08"/>
<path d="M52.8473 60.2251C53.0501 59.1132 53.4749 58.0535 54.0963 57.1093C54.3649 56.7265 54.4589 56.3975 53.8747 56.2296C52.1263 55.6611 50.3064 55.3423 48.4689 55.2827C46.4544 55.2827 45.8231 56.2027 46.4544 58.0964C46.7095 58.8754 46.9177 59.6678 47.1259 60.4534C47.6832 62.3337 47.3408 63.1396 45.1113 63.5895C42.029 64.261 40.0749 62.8575 39.3631 59.7215C38.8258 57.351 38.7721 55.0208 40.1152 52.8451C40.7354 51.7617 41.6729 50.8945 42.8013 50.3605C43.0363 50.2463 43.2982 50.1456 43.4728 50.3605C43.6474 50.5753 43.4728 50.8775 43.3116 51.1058C41.0889 52.7847 40.3166 55.135 40.2965 57.8211C40.3017 58.9025 40.5739 59.9659 41.0889 60.9168C41.4356 61.5899 41.9972 62.1279 42.6846 62.4455C43.372 62.763 44.1457 62.8418 44.883 62.6695C45.0435 62.6564 45.1997 62.6107 45.3419 62.5351C45.4841 62.4595 45.6094 62.3556 45.71 62.2298C45.8106 62.104 45.8845 61.959 45.927 61.8037C45.9696 61.6483 45.9799 61.4859 45.9574 61.3265C45.9001 60.7917 45.769 60.2674 45.5679 59.7685C45.3348 58.9827 45.184 58.1747 45.118 57.3577C44.9837 55.4909 45.6418 54.4097 47.5489 53.4965C48.8583 52.912 50.343 52.8567 51.6923 53.342C51.9609 53.4293 52.3302 53.5301 52.2765 53.8524C52.2228 54.1747 51.8333 54.0941 51.6049 54.0672C50.9743 53.9811 50.3323 54.0455 49.7314 54.2553C50.4969 54.4097 51.2423 54.5105 51.9676 54.6851C52.7448 54.8228 53.504 55.048 54.2306 55.3566C54.0525 54.829 53.7647 54.345 53.3862 53.9365C53.0078 53.5279 52.5472 53.204 52.0347 52.9861C51.5848 52.8115 51.1147 52.7041 50.6581 52.5563C50.1477 52.046 50.1477 52.0392 51.0812 51.6766C49.7321 51.1711 48.2533 51.1286 46.8774 51.5558C46.4381 51.7041 45.9895 51.823 45.5344 51.9117C45.3396 51.9117 45.1247 51.9117 45.0441 51.6833C44.9636 51.455 45.1247 51.3677 45.2456 51.2603C45.5288 50.997 45.8448 50.7713 46.1857 50.5888C46.9722 50.174 47.8166 49.8797 48.6905 49.7158C47.5669 49.9645 46.4302 50.1505 45.2859 50.2732C45.0039 50.2329 44.6614 50.2732 44.6547 49.8568C44.648 49.4405 44.9837 49.5143 45.2188 49.4405C47.1258 48.8336 49.1209 48.5499 51.1215 48.6011C52.4645 48.6011 52.6257 48.2989 51.9609 47.1035C52.222 46.3683 52.6442 45.7006 53.1965 45.1494C53.4511 44.8689 53.6298 44.5279 53.7156 44.1589C53.8014 43.7898 53.7915 43.4049 53.6867 43.0408C53.6988 42.7892 53.7677 42.5436 53.8881 42.3223C54.0712 41.9886 54.1771 41.6181 54.198 41.2381C54.2189 40.8581 54.1543 40.4782 54.009 40.1264C53.5994 39.8377 53.6799 39.3945 53.6665 38.9848C53.7447 38.3496 53.6075 37.7064 53.277 37.1583C52.8808 36.6748 52.6794 36.0637 52.2362 35.6071C52.0347 35.1303 52.1825 34.902 52.6995 34.9826C53.0286 35.0296 53.3375 35.1639 53.6665 35.2377C53.8239 35.2869 53.9749 35.3545 54.1164 35.4392C54.5494 35.6394 54.9709 35.8636 55.3789 36.1107C55.7885 36.3659 56.1847 36.6278 56.5876 36.9098C56.5876 36.6815 56.366 36.6547 56.272 36.5204C55.6454 35.6524 54.954 34.833 54.2037 34.0693C54.009 33.888 53.6799 33.7067 53.8814 33.3978C54.0829 33.0889 54.385 33.1896 54.6604 33.2702C56.4156 33.804 58.065 34.6378 59.5356 35.7347C59.6901 35.8555 59.8512 35.963 60.0057 36.0704C59.1491 34.8013 58.0627 33.7035 56.8025 32.8337C56.7372 32.7874 56.6823 32.728 56.6414 32.6591C56.5944 31.9271 57.1047 32.2092 57.4203 32.2831C58.6009 32.5984 59.7411 33.0491 60.8183 33.6261C60.355 33.2021 59.8379 32.8408 59.2805 32.5516C59.124 32.5003 58.9783 32.4206 58.8507 32.3166C58.2437 31.8319 57.5446 31.4755 56.7958 31.269C56.3862 31.0542 55.5938 30.9937 55.6609 30.5975C55.755 30.0066 56.5071 30.3155 56.9704 30.2483C57.9225 30.1716 58.8529 29.9236 59.7169 29.5163C60.1473 29.3086 60.5346 29.0215 60.8585 28.6703C61.3018 28.1733 61.1406 27.8711 60.6101 27.6831C59.2565 27.1669 57.7653 27.1384 56.3929 27.6025L56.2317 27.6562C55.9564 27.7167 55.6005 27.8644 55.4595 27.5689C55.3185 27.2735 55.6408 27.025 55.8758 26.8235C56.0338 26.7378 56.1843 26.6389 56.3258 26.5281C54.4274 26.1898 52.4826 26.2081 50.5909 26.5818C49.7851 26.6422 49.1539 27.166 48.4152 27.3876C47.5489 27.0854 48.254 26.8168 48.4152 26.5415C51.9004 24.1106 55.5468 22.0356 59.8647 21.5655C64.4627 20.9343 69.1277 22.0903 72.899 24.7955C73.1993 24.9907 73.511 25.1678 73.8324 25.3261L73.9062 25.4335C73.9402 25.5134 73.9506 25.6013 73.9363 25.687C73.9221 25.7726 73.8837 25.8524 73.8257 25.917C72.9325 26.011 72.1737 25.4939 71.3343 25.3261C71.2269 25.3261 71.2806 25.4872 71.2873 25.373C71.294 25.2589 71.2873 25.3193 71.3612 25.3328C72.2614 25.6846 73.0813 26.2145 73.7719 26.8907C75.2669 28.0567 76.562 29.4584 77.6064 31.0407C78.2779 32.0749 78.5666 33.2702 79.2516 34.2842C81.4799 37.6135 84.4884 40.3476 88.015 42.2484C88.2567 42.3827 88.485 42.5439 88.7201 42.6984C88.297 43.0543 87.9411 42.6648 87.5516 42.5909C87.2657 42.5162 86.9853 42.4219 86.7122 42.3089C86.5578 42.5305 86.8398 42.7185 86.6585 42.8931C86.316 43.0543 86.0743 42.8327 85.8124 42.6715C83.4194 41.2513 81.3585 39.3347 79.7687 37.0509C79.7687 37.5209 79.7687 37.8836 79.7284 38.2327C79.6948 38.4275 79.6411 38.6357 79.3993 38.6625C79.1576 38.6894 79.1038 38.5349 79.0098 38.3939C78.4649 37.535 77.8227 36.7418 77.096 36.0301C76.7195 35.5562 76.23 35.1844 75.6724 34.949C75.7676 35.3002 75.9396 35.6259 76.176 35.9025C77.6982 38.6866 78.3509 41.8631 78.0496 45.0218C78.0496 45.3375 77.9623 45.6934 77.6064 45.7672C77.2504 45.8411 77.1161 45.512 76.9818 45.2636C76.3417 44.0699 75.5812 42.9449 74.7121 41.906C75.2139 43.7911 75.319 45.7599 75.021 47.6878C75.0056 47.8843 74.9764 48.0796 74.9337 48.272C74.8464 48.5675 74.7792 48.9436 74.4166 48.9838C74.054 49.0241 73.9532 48.7085 73.8122 48.4735C72.6737 46.5739 71.1695 44.9191 69.3869 43.6049C68.9773 43.3027 68.7154 43.3162 68.4065 43.6922C67.2678 45.0348 66.4052 46.5888 65.8681 48.2653C65.3078 49.843 65.004 51.5003 64.9683 53.1741C64.9683 53.483 64.9347 53.792 64.9011 54.1009C64.8675 54.4098 64.9011 54.8462 64.5452 54.9C64.1893 54.9537 64.1356 54.5038 64.0147 54.2284C63.5916 53.2212 63.6051 53.2346 62.5306 53.5569C61.0562 53.9648 59.6131 54.4787 58.2127 55.0947C57.0442 55.5485 56.0241 56.317 55.2655 57.315C54.507 58.313 54.0395 59.5015 53.915 60.7489C53.8344 61.3399 53.962 62.0047 53.4382 62.4815C52.9614 62.0517 53.2166 61.5212 53.2435 61.0243C53.2636 60.6684 53.4248 60.2789 52.8473 60.2251Z" fill="#684A52"/>
<path d="M52.8472 60.2248C53.0419 60.1509 53.1091 59.795 53.3911 59.9427C53.6731 60.0904 53.4515 60.2919 53.4717 60.4732C53.5388 61.1448 53.2366 61.8163 53.3911 62.4878C53.6474 63.0547 53.7713 63.6724 53.7537 64.2942C53.9552 67.0676 55.8287 68.2495 57.9306 68.7733C58.267 68.8387 58.6138 68.8287 58.9459 68.7439C59.2781 68.6591 59.5872 68.5017 59.8512 68.2831C60.6973 67.6653 60.7376 67.1347 60.0795 66.3088C59.1536 65.2702 58.466 64.0417 58.0649 62.7094C57.8943 62.0921 57.8982 61.4397 58.076 60.8244C58.2538 60.2092 58.5986 59.6553 59.0722 59.2242C59.7315 58.6416 60.4825 58.1719 61.2949 57.8341C61.624 57.673 62.0806 57.5252 62.3089 57.8677C62.5373 58.2102 61.9866 58.3713 61.8389 58.7272C64.7533 58.002 67.5804 58.4116 70.3874 59.157C71.0119 59.3182 71.2603 59.157 71.3409 58.4855C71.6173 55.9074 72.658 53.4707 74.3292 51.4882C74.7979 50.9209 75.3347 50.4134 75.9274 49.9773C76.1893 49.7893 76.4579 49.3998 76.8004 49.702C77.1429 50.0041 76.8004 50.2661 76.6527 50.5347C76.4857 50.7928 76.3823 51.0868 76.3508 51.3926C76.3193 51.6984 76.3606 52.0073 76.4714 52.2941C76.5117 52.3679 76.5587 52.4418 76.599 52.5224C77.4652 53.3685 78.6135 53.5162 79.7215 53.6707C81.5632 53.9314 83.4218 54.0548 85.2818 54.04C85.5058 54.0036 85.7353 54.0245 85.9491 54.1008C86.1628 54.1772 86.3537 54.3064 86.5039 54.4765C83.5425 55.4502 80.6617 55.2354 78.2509 55.1145C80.8555 55.6075 83.5235 55.6687 86.148 55.2958C86.6718 55.2488 87.5247 55.0272 87.5985 55.5039C87.6925 56.1083 86.8128 56.1755 86.2958 56.2829C83.5447 56.9522 80.6817 57.0209 77.9017 56.4844C79.5692 56.8467 81.2662 57.0557 82.9717 57.1089C84.852 57.2298 86.6718 56.5314 88.6058 56.5582C88.563 56.7492 88.4671 56.9242 88.3294 57.0631C88.1916 57.2021 88.0174 57.2994 87.8268 57.3439C85.0266 58.4721 80.2722 58.8817 77.0825 57.8812C77.2839 57.9819 77.566 57.9953 77.707 58.2505C77.6868 58.3169 77.6519 58.378 77.605 58.4291C77.558 58.4803 77.5002 58.5203 77.4357 58.546C77.3712 58.5718 77.3018 58.5828 77.2325 58.5781C77.1632 58.5735 77.0959 58.5533 77.0354 58.5191C76.2296 58.1833 75.4238 58.4385 74.618 58.4184C74.3408 58.4622 74.057 58.4273 73.7987 58.3176C73.6375 58.2236 73.4159 58.0624 73.3555 58.4049C73.2951 58.7474 73.4562 58.9556 73.698 58.8683C74.6112 58.5527 75.1753 59.0697 75.7797 59.5935C76.0214 59.8017 76.3774 59.7144 76.6863 59.7278C76.9496 59.7166 77.209 59.7947 77.4224 59.9495C77.6357 60.1044 77.7905 60.3268 77.8614 60.5807C76.3671 60.4758 74.9008 60.1218 73.5234 59.5331C73.0399 59.3383 72.5362 58.9019 72.3818 59.9696C72.2609 60.762 71.4752 60.6948 70.8507 60.4867C69.8176 60.1014 68.7493 59.818 67.661 59.6405C65.1024 59.2735 62.4925 59.5575 60.0727 60.4665C59.4952 60.6881 59.0923 61.6081 59.1863 62.4811C59.3248 63.5542 59.8079 64.5534 60.563 65.3283C60.751 65.5432 60.9659 65.7313 61.1673 65.926C61.3941 66.0995 61.5743 66.3266 61.6917 66.5868C61.8091 66.8471 61.8602 67.1325 61.8402 67.4173C61.8202 67.7021 61.7299 67.9775 61.5773 68.2189C61.4247 68.4602 61.2146 68.6599 60.9659 68.8001C58.7364 70.4588 55.8153 69.9216 53.9417 67.5175C52.2092 65.2813 51.9943 62.837 52.8472 60.2248Z" fill="#684A52"/>
<path d="M115.091 69.0696C114.533 68.6196 113.842 68.7875 113.217 68.6465C112.136 68.4186 111.075 68.1088 110.041 67.7198C109.977 67.8784 109.961 68.0519 109.993 68.2198C110.025 68.3876 110.105 68.5427 110.222 68.6667C110.437 68.9554 110.659 69.2844 110.33 69.5665C110.001 69.8485 109.698 69.5665 109.423 69.3583C108.388 68.609 107.403 67.7924 106.475 66.9139C105.79 66.369 105.074 65.8623 104.333 65.3963C103.911 65.1673 103.536 64.8622 103.225 64.4965C102.956 64.0868 102.513 64.2279 102.151 64.1271C101.824 64.0426 101.532 63.8569 101.318 63.5966C100.646 62.7975 99.6189 62.5155 98.6989 62.1059C98.3766 61.9648 98.1952 62.0521 98.0609 62.4013C97.8259 63.0124 97.3894 62.9856 97.0134 62.5759C96.0329 61.5754 94.757 60.8904 93.9848 59.6414C93.5147 58.8826 92.5208 59.0034 91.5673 59.8093C91.4214 59.9663 91.2618 60.1101 91.0905 60.239C90.9205 60.3485 90.7258 60.4139 90.5241 60.4291C90.3224 60.4443 90.1201 60.409 89.9355 60.3263C89.5689 60.2792 89.1966 60.3066 88.8409 60.4069C88.5125 60.5337 88.1486 60.5337 87.8202 60.4069C87.9561 60.2336 88.1326 60.0965 88.334 60.0075C88.5354 59.9185 88.7556 59.8804 88.9752 59.8966C89.499 59.8966 89.9221 59.7958 89.9959 59.1579C90.0129 59.0733 90.0524 58.9949 90.1103 58.9311C90.1683 58.8672 90.2425 58.8203 90.325 58.7952C90.701 58.6609 90.6943 58.3386 90.7346 58.0364C90.9629 57.8148 91.2584 57.8618 91.5337 57.8283C92.4067 57.7007 93.2797 57.5798 93.461 56.4852C93.4647 56.4269 93.4839 56.3707 93.5166 56.3223C93.5492 56.2739 93.5942 56.235 93.6468 56.2097C93.6995 56.1844 93.7579 56.1736 93.8161 56.1783C93.8743 56.1831 93.9302 56.2033 93.9781 56.2367C94.2223 56.3038 94.4716 56.3509 94.7235 56.3777C96.1269 56.915 97.4566 57.6066 98.8802 58.1036C101.63 59.0781 104.513 59.6262 107.429 59.7287C107.805 59.7287 108.376 59.5944 108.456 60.0644C108.537 60.5345 107.932 60.5748 107.597 60.6554C106.31 61.0105 104.965 61.1064 103.641 60.9374C103.401 60.8634 103.143 60.8634 102.903 60.9374C103.231 61.5806 103.689 62.1496 104.246 62.6095C107.308 65.5616 111.232 67.462 115.447 68.0354C115.756 68.0568 116.059 68.127 116.347 68.2436C116.658 68.3627 116.987 68.4264 117.32 68.4316C117.522 68.4719 117.723 68.5458 117.716 68.7875C117.71 69.0293 117.502 69.0897 117.3 69.1166C117.05 69.1181 116.802 69.1636 116.568 69.2509C116.408 69.319 116.245 69.3773 116.078 69.4255C115.719 69.4178 115.372 69.2928 115.091 69.0696Z" fill="#684A52"/>
<path d="M115.95 51.0659C115.615 51.3412 115.95 51.5024 116.071 51.677C116.688 52.4319 117.217 53.2541 117.649 54.1281C118.321 55.8875 119.248 57.5461 119.798 59.3592C120.248 60.8299 120.671 62.3072 121.081 63.7913C121.49 65.2754 121.752 66.8132 122.753 68.0756C122.927 68.3845 122.753 68.5658 122.498 68.6733C122.377 68.7172 122.245 68.7192 122.123 68.679C122.002 68.6388 121.897 68.5587 121.826 68.4517C121.44 67.9641 121.103 67.4401 120.819 66.887C120.457 66.1197 120.037 65.3812 119.563 64.6777C119.059 63.6973 118.475 62.7706 117.904 61.8237C117.972 61.347 118.422 61.5215 118.697 61.3738C118.697 61.0112 118.368 60.9172 118.166 60.7023C117.123 59.473 115.842 58.4679 114.399 57.7476C115.876 57.2708 116.924 58.1169 118.005 58.8489C118.143 58.9358 118.265 59.0447 118.368 59.1712C118.368 59.0235 118.2 58.9765 118.139 58.869C118.091 58.8091 118.046 58.7464 118.005 58.681C117.594 58.0719 117.055 57.5588 116.427 57.1768C115.671 56.577 114.841 56.0782 113.956 55.6927C113.734 55.5987 113.385 55.5047 113.446 55.2159C113.506 54.9272 113.882 54.9339 114.157 54.9205C114.496 54.8953 114.835 54.9458 115.151 55.0682C113.774 53.9411 112.171 53.1214 110.451 52.6641C110.115 52.5634 109.531 52.5366 109.584 52.1605C109.638 51.7845 110.256 51.865 110.598 51.8516C111.28 51.7692 111.972 51.8544 112.613 52.1C109.491 50.4744 105.962 49.7953 102.459 50.1459C102.318 50.1459 102.177 50.1997 102.036 50.1997C101.788 50.1997 101.459 50.2534 101.398 49.9445C101.338 49.6356 101.66 49.6087 101.868 49.5281C103.188 49.011 104.583 48.7094 105.998 48.635C106.781 48.5225 107.572 48.482 108.362 48.5141C107.879 48.3395 107.234 48.7895 106.75 48.2321C106.733 48.071 106.764 47.9085 106.84 47.765C106.915 47.6216 107.031 47.5037 107.174 47.4263C108.898 47.627 110.587 48.0584 112.197 48.7089C112.458 48.8163 112.74 49.0312 112.989 48.9036C113.989 48.4134 115.084 48.7491 116.105 48.4872C116.373 48.4201 116.608 48.4268 116.729 48.729C116.729 49.1051 116.434 49.2327 116.159 49.4006C115.722 49.602 115.447 49.884 116.031 50.1929C116.615 50.5018 116.34 50.757 115.95 51.0659Z" fill="#684A52"/>
<path d="M107.106 47.48C107.106 47.7956 106.824 47.9501 106.744 48.2187C105.911 48.6014 105.018 48.3731 104.158 48.447C102.308 48.6282 100.479 48.9903 98.6988 49.5281C98.4575 49.6039 98.2105 49.66 97.9601 49.696C97.5237 49.6625 96.9394 49.7766 97.2886 48.9842C97.3423 48.8835 97.1274 48.9103 97.0334 48.8969C95.5553 48.8655 94.0878 48.6397 92.6685 48.2254C92.0019 47.9243 91.293 47.7273 90.5667 47.6412C90.48 47.6128 90.4 47.5671 90.3316 47.5069C90.2906 47.47 90.2585 47.4242 90.2378 47.373C90.2171 47.3219 90.2084 47.2666 90.2123 47.2116C90.2162 47.1565 90.2326 47.1031 90.2602 47.0554C90.2879 47.0076 90.3261 46.9668 90.3719 46.936C90.444 46.8965 90.5248 46.8757 90.6069 46.8756C91.3371 47.0231 92.0784 47.1085 92.823 47.1308C91.0448 46.7904 89.3151 46.2333 87.6724 45.4721C87.0009 45.0893 86.1883 44.9013 85.7048 44.2096C85.7048 43.7329 86.0137 43.5784 86.4301 43.5381C86.9523 43.6405 87.4554 43.824 87.9209 44.0821C89.9258 44.96 92.0044 45.6589 94.1324 46.1705C92.2142 45.7437 90.3667 45.045 88.6461 44.0955C88.1828 43.424 87.3568 43.3703 86.739 42.9741L86.6718 42.8733C86.6047 42.786 86.5577 42.6719 86.4704 42.6181C86.2488 42.4771 86.1212 42.3428 86.3495 42.0944C86.5778 41.8459 86.6517 41.9936 86.8464 42.0944C87.417 42.4162 88.0438 42.6258 88.6931 42.7122C90.858 43.724 93.0749 44.6206 95.3345 45.3983C97.2923 46.0186 99.2831 46.5298 101.298 46.9294C102.889 47.151 104.494 47.1375 106.092 47.2718C106.442 47.2654 106.788 47.3365 107.106 47.48Z" fill="#684A52"/>
<path d="M52.1621 46.9226C52.4441 48.6686 52.4441 48.6887 50.6109 48.6619C48.8929 48.6846 47.1865 48.9468 45.5409 49.4408C45.2547 49.474 44.9877 49.6016 44.7821 49.8035C44.8962 50.1661 45.2118 49.9579 45.42 50.0452C45.4341 50.0867 45.4378 50.1311 45.4308 50.1745C45.4237 50.2178 45.4062 50.2587 45.3797 50.2937C44.7082 50.6764 44.0367 51.1532 43.1704 51.0458C43.533 50.5824 43.5599 50.2936 42.8346 50.3742C44.3254 49.2864 46.0781 48.9439 47.8375 48.682C49.0711 48.5019 50.3184 48.4323 51.5645 48.4738C51.8264 48.4738 52.1621 48.5611 52.236 48.1246C52.2569 48.0423 52.2594 47.9565 52.2433 47.8731C52.2272 47.7897 52.1929 47.7109 52.1429 47.6423C52.0929 47.5737 52.0284 47.517 51.9539 47.4762C51.8795 47.4353 51.7969 47.4114 51.7122 47.4061C51.1587 47.3222 50.6341 47.1047 50.1836 46.7724C49.7331 46.4401 49.3704 46.003 49.1268 45.499C48.65 44.5924 47.6898 43.9411 47.4211 42.8129C47.3406 42.5107 47.1391 42.1414 47.3741 41.9332C47.6092 41.725 47.8576 42.0944 48.1061 42.1817C48.4821 42.3227 48.8313 42.5107 49.2074 42.6316C50.7385 43.1151 50.7116 43.2427 50.8459 41.4699C51.0071 39.2001 50.1005 37.9981 47.7703 37.0781C47.3204 37.1251 46.8033 36.5879 46.4273 37.34C46.2863 37.6287 46.1318 37.1586 45.9505 37.1116C45.7692 37.0646 45.8162 37.3332 45.8028 37.4541C45.8028 37.6824 45.9707 38.0182 45.6215 38.1256C45.2723 38.2331 45.1984 37.9108 45.0507 37.6959C44.9029 37.481 44.9365 37.4206 44.8291 37.3467C44.7216 37.2728 44.6948 37.4407 44.6343 37.5079C44.453 37.7832 44.312 37.5683 44.1576 37.4676C43.58 35.9499 42.4452 34.7009 42.0154 33.0959C41.9072 32.6892 41.822 32.2767 41.7602 31.8604C41.7225 31.7245 41.7143 31.5821 41.7362 31.4428C41.7582 31.3035 41.8097 31.1705 41.8873 31.0528C41.9649 30.9351 42.0669 30.8354 42.1863 30.7604C42.3057 30.6854 42.4397 30.6369 42.5795 30.618C43.8151 30.242 45.0305 29.7786 46.2661 29.4026C46.5095 29.3454 46.7321 29.2215 46.9089 29.0447C47.0856 28.868 47.2096 28.6454 47.2667 28.402C47.5084 27.7305 47.6226 26.8843 48.4352 26.5352C48.5493 26.7702 47.7301 27.0321 48.4352 27.2537C48.1867 28.2878 47.9987 29.3555 46.9376 29.9398C45.9572 30.3695 44.9231 30.6113 43.9091 30.9739C44.2272 31.4177 44.6097 31.8115 45.0439 32.1424C45.4267 32.2968 45.5207 32.4983 45.2118 32.8139C44.7835 33.1441 44.2461 33.3 43.7076 33.2504C42.9555 33.2504 42.9287 33.3243 43.2308 34.0428C43.9964 35.8694 43.9964 35.8693 45.9169 35.8693C46.5057 35.8263 47.0975 35.8784 47.6696 36.0238C47.7905 35.7283 47.5085 35.594 47.495 35.3522C47.3271 34.8687 48.0255 35.0299 47.9987 34.6807C47.9651 34.6136 47.9382 34.5464 47.9114 34.4793C47.8576 34.2375 47.6562 33.9689 48.0457 33.8078C48.1642 33.8256 48.2744 33.8796 48.3613 33.9622C48.7978 34.3651 49.194 34.8083 49.6708 35.171C50.7802 36.5114 51.4669 38.1509 51.6438 39.8819C51.8207 41.6129 51.4799 43.3575 50.6646 44.8946C50.1811 45.8347 50.2617 46.0698 51.2153 46.4996C51.5486 46.5969 51.8672 46.7392 52.1621 46.9226Z" fill="#684A52"/>
<path d="M89.9354 60.225C90.3373 60.2811 90.7469 60.2229 91.1173 60.0571C91.7358 60.4493 92.2907 60.934 92.7625 61.4942C96.7379 65.6711 101.674 68.2094 107.086 69.9487C107.494 70.0643 107.896 70.2033 108.288 70.365C108.443 70.4322 108.637 70.5127 108.624 70.7008C108.61 70.8888 108.409 70.9425 108.255 71.0164C107.979 71.1574 107.643 71.0701 107.281 71.285C108.409 72.158 109.389 73.1518 110.544 73.8905C111.318 74.3256 111.964 74.9568 112.417 75.7206C112.87 76.4845 113.113 77.3541 113.123 78.242C113.157 79.2963 113.795 80.2028 114.036 81.2303C113.969 81.4854 113.848 81.6466 113.56 81.4922C113.075 80.9447 112.704 80.3069 112.468 79.6153C112.232 78.9237 112.135 78.1922 112.183 77.463C112.204 77.1019 112.13 76.7416 111.967 76.4185C111.804 76.0954 111.559 75.821 111.256 75.623C109.47 74.2397 107.684 72.8497 105.951 71.3992C105.063 70.7091 104.054 70.1899 102.976 69.8681C99.2781 68.4876 95.899 66.3697 93.0445 63.643C91.9365 62.6358 90.9561 61.5143 89.9085 60.4533C89.8279 60.366 89.8414 60.2922 89.9354 60.225Z" fill="#684A52"/>
<path d="M103.198 33.5257C101.405 32.9695 99.7982 31.9338 98.551 30.5307C97.0871 28.8788 97.3221 26.233 99.0009 24.534C100.559 22.9559 102.52 22.3516 104.642 22.1166C106.628 21.9415 108.622 22.3598 110.37 23.3186C111.041 23.6678 111.713 23.9901 112.418 24.346C113.494 24.8798 114.726 25.0085 115.89 24.7086C116.152 24.6415 116.434 24.628 116.743 24.581C113.848 29.9532 109.356 32.1491 103.984 28.4691L104.058 28.3617C104.105 28.3617 104.172 28.2811 104.212 28.3013C105.703 28.9124 107.261 28.3013 108.772 28.5632C108.664 28.3214 107.993 28.8251 108.208 28.1401C108.83 27.9737 109.482 27.9508 110.115 28.073C110.283 28.073 110.471 28.167 110.491 28.355C110.487 28.4388 110.458 28.5196 110.408 28.5867C110.358 28.6538 110.288 28.7041 110.209 28.7311C109.587 29.0511 108.893 29.2039 108.194 29.1743C107.722 29.1621 107.251 29.1194 106.784 29.0467C108.081 29.3099 109.421 29.2801 110.706 28.9594C112.117 28.4316 113.363 27.5396 114.318 26.374C114.721 25.9174 114.614 25.7025 114.05 25.6017C112.581 25.3012 111.162 24.79 109.839 24.0841C107.868 23.114 105.646 22.7718 103.473 23.1037C102.422 23.2092 101.421 23.6075 100.584 24.2532C99.7469 24.8989 99.1078 25.7662 98.739 26.7568C98.4718 27.327 98.3928 27.9674 98.5135 28.5855C98.6342 29.2036 98.9484 29.7672 99.4106 30.195C100.48 31.1693 101.712 31.9488 103.05 32.4983C103.42 32.6662 103.89 32.6863 104.084 33.1698C103.923 33.6063 103.547 33.5257 103.198 33.5257Z" fill="#684A52"/>
<path d="M89.9353 60.2254V60.4537C88.5923 60.5745 87.2493 60.7357 85.9062 60.8163C83.2363 61.075 80.5444 60.9938 77.8949 60.5745C77.4114 60.1582 76.9414 59.7419 76.2161 59.9635C76.1185 59.9856 76.0172 59.9856 75.9196 59.9635C75.822 59.9414 75.7306 59.8978 75.652 59.8359C75.1148 59.1241 74.544 58.6808 73.6039 59.1643C73.4091 59.2651 73.1674 59.0367 73.154 58.7748C73.1405 58.513 72.9995 58.0563 73.295 57.8079C73.5905 57.5594 73.7248 57.8885 73.8591 58.0899C74.0941 58.4123 74.403 58.1906 74.6448 58.1571C75.6862 58.0716 76.7344 58.128 77.7606 58.3249C78.0024 58.1503 78.224 58.2511 78.4321 58.3787C78.6411 58.5223 78.8844 58.608 79.1373 58.6271C81.7527 58.9865 84.4067 58.9594 87.0142 58.5466C88.1491 58.3518 89.2773 58.1638 90.4054 57.9153C90.4731 57.8988 90.5438 57.8986 90.6116 57.915C90.6793 57.9313 90.7422 57.9637 90.7949 58.0093C90.9561 58.3653 91.3657 58.7883 90.5397 58.8689C90.4745 58.8662 90.4096 58.88 90.3511 58.909C90.2926 58.938 90.2423 58.9812 90.2048 59.0347C90.1674 59.0882 90.144 59.1502 90.1368 59.2151C90.1296 59.28 90.1388 59.3457 90.1637 59.4061C90.3718 60.0776 89.9421 60.0776 89.5324 60.0373C88.987 60.0227 88.4447 60.1233 87.9409 60.3328C88.6863 60.4268 89.3041 60.1045 89.9353 60.2254Z" fill="#684A52"/>
<path d="M119.644 64.4966C120.315 65.0942 120.51 65.9538 120.953 66.6723C121.282 67.1894 121.571 67.7333 121.92 68.237C122.269 68.7406 122.592 68.6399 122.753 68.0489C124.031 69.8489 125.524 71.4861 127.198 72.9242C127.356 73.0376 127.473 73.1987 127.532 73.3837C127.592 73.5686 127.59 73.7677 127.527 73.9516C127.346 74.7563 127.346 75.5913 127.527 76.396C127.614 76.9576 127.845 77.4872 128.198 77.9323C128.551 78.3774 129.015 78.7227 129.542 78.9343C130.281 79.2567 130.925 79.7133 130.885 80.593C130.886 81.0349 130.769 81.4692 130.548 81.8514C130.326 82.2336 130.007 82.5502 129.622 82.7688C127.474 84.0245 125.667 83.4403 124.593 81.2309C124.021 79.8717 123.7 78.4202 123.646 76.9466C123.632 76.7246 123.57 76.5083 123.464 76.3124C123.359 76.1165 123.212 75.9457 123.035 75.8117C120.349 73.5756 117.723 71.3192 115.071 69.0965L116.158 69.251C116.83 69.251 117.172 69.7345 117.589 70.0904C119.644 71.8162 121.739 73.5084 123.834 75.194C124.104 75.395 124.321 75.6594 124.465 75.9638C124.609 76.2683 124.676 76.6035 124.66 76.9399C124.618 78.3176 124.86 79.6892 125.372 80.9691C125.497 81.3629 125.735 81.7113 126.056 81.9715C126.377 82.2316 126.767 82.3921 127.178 82.433C127.682 82.5154 128.199 82.4582 128.672 82.2676C129.146 82.077 129.558 81.7602 129.864 81.3518C129.954 81.2489 130.021 81.1283 130.061 80.9979C130.101 80.8674 130.113 80.7299 130.097 80.5944C130.081 80.4589 130.036 80.3284 129.966 80.2113C129.895 80.0942 129.801 79.9932 129.69 79.9148C129.355 79.6336 129.003 79.3734 128.635 79.1358C127.975 78.7332 127.438 78.1571 127.083 77.4703C126.728 76.7835 126.568 76.0124 126.621 75.241C126.674 74.7276 126.599 74.2089 126.402 73.7317C126.205 73.2546 125.893 72.834 125.493 72.5079C123.807 71.0797 122.286 69.4669 120.96 67.6998C120.443 66.8848 119.994 66.0291 119.617 65.1413C119.558 65.0428 119.53 64.9294 119.534 64.8149C119.539 64.7005 119.577 64.5899 119.644 64.4966Z" fill="#684A52"/>
<path d="M103.198 33.5259C103.413 33.2573 103.789 33.4117 104.024 33.1969C104.259 32.982 104.561 33.1499 104.816 33.2439C107.146 34.0564 109.477 34.8555 111.787 35.7083C114.175 36.4898 116.279 37.962 117.83 39.9389C118.391 40.6191 118.803 41.409 119.04 42.2578C119.277 43.1067 119.334 43.9958 119.207 44.8679C119.108 45.4461 118.891 45.9977 118.57 46.4887C118.249 46.9796 117.83 47.3994 117.34 47.7219C117.34 47.7219 117.495 47.6077 117.642 47.5204C117.79 47.4331 117.898 47.2182 118.059 47.1041C118.22 46.9899 118.347 46.869 118.509 47.0168C118.67 47.1645 118.582 47.3391 118.509 47.4801C118.203 47.9929 117.779 48.4257 117.273 48.7426C117.078 48.8366 116.89 48.9508 116.669 48.8165L116.575 48.6822C115.648 49.2396 114.634 48.4203 113.687 48.8635C113.16 49.0504 112.582 49.0312 112.069 48.8098C111.086 48.4031 110.058 48.1167 109.007 47.9569C108.372 47.8599 107.749 47.7002 107.146 47.4801C105.306 47.3593 103.473 47.2451 101.64 47.1175C101.546 47.1175 101.459 47.0101 101.365 46.9564C104.272 47.0437 107.193 47.0436 110.041 47.7756C110.488 47.8558 110.92 48.003 111.323 48.2121C112.794 49.1321 114.13 48.5613 115.467 47.9099C115.819 47.7272 116.16 47.5231 116.487 47.2989C118.441 46.0028 118.952 44.2971 117.978 42.1684C117.384 40.8945 116.539 39.7537 115.494 38.8144C114.448 37.8751 113.224 37.1567 111.894 36.7022C109.356 35.7419 106.77 34.9092 104.212 34.0161C103.835 33.9496 103.484 33.78 103.198 33.5259Z" fill="#684A52"/>
<path d="M104.011 28.4688C103.094 27.9614 102.289 27.2765 101.64 26.4542C101.224 25.9909 100.969 26.1185 100.646 26.5012C99.4643 27.8443 99.8001 29.1873 101.566 29.9596C103.308 30.6266 105.085 31.1938 106.891 31.6585C109.758 32.4267 112.543 33.4749 115.205 34.7878C115.548 34.9149 115.853 35.1275 116.091 35.4056C115.991 35.6675 115.977 35.9898 115.594 36.0234C115.451 36.0229 115.31 35.9859 115.185 35.916C112.27 34.123 108.946 33.4179 105.736 32.3972C103.988 31.9212 102.29 31.2758 100.666 30.4699C98.7122 29.3955 98.4637 27.5824 99.7732 25.729C99.8394 25.6192 99.9292 25.5256 100.036 25.4547C100.143 25.3839 100.264 25.3377 100.391 25.3193C100.626 25.3193 100.505 25.635 100.78 25.6618C102.432 25.8163 103.191 27.1593 104.138 28.2673C104.138 28.2673 104.138 28.3681 104.071 28.4083L104.011 28.4688Z" fill="#684A52"/>
<path d="M115.755 35.9631C115.95 35.8288 115.695 35.4259 116.091 35.4058C117.419 36.0789 118.584 37.0341 119.503 38.2045C120.423 39.3749 121.076 40.7322 121.416 42.1815C121.858 43.7258 121.747 45.3759 121.102 46.847C120.457 48.3182 119.319 49.5181 117.884 50.2397C117.275 50.5897 116.625 50.8647 115.95 51.059C116.138 50.7501 116.548 50.3875 115.729 50.3875C115.359 50.3875 115.46 50.0248 115.4 49.81C115.279 49.3533 115.729 49.3869 115.937 49.2123C116.769 49.3466 116.769 49.3466 116.353 49.951C116.595 49.763 116.87 49.6891 117.105 49.5346C117.589 49.1854 118.119 48.9101 118.589 48.5475C120.449 47.1037 120.933 45.1294 120.557 42.9336C120.114 40.3683 118.542 38.4948 116.588 36.8898C116.273 36.6078 115.816 36.4601 115.755 35.9631Z" fill="#684A52"/>
<path d="M102.191 63.9655C102.466 63.8901 102.76 63.9164 103.018 64.0397C103.275 64.1631 103.48 64.3751 103.594 64.6371C103.648 64.739 103.733 64.8213 103.836 64.8721C106.005 66.0002 107.657 67.8133 109.578 69.2638C109.772 69.4049 110.021 69.6802 110.249 69.4787C110.477 69.2773 110.249 68.9818 110.088 68.7468C109.678 68.1693 109.685 68.0014 110.088 67.7462C110.686 69.7138 112.102 71.1038 113.499 72.4939C113.558 72.5568 113.623 72.6131 113.694 72.6617C114.856 73.3937 115.648 74.2466 115.346 75.8246C115.171 76.7648 115.876 77.5034 116.528 78.1615C116.749 78.3764 116.958 78.6047 117.199 78.833C117.394 79.283 117.052 79.2494 116.783 79.2897C116.013 78.9953 115.356 78.4627 114.909 77.7695C114.462 77.0762 114.248 76.2584 114.298 75.4351C114.331 75.1036 114.282 74.7691 114.157 74.4604C114.032 74.1516 113.834 73.8778 113.58 73.6623C110.291 70.3436 106.693 67.3462 102.835 64.7109C102.54 64.496 102.157 64.4087 102.191 63.9655Z" fill="#684A52"/>
<path d="M122.753 68.0486C121.954 67.5517 121.866 66.6518 121.571 65.8863C120.899 64.2545 120.765 62.4683 120.134 60.8499C119.751 59.8829 119.65 58.8353 119.147 57.922C118.669 56.9713 118.24 55.9963 117.864 55.0009C117.712 54.726 117.638 54.415 117.649 54.1011C118.675 55.7942 119.47 57.6167 120.013 59.5203C120.745 61.8303 121.356 64.1739 122.095 66.4907C122.285 67.0219 122.504 67.5421 122.753 68.0486Z" fill="#684A52"/>
<path d="M116.635 79.1154C116.857 79.1154 117.112 79.1154 117.132 78.7998C118.24 80.0958 118.039 81.0494 116.494 81.7881C114.95 82.5268 114.48 82.4596 113.56 81.4926C113.609 81.4935 113.659 81.4844 113.705 81.4659C113.751 81.4473 113.792 81.4196 113.828 81.3845C113.863 81.3494 113.89 81.3076 113.909 81.2615C113.927 81.2155 113.937 81.1662 113.936 81.1166C114.493 81.1166 114.869 81.7881 115.5 81.5464C115.797 81.4713 116.085 81.3655 116.36 81.2307C117.219 80.7136 117.273 80.2369 116.635 79.1154Z" fill="#684A52"/>
<path d="M44.1442 37.454C44.2852 37.454 44.4396 37.6151 44.5538 37.407C45.2253 37.783 45.4536 38.656 46.0849 39.0052C46.0849 38.2867 45.5812 37.548 46.0849 36.769C46.2998 36.8698 46.2058 37.1115 46.3199 37.2861C46.7094 36.44 47.26 36.9503 47.7704 37.0981C46.5549 37.0981 46.2192 37.7696 46.6624 39.2873C46.743 39.5424 47.0049 39.764 46.79 40.1468C45.6215 39.5021 44.5874 38.7836 44.1442 37.454Z" fill="#684A52"/>
<path d="M119.644 64.4963C120.315 66.8332 121.819 68.6328 123.471 70.3116C124.445 71.2988 125.486 72.2322 126.52 73.1388C126.655 73.2595 126.755 73.414 126.811 73.5863C126.866 73.7585 126.875 73.9425 126.836 74.1192C126.782 75.4623 126.708 76.8053 127.628 77.9267C127.994 78.394 128.437 78.7959 128.938 79.1153C129.609 79.5384 130.563 79.854 130.361 80.8815C130.16 81.9089 129.253 82.4058 128.279 82.6274C127.961 82.7322 127.625 82.7713 127.292 82.7422C126.958 82.7131 126.634 82.6165 126.338 82.4582C126.043 82.2999 125.783 82.0833 125.574 81.8215C125.366 81.5597 125.212 81.2581 125.123 80.9352C124.643 79.5708 124.416 78.1304 124.452 76.6844C124.452 76.3084 124.452 75.9726 124.129 75.6906C121.47 73.5417 118.815 71.3861 116.165 69.2238L116.454 69.0761C116.984 68.841 117.656 69.1634 118.092 68.653C117.555 68.3105 116.87 68.6194 116.273 68.371C113.49 68.04 110.796 67.1808 108.335 65.8393C106.2 64.6598 104.309 63.0851 102.762 61.1991C102.627 61.0312 102.419 60.8768 102.5 60.5276C104.481 60.7223 106.468 60.8365 108.402 60.0105C103.625 59.8711 98.9403 58.6569 94.6965 56.4581C93.6358 56.1205 92.6585 55.5621 91.8291 54.8196C91.8829 55.1084 92.0843 55.2427 92.2186 55.4172C92.3828 55.6108 92.5649 55.7885 92.7625 55.9478C93.7161 56.7872 93.6758 57.1364 92.4402 57.4923C90.7883 57.9556 89.0826 58.2511 87.4105 58.5936C85.07 58.959 82.6966 59.0671 80.3327 58.9159C79.6062 58.8943 78.8897 58.7419 78.2174 58.466C78.1531 58.4042 78.0754 58.358 77.9904 58.3312C77.9053 58.3044 77.8152 58.2977 77.7271 58.3115L76.2901 57.64C80.4401 58.5197 84.5028 58.4324 88.4447 56.6932C84.5297 57.4654 80.6483 57.5997 76.834 56.1828C79.9749 56.7262 83.1905 56.667 86.3092 56.0082C86.802 55.9739 87.2717 55.786 87.6523 55.471C87.1486 55.2964 86.6718 55.471 86.2085 55.424C85.49 55.6389 84.7647 55.424 84.0462 55.4777C84.0042 55.4856 83.9609 55.4834 83.92 55.4712C83.879 55.4591 83.8415 55.4373 83.8107 55.4077C83.7798 55.3782 83.7564 55.3417 83.7425 55.3013C83.7286 55.2609 83.7245 55.2178 83.7306 55.1755C83.7221 55.1256 83.7263 55.0743 83.7428 55.0264C83.7593 54.9786 83.7876 54.9356 83.825 54.9015C83.8625 54.8674 83.9079 54.8433 83.9571 54.8313C84.0063 54.8193 84.0577 54.8199 84.1066 54.833C84.7238 54.8198 85.3371 54.7319 85.9332 54.5711C86.1413 54.5711 86.457 54.5711 86.4167 54.2622C86.3764 53.9533 86.1078 54.0608 85.913 54.0608C84.3617 54.108 82.809 54.0474 81.2661 53.8795C79.7216 53.6982 78.1099 53.7452 76.7467 52.7782C76.5911 52.6575 76.4492 52.5202 76.3237 52.3685C76.2186 51.7323 76.2811 51.0796 76.505 50.4748C76.505 50.1928 76.881 50.0451 76.7669 49.6354C75.5017 50.4436 74.4309 51.5213 73.6308 52.7916C72.4663 54.572 71.754 56.6097 71.5558 58.7279C71.4887 59.3994 71.2671 59.5874 70.5754 59.3994C67.5914 58.4477 64.4101 58.2949 61.3487 58.9562C61.5098 58.4257 62.0202 58.2847 62.4097 57.875C61.5031 57.687 60.9256 58.2242 60.328 58.5466C58.1321 59.762 57.6419 61.7229 58.8036 63.9188C59.2081 64.6989 59.6991 65.431 60.2675 66.1012C61.1136 67.0682 60.939 68.1158 59.7101 68.6261C59.0169 68.9639 58.2245 69.0379 57.4807 68.8343C54.7946 68.0419 53.5993 66.4168 53.4516 63.1801C53.4516 62.9249 53.4515 62.6697 53.418 62.4146C53.7067 61.3871 53.8075 60.3126 54.0492 59.2718C54.5193 57.2102 55.9026 56.0015 57.6217 55.1017C59.3183 54.2648 61.0959 53.6033 62.9267 53.1274C63.5983 52.9326 64.0885 52.9662 64.1623 53.8459C64.2142 54.1994 64.371 54.5292 64.6123 54.7927C64.7197 53.584 64.7533 52.3618 64.948 51.1665C65.3217 48.2573 66.5351 45.52 68.44 43.2895C68.7489 42.9471 68.9436 42.8866 69.3264 43.1821C71.3488 44.6735 73.0255 46.5838 74.2419 48.7826C74.2755 48.8497 74.3561 48.8833 74.5173 49.0109C75.2104 46.3914 75.1146 43.6254 74.2419 41.0601C75.5233 42.4682 76.6262 44.029 77.5257 45.707C78.4054 44.2095 77.66 38.6963 75.9879 35.9162C75.9073 35.6812 75.5447 35.4394 75.8804 35.2044C76.2162 34.9694 76.4042 35.2648 76.6124 35.4394C76.791 35.6125 76.9842 35.7698 77.1899 35.9095C78.04 36.7123 78.7907 37.6141 79.4261 38.5956C79.6947 37.9576 79.4261 37.3264 79.641 36.581L80.3528 37.548C81.9829 39.6536 84.0056 41.4233 86.3092 42.759C86.4362 42.8143 86.5692 42.8548 86.7054 42.8799C87.3415 43.1588 87.9469 43.5032 88.5118 43.9074C88.6663 44.6662 88.1425 44.2297 87.8806 44.2632L86.5375 43.7193C84.8084 43.0673 83.1858 42.162 81.7227 41.0332C82.7837 42.195 84.4491 43.0478 85.8257 44.2297L87.6926 45.2504C88.2432 45.7406 87.8604 45.9219 87.4239 46.1032C86.7658 46.0587 86.1258 45.8684 85.5504 45.5459C86.8309 46.1311 88.1449 46.64 89.4855 47.0702C89.8184 47.1379 90.1325 47.2777 90.4055 47.4798C91.1605 47.6107 91.9071 47.7856 92.6417 48.0036C94.1341 48.3854 95.6622 48.6104 97.2013 48.6752C97.3961 48.7826 97.5237 48.8632 97.2752 49.0915C97.0267 49.3198 96.6037 49.6623 96.2545 49.9511C96.7375 49.7462 97.2456 49.6062 97.7654 49.5347C100.639 48.5239 103.679 48.0681 106.724 48.1916C107.395 48.4603 108.187 48.1245 108.893 48.6282C106.327 48.7692 103.816 48.8363 101.472 49.9242C105.554 49.3873 109.698 50.211 113.264 52.2678C112.062 52.1805 110.874 51.7978 109.463 52.1268C111.833 52.6508 114.031 53.7641 115.856 55.3636C115.058 55.1269 114.219 55.0561 113.392 55.1554C114.575 55.6138 115.672 56.27 116.635 57.0961C117.168 57.5891 117.672 58.1115 118.146 58.6607C118.233 58.8555 118.287 59.0301 117.972 59.0099C116.904 58.3384 115.903 57.5594 114.352 57.6669C115.904 58.2525 117.266 59.2538 118.287 60.5611C118.428 60.8096 118.885 61.0043 118.663 61.3065C118.442 61.6087 118.113 61.2662 117.857 61.1454C117.43 60.9317 116.98 60.7694 116.514 60.6618C116.407 60.6618 116.474 60.8566 116.474 60.7424C116.474 60.3999 117.636 61.2192 117.925 61.7632C118.648 62.5703 119.229 63.4945 119.644 64.4963Z" fill="white"/>
<path d="M64.9211 33.7203L64.2496 32.854C64.0481 32.3101 64.2496 32.1825 64.7734 32.3302C65.6042 32.5729 66.4008 32.9204 67.1438 33.3644C67.6408 33.68 68.3123 33.6531 68.7085 34.1769C68.3911 33.7618 68.048 33.3671 67.6811 32.9951C66.6404 32.1186 65.5158 31.3471 64.3235 30.6917C66.1769 30.5373 67.7348 31.4103 69.3129 32.1892C69.6575 32.2483 69.9838 32.3862 70.2664 32.5921C70.0471 32.421 69.8508 32.2224 69.6822 32.0012C67.8557 30.2686 65.5859 29.4293 63.2289 28.7578C63.2057 28.7418 63.1809 28.7282 63.155 28.7174C62.2216 28.6167 62.2216 28.6167 62.5372 27.7437C62.9533 27.2658 63.4375 26.8517 63.9742 26.5148C64.0481 26.4813 64.0817 26.3604 64.1354 26.2798L63.7325 26.2194C62.3846 26.5081 60.9908 26.5081 59.6429 26.2194C59.1393 26.0381 59.1393 25.8165 59.6026 25.5949C60.2981 25.2835 60.9712 24.9245 61.6172 24.5204C58.1857 25.0778 54.7744 25.7695 51.3362 25.2792C55.3967 22.742 60.2525 21.7972 64.9681 22.6267C63.5176 22.902 61.9933 22.8617 60.5159 23.6541C62.748 23.2722 65.0428 23.5354 67.1304 24.413C65.8657 24.5194 64.6199 24.7879 63.4236 25.2121C64.4376 25.2121 65.4382 25.1516 66.479 25.2121C67.525 25.2818 68.5408 25.592 69.4472 26.1186C67.6878 26.4678 65.9485 26.4007 64.2764 27.502L65.8545 27.6296C68.1086 27.815 70.2807 28.5606 72.1736 29.7986C72.4418 29.9004 72.7003 30.0263 72.9458 30.1747C72.888 29.9798 72.8068 29.7927 72.7041 29.6173C71.7975 28.7913 71.0118 27.8109 69.7494 27.3341C71.1931 27.0722 73.8255 28.1466 75.0813 29.4561C75.0813 29.9396 75.0813 29.9396 74.4097 29.624C74.2083 29.5703 74.1143 29.2681 73.7919 29.3889C74.2553 30.0135 74.7119 30.6044 75.135 31.2155C75.6328 31.8459 75.9879 32.5767 76.1758 33.3577C74.2217 32.0549 72.4422 30.7656 70.2194 30.3493C72.6571 32.5116 74.7388 34.9089 75.7192 38.0919C74.4097 36.816 73.1943 35.4058 71.4819 34.6269C71.2872 35.0365 71.6498 35.1305 71.7102 35.3521C72.3817 36.2586 73.1875 37.0511 73.8994 37.9307L74.5709 38.9649C74.3493 39.6364 74.0404 39.2066 73.8658 38.9649C73.364 38.3205 72.7237 37.7972 71.9922 37.4338C71.4953 37.0376 70.7969 37.0175 70.3202 36.5743C70.0985 36.3929 69.7695 36.5743 69.6486 36.393C69.788 36.4909 69.9029 36.6195 69.9844 36.769L70.3336 37.0913C70.7547 37.3414 71.1095 37.6892 71.3677 38.1054C72.1167 39.04 72.7545 40.0586 73.2681 41.1406C73.3353 41.4361 73.4629 41.745 73.154 41.98C72.8451 42.215 72.7578 41.8793 72.5698 41.7987L70.8842 40.3549C70.7902 40.2341 70.6693 40.1602 70.5283 40.2542C70.3873 40.3482 70.4545 40.4422 70.5283 40.5363C70.7884 40.7892 71.0244 41.0657 71.2334 41.3622C72.2749 42.6465 73.0592 44.1193 73.5435 45.7003C71.6162 43.6857 69.7628 41.5368 66.9625 40.1803C67.2043 40.9324 67.6878 41.2279 67.9497 41.6644C68.2116 42.1009 68.319 42.3359 67.9497 42.6515C67.2897 43.3128 66.7288 44.066 66.2843 44.8877C66.0224 45.3511 65.7672 45.3108 65.6128 44.8877C65.2904 44.1088 65.0218 43.3164 64.6794 42.3964C64.2813 43.938 64.2813 45.5555 64.6794 47.0971C64.9278 48.1984 64.545 49.0579 64.1086 50.1055C63.4975 49.0109 63.3766 47.8827 62.8595 46.8822C62.6033 48.1411 62.6586 49.4436 63.0207 50.6763C63.3967 52.0193 63.3565 52.0932 62.0336 52.4088C60.7106 52.7244 60.6905 52.7244 60.019 51.5023C59.1161 49.8285 58.5955 47.9754 58.4946 46.0763C58.3267 43.7864 58.0313 41.5234 56.789 39.5088C56.6949 39.0992 56.8695 38.9515 57.1717 39.2469C57.4295 39.4728 57.6554 39.7326 57.8432 40.0192C59.8578 42.8933 60.6972 46.2106 61.4359 49.5683C61.6176 45.8852 60.8985 42.2133 59.3407 38.8709C59.1803 38.2914 58.8859 37.7577 58.4812 37.313L58.3469 37.1316C58.4409 36.6481 58.4946 36.6011 58.8169 36.8563C59.2534 37.1988 59.5758 37.6689 60.0458 37.9778C61.3889 39.3208 62.188 41.0601 63.0744 42.7322C62.8998 39.8715 62.2484 37.1854 60.4756 34.8283C62.0597 35.5469 63.3759 36.748 64.2361 38.2598C64.4645 37.0846 63.9407 36.2788 63.6653 35.426C63.3334 34.5256 62.8816 33.6741 62.3223 32.8943C63.3363 32.9883 63.8265 33.6397 64.4242 34.0896C64.8405 34.2642 65.0957 34.7209 65.5188 34.8216C65.4671 34.3918 65.2534 33.9978 64.9211 33.7203Z" fill="white"/>
<path d="M47.5622 35.2647C47.8891 35.5716 48.122 35.9652 48.2337 36.3995C46.9977 36.0575 45.7088 35.9482 44.4329 36.0772C44.3477 36.0872 44.2613 36.0759 44.1816 36.0443C44.1019 36.0126 44.0313 35.9616 43.9762 35.8959C43.4618 35.1211 43.0382 34.2896 42.7138 33.418C42.5593 33.0285 42.8951 33.0352 43.157 33.0419C43.8503 33.1242 44.5524 32.9955 45.1715 32.6726C45.2655 32.6054 45.3797 32.5719 45.4267 32.4644C44.8626 32.3301 44.9298 31.484 44.2515 31.437C43.9359 31.437 43.4256 31.437 43.6472 30.8125L46.8839 29.785C47.0451 29.6776 47.2466 29.6642 47.4077 29.5433C47.7569 29.2747 47.8375 29.5097 47.8644 29.8119C47.8523 29.8928 47.8297 29.9719 47.7972 30.047C47.6726 30.3674 47.4551 30.6433 47.1727 30.8393C47.4682 30.9535 47.5152 30.7252 47.636 30.6379C48.6137 29.8473 49.6905 29.1881 50.8392 28.677C50.4062 28.6301 49.9694 28.6301 49.5364 28.677C49.2947 28.677 48.9992 28.8113 48.8649 28.4957C48.7306 28.1801 48.9186 28.0055 49.0597 27.7906C49.1757 27.6334 49.3086 27.4893 49.4559 27.3609C49.6842 26.9378 49.8924 26.4879 50.4497 26.4006C52.5842 25.9436 54.7899 25.9299 56.9299 26.3603C56.433 26.8572 55.7749 26.9311 55.4324 27.5086C55.7816 27.6563 56.0704 27.3407 56.3726 27.4011C56.6076 27.3273 56.8829 27.2198 57.0441 27.4414C57.2053 27.663 56.9971 27.7973 56.8896 27.9451C56.7724 28.0662 56.6334 28.1641 56.48 28.2338C56.4128 28.2338 56.3323 28.2943 56.2651 28.3346C56.198 28.3749 56.0704 28.4017 56.0435 28.5159C56.1509 28.5159 56.2114 28.4353 56.3054 28.4084C56.7602 28.1193 57.3025 28.0004 57.8365 28.0727C58.0648 28.113 58.2931 28.1734 58.3468 28.442C58.3734 28.5672 58.3533 28.6978 58.2902 28.8091C58.2271 28.9205 58.1254 29.0049 58.0044 29.0464C57.7223 29.1673 57.4201 29.2546 57.0911 29.4292C57.62 29.4813 58.1517 29.3611 58.6068 29.0863C59.0618 28.8116 59.4158 28.3972 59.616 27.9048C60.0794 27.3944 60.489 27.3273 60.8516 27.7369C61.3284 28.2741 60.8113 28.6636 60.5561 29.0128C60.323 29.2466 60.0665 29.4559 59.7906 29.6373C58.5617 30.4835 57.1045 30.3894 55.6876 30.4767C56.0368 30.8662 56.527 30.9065 56.9098 31.1483C57.5813 31.5109 58.2528 31.8198 58.9243 32.1958L59.2668 32.3838C59.4549 32.4644 59.5354 32.592 59.4078 32.7801C59.3821 32.8225 59.3478 32.859 59.3071 32.8874C59.2664 32.9158 59.2203 32.9353 59.1716 32.9448C59.1229 32.9543 59.0728 32.9535 59.0244 32.9425C58.9761 32.9315 58.9305 32.9104 58.8908 32.8808C58.4277 32.682 57.9522 32.5137 57.4671 32.3771C57.2902 32.28 57.0955 32.2198 56.8946 32.2002C56.6938 32.1806 56.491 32.2019 56.2987 32.263C56.2987 32.5249 56.5673 32.5651 56.7083 32.7062C57.7553 33.4713 58.7146 34.3496 59.569 35.3251C59.9854 35.7415 59.9451 35.8221 59.4347 35.9228C57.7156 34.8282 55.9831 33.7672 53.9081 33.4449C54.794 34.3889 55.6151 35.3918 56.3658 36.4466C56.4531 36.8629 56.2987 36.8696 56.0099 36.6614C55.4245 36.1596 54.7372 35.7908 53.9954 35.5803L53.6462 35.4191C53.3373 35.2378 52.9746 35.2177 52.659 35.0229C52.4576 34.902 52.2225 34.7946 52.0681 35.0229C51.9136 35.2512 52.1823 35.4057 52.2964 35.587C52.8202 35.9026 52.9679 36.5003 53.2768 36.9636C53.3963 37.0839 53.4891 37.228 53.5493 37.3865C53.6094 37.545 53.6356 37.7144 53.626 37.8836C53.8006 39.3677 53.9618 40.8652 53.2164 42.2284C53.5052 42.0807 53.3507 41.436 53.9282 41.4964C54.2237 41.7785 54.0625 42.0941 53.9886 42.403C53.845 42.5954 53.7824 42.8364 53.814 43.0745C53.7133 43.8199 53.1828 44.4579 53.2768 45.2503L52.0949 46.9425C51.525 46.9742 50.962 46.8056 50.5034 46.4657C49.9528 46.1568 49.7983 45.7942 50.208 45.1227C50.9628 43.925 51.3887 42.5496 51.4429 41.1349C51.4972 39.7203 51.1778 38.3163 50.5169 37.0644C50.2565 36.4099 49.8813 35.8072 49.4088 35.2848C49.0732 34.8294 48.6648 34.4323 48.2001 34.1097L48.0121 33.9552C47.8711 33.8142 47.6092 33.9552 47.5555 33.8007C47.7301 33.9821 47.8106 34.338 48.0255 34.6133C48.1934 34.8953 48.0658 35.0095 47.7905 35.0296C47.5151 35.0498 47.4547 34.949 47.5622 35.2647Z" fill="white"/>
<path d="M43.1705 51.0662L45.3865 50.2134C45.4974 50.156 45.6186 50.1211 45.7431 50.1107C45.8675 50.1003 45.9928 50.1147 46.1117 50.1529C46.4878 50.247 46.5079 50.482 46.246 50.7573L45.0306 51.6773C45.7961 51.872 46.2863 51.2878 46.884 51.3818C47.8891 51.1182 48.9412 51.0884 49.9596 51.2945C50.3625 51.3751 50.7855 51.449 50.3558 52.0332C50.0804 52.4025 50.5572 52.2884 50.6714 52.4025C53.1224 52.8457 53.7067 53.5509 54.6602 55.6997C52.7787 55.0417 50.8309 54.5914 48.8515 54.3567C49.9297 53.807 51.1718 53.6709 52.3435 53.9739C52.1748 53.7847 51.9678 53.6336 51.7363 53.5305C51.5047 53.4275 51.2539 53.3749 51.0004 53.3763C50.24 53.2085 49.4521 53.2081 48.6914 53.3751C47.9308 53.542 47.2155 53.8724 46.5952 54.3432C46.0925 54.7314 45.7102 55.2542 45.4927 55.8509C45.2752 56.4476 45.2314 57.0937 45.3663 57.7143C45.5173 58.6615 45.7418 59.5955 46.0379 60.5078C46.5482 62.1329 46.0379 62.8917 44.3725 62.9723C43.5177 63.0529 42.662 62.8271 41.9584 62.335C41.2548 61.843 40.749 61.1168 40.5314 60.2862C40.0571 58.896 39.9439 57.4081 40.2024 55.9622C40.4608 54.5162 41.0823 53.1597 42.0087 52.0198C42.3311 51.5967 42.8616 51.4557 43.1705 51.0662Z" fill="white"/>
<path d="M55.9092 52.2544C54.81 49.8872 54.4993 47.2297 55.0228 44.6728C55.4363 43.1421 55.5458 41.5451 55.3451 39.9722C55.7177 40.2061 55.9904 40.5697 56.1106 40.9929C55.8096 41.6696 55.6782 42.4095 55.7279 43.1485C55.7279 44.3035 55.2108 45.331 55.2175 46.4658C55.2576 46.39 55.3136 46.3239 55.3818 46.2719C55.4499 46.2199 55.5286 46.1834 55.6123 46.1649C55.696 46.1463 55.7827 46.1462 55.8664 46.1646C55.9502 46.1829 56.0289 46.2193 56.0972 46.2711C56.057 48.5419 56.588 50.7864 57.6417 52.7983C57.8163 53.1609 58.5617 53.3557 58.1454 53.8794C57.9103 54.1749 57.4 54.2488 57.0239 54.4435C55.3585 55.2964 55.3585 55.3031 54.3781 53.6847C53.4577 52.2782 52.9891 50.624 53.0351 48.9438C53.0199 48.512 53.1474 48.0872 53.3977 47.735C53.9752 49.9376 54.7407 51.9589 56.3255 53.5772C56.5337 53.0938 56.0636 52.9057 56.0703 52.5632C56.3287 52.0019 56.3856 51.3687 56.2315 50.7703C56.1979 50.5823 56.1308 50.3942 56.0771 50.2062C56.0233 50.0182 56.3927 49.6891 55.8084 49.7496C55.5734 49.7496 55.5264 49.2997 55.5801 49.0176C55.6259 48.4142 55.7156 47.815 55.8487 47.2247C55.1772 48.5207 55.4257 49.7898 55.9495 51.0523C56.1106 51.4619 56.2651 51.8716 55.9092 52.2544Z" fill="white"/>
<path d="M56.1106 46.2847C55.8353 46.4123 55.3183 46.2242 55.4055 46.8353C55.4131 46.8704 55.4117 46.9068 55.4015 46.9412C55.3914 46.9756 55.3728 47.007 55.3474 47.0323C55.322 47.0577 55.2907 47.0763 55.2563 47.0865C55.2219 47.0966 55.1855 47.098 55.1504 47.0905C54.9288 47.0905 54.9086 46.8689 54.9288 46.701C54.959 46.3951 55.0129 46.0921 55.0899 45.7945C55.3907 44.2914 55.6148 42.774 55.7615 41.2482C55.8085 40.9528 55.8958 40.9192 56.1308 41.0065C57.1267 42.5992 57.6828 44.4273 57.7424 46.3048C57.7977 48.5441 58.4667 50.7252 59.6764 52.6104C59.8107 52.8387 60.1264 53.0402 59.7234 53.2819C59.3205 53.5237 59.2467 53.282 59.0519 53.0066C57.8011 51.1506 56.9189 49.0715 56.4531 46.8823C56.3994 46.6674 56.3255 46.4593 56.2517 46.2511C56.2517 46.2511 56.2047 46.2511 56.1778 46.2511C56.1544 46.2602 56.132 46.2714 56.1106 46.2847Z" fill="white"/>
<path d="M55.9094 52.2542C55.9519 51.8081 55.8681 51.359 55.6676 50.9581C55.2611 50.0252 55.1171 48.9988 55.2513 47.99C55.2513 47.5065 55.9228 47.3185 55.8355 46.7812C56.0974 47.7751 55.7146 48.7958 55.8825 49.9643L56.2115 49.2927C56.366 50.4008 56.5607 51.4349 56.6279 52.4758C56.6615 53.013 56.2787 52.5899 56.0772 52.5899L55.9094 52.2542Z" fill="white"/>
<path d="M56.782 27.9181C57.279 27.3137 56.7351 27.4279 56.4127 27.3943C57.1332 27.1092 57.9049 26.9763 58.6792 27.0041C59.4535 27.0318 60.2137 27.2195 60.9119 27.5554C61.4491 27.777 61.6372 28.086 61.147 28.6299C60.8207 29.0844 60.3675 29.4325 59.8442 29.6305C59.8442 29.0597 60.6903 29.0731 60.7172 28.4083C60.7172 28.18 61.0999 27.9584 60.7172 27.7368C60.6471 27.6771 60.5634 27.6355 60.4735 27.6156C60.3836 27.5957 60.2902 27.5981 60.2014 27.6226C60.1127 27.6471 60.0313 27.6929 59.9643 27.7561C59.8974 27.8194 59.8469 27.898 59.8173 27.9852C58.8074 28.1046 57.7857 28.082 56.782 27.9181Z" fill="white"/>
<path d="M50.4833 26.394C49.8923 26.4746 50.1139 27.2401 49.6305 27.408C48.9631 27.8442 48.4728 28.5035 48.2471 29.2681C48.133 29.5233 48.2068 29.9397 47.7703 29.9397C47.73 29.7248 47.8106 29.3622 47.3808 29.6711C47.2667 29.7584 47.0652 29.7315 46.9108 29.7584C47.8912 29.1943 47.7972 27.9788 48.4351 27.2133C49.025 26.7492 49.7361 26.4648 50.4833 26.394Z" fill="white"/>
<path d="M56.7823 32.6864C56.3122 32.7334 56.1108 32.4312 55.8422 32.0619C57.0173 31.8 57.9104 32.4447 58.8774 32.6999C59.2132 32.7872 59.549 32.9819 59.3408 32.3641C60.1504 32.6808 60.8359 33.2508 61.2949 33.9892C60.0114 33.3712 58.6824 32.8526 57.3195 32.438C57.071 32.3842 56.6748 32.0552 56.7823 32.6864Z" fill="white"/>
<path d="M72.0393 37.4604C72.416 37.524 72.7742 37.6693 73.0886 37.8863C73.4031 38.1033 73.6661 38.3865 73.8591 38.7162C73.9733 38.9109 74.1412 39.5623 74.618 38.9848C75.1756 39.5714 75.5593 40.3014 75.726 41.0934C74.5957 39.7863 73.3629 38.5714 72.0393 37.4604Z" fill="white"/>
<path d="M53.8544 41.4896C53.6627 42.0288 53.3582 42.521 52.9613 42.9334C53.6328 40.9591 54.0828 38.9915 53.3441 36.9434C54.0626 37.6149 53.8209 38.4543 53.9014 39.2534C53.9014 39.4817 53.653 39.9249 54.2573 39.8511C54.3169 40.1369 54.3116 40.4325 54.2418 40.716C54.1721 40.9996 54.0398 41.2639 53.8544 41.4896Z" fill="#684A52"/>
<path d="M50.6714 52.4085C50.4028 52.4085 50.1275 52.5361 49.9059 52.3212C49.8656 52.1533 49.9797 52.113 50.0603 52.0459C50.1409 51.9787 50.4901 51.9115 50.3827 51.6362C50.2752 51.3609 50.0671 51.4549 49.879 51.4079C48.8859 51.2635 47.8771 51.2635 46.884 51.4079C48.5561 50.7901 50.1543 51.1124 51.9943 51.7705C51.3899 51.9116 51.0206 51.9854 50.6513 52.0795C50.1611 52.1667 50.6848 52.2675 50.6714 52.4085Z" fill="white"/>
<path d="M74.4368 29.644C74.6382 29.4962 75.021 30.0469 75.1083 29.4761C76.0557 30.1268 76.7634 31.0705 77.1229 32.1622L74.4368 29.644Z" fill="white"/>
<path d="M46.246 50.7364C46.3938 49.8567 45.6954 50.3402 45.3798 50.1925C45.386 50.1416 45.3995 50.0918 45.4201 50.0447C46.6429 49.7867 47.885 49.6295 49.1336 49.5747L46.246 50.7364Z" fill="white"/>
<path d="M62.5508 27.7437C62.2755 28.4152 62.7455 28.6032 63.2223 28.7577C63.0266 28.7425 62.8302 28.7762 62.6508 28.856C62.4714 28.9357 62.3148 29.0589 62.1949 29.2143C61.6608 29.8867 60.8894 30.3288 60.0393 30.4499C61.0774 29.7576 61.9378 28.8305 62.5508 27.7437Z" fill="white"/>
<path d="M59.5019 35.9026C60.0794 35.728 59.6765 35.5064 59.5019 35.352C58.7673 34.5165 57.9557 33.7521 57.0777 33.0688C56.9532 32.9584 56.8467 32.8293 56.7621 32.686C58.3132 33.5822 59.5707 34.9096 60.3816 36.507L59.5019 35.9026Z" fill="white"/>
<path d="M72.59 41.8253C73.3152 42.1342 73.2615 41.644 73.2615 41.1538C73.6823 41.9134 73.9127 42.7636 73.933 43.6317L72.59 41.8253Z" fill="white"/>
<path d="M57.7964 39.9924C57.5186 39.8109 57.2735 39.5839 57.0711 39.3209C56.8495 39.0926 56.8294 39.3679 56.769 39.5022C56.3996 38.8307 55.7348 38.3606 55.493 37.5884C56.4878 38.1363 57.2915 38.9751 57.7964 39.9924Z" fill="white"/>
<path d="M54.0961 35.5605C54.9288 35.5067 55.4928 36.0306 56.1106 36.4738C56.2517 36.5812 56.4061 36.8297 56.4867 36.4267C56.8762 36.6148 57.0038 36.9639 57.2187 37.4944L54.0961 35.5605Z" fill="white"/>
<path d="M67.681 32.9951C68.3055 33.21 68.6346 33.7606 69.0644 34.1971C69.1651 34.3046 69.2188 34.4456 69.0644 34.5665C69.0433 34.5855 69.0183 34.5998 68.9912 34.6082C68.964 34.6166 68.9354 34.619 68.9072 34.6152C68.8791 34.6113 68.8521 34.6013 68.8282 34.586C68.8043 34.5706 68.7841 34.5502 68.7689 34.5262C68.3324 33.989 67.6206 33.8547 67.1371 33.3644H67.4527C67.5937 33.3644 67.7616 33.586 67.8556 33.398C67.9496 33.21 67.7482 33.1361 67.681 32.9951Z" fill="#684A52"/>
<path d="M53.344 45.2299C52.8941 44.3502 53.5186 43.7324 53.8812 43.0542C54.0102 43.4301 54.0281 43.8353 53.9328 44.2211C53.8376 44.607 53.6331 44.9572 53.344 45.2299Z" fill="white"/>
<path d="M59.6562 26.2191C60.9993 26.4407 62.3826 26.1789 63.7458 26.2191C62.4255 26.7024 60.9766 26.7024 59.6562 26.2191Z" fill="white"/>
<path d="M77.183 35.9091C76.6659 35.9091 76.5115 35.2376 75.9474 35.2913C75.7527 35.5129 76.0616 35.7076 75.9474 35.9158C75.5176 35.6203 75.5176 35.1167 75.2155 34.5728C76.0025 34.7853 76.6953 35.2559 77.183 35.9091Z" fill="white"/>
<path d="M53.8542 41.4901L54.2571 39.8516C54.3999 40.2646 54.4557 40.7028 54.4211 41.1385C54.3864 41.5741 54.262 41.9979 54.0557 42.3832C53.9751 42.0877 54.1833 41.7251 53.8542 41.4901Z" fill="white"/>
<path d="M73.9398 37.9512C73.0489 37.2426 72.3052 36.3666 71.7506 35.3726C72.6221 36.1009 73.3625 36.973 73.9398 37.9512Z" fill="white"/>
<path d="M64.9212 33.7202C65.5458 34.0291 65.6264 34.694 66.0628 35.3856C65.4233 35.0541 64.8569 34.5974 64.3975 34.0426C64.7601 33.9486 64.8877 34.338 65.2369 34.432L64.9212 33.7202Z" fill="white"/>
<path d="M59.999 37.9505C59.4484 37.8766 59.2469 37.3461 58.8574 37.0641C58.656 36.9231 58.4411 36.547 58.3001 37.1044L57.6823 36.0635C58.5989 36.4908 59.395 37.1392 59.999 37.9505Z" fill="white"/>
<path d="M52.3636 35.5669C52.0681 35.399 51.6921 35.1976 51.9405 34.8282C52.189 34.4589 52.5046 34.5932 52.7934 34.9021C53.0821 35.211 53.5052 35.0431 53.7133 35.399C53.3519 35.3749 52.9985 35.2815 52.6725 35.1237C52.0815 34.9491 52.3837 35.3587 52.3636 35.5669Z" fill="white"/>
<path d="M69.6956 32.001C70.253 32.0816 70.4679 32.5718 71.0387 33.0418C70.4148 32.9018 69.8356 32.6087 69.3531 32.189L69.6956 32.001Z" fill="#684A52"/>
<path d="M72.7444 29.6377C73.1876 29.7586 73.2413 30.1682 73.5636 30.6047C73.0382 30.507 72.5632 30.2292 72.2206 29.819C72.3952 29.7653 72.6101 29.8324 72.7444 29.6377Z" fill="#684A52"/>
<path d="M71.2198 41.3624C70.7284 41.033 70.3453 40.5658 70.1185 40.0193C70.4744 39.9253 70.7296 39.9791 70.8707 40.335C70.602 40.335 70.6356 40.4491 70.7699 40.617C70.9042 40.7849 71.2467 40.9931 71.2198 41.3624Z" fill="#684A52"/>
<path d="M58.9714 32.1755C58.2311 31.9784 57.5433 31.6208 56.9568 31.1279C57.7078 31.2966 58.402 31.6576 58.9714 32.1755Z" fill="white"/>
<path d="M70.0045 36.7964L68.9972 36.1786C69.2384 36.1458 69.4839 36.1667 69.7161 36.2399C69.9482 36.313 70.1614 36.4366 70.3402 36.6017C70.2717 36.5998 70.204 36.617 70.1447 36.6514C70.0854 36.6858 70.0369 36.736 70.0045 36.7964Z" fill="#684A52"/>
<path d="M64.7732 32.3302C64.4173 32.3302 64.2092 32.4645 64.2494 32.854C64.001 32.6794 63.5779 32.4511 63.8197 32.1825C64.0614 31.9139 64.4643 32.1489 64.7732 32.3302Z" fill="white"/>
<path d="M58.4342 37.2861C58.9446 37.689 59.4079 38.1054 59.2938 38.8441C58.9399 38.3648 58.6509 37.841 58.4342 37.2861Z" fill="white"/>
<path d="M73.7584 25.3999C73.8976 25.4299 74.0291 25.4884 74.1447 25.5716C74.2602 25.6548 74.3573 25.7609 74.4299 25.8834C74.7993 26.3535 74.3225 26.1587 74.1412 26.1923L73.7853 25.8834L73.7584 25.3999Z" fill="#684A52"/>
<path d="M71.3878 38.1322C70.9935 37.8487 70.6448 37.5068 70.3536 37.1182C70.6092 37.1606 70.8456 37.2807 71.0306 37.4621C71.2156 37.6435 71.3403 37.8775 71.3878 38.1322Z" fill="#684A52"/>
<path d="M76.3102 52.4092C77.7405 53.6582 79.5469 53.5239 81.2593 53.7522C82.7738 53.9089 84.297 53.9649 85.819 53.9201C85.9969 53.9081 86.1752 53.9355 86.3412 54.0006C86.5073 54.0656 86.6568 54.1665 86.7793 54.2962C86.1816 54.9677 85.3288 54.7327 84.6169 54.9341C84.4471 54.9477 84.2764 54.9477 84.1066 54.9341C83.9454 54.9341 83.8178 55.0281 83.8514 55.196C83.885 55.3639 84.0663 55.2497 84.1469 55.2766C84.821 55.4094 85.5088 55.459 86.195 55.4243C84.7054 55.7348 83.1792 55.832 81.6622 55.7131C80.0795 55.7081 78.5112 55.4122 77.0354 54.8401C78.5531 54.9341 80.064 54.9811 81.5816 54.9341C83.1268 54.9436 84.6644 54.7172 86.1413 54.2626C84.0529 54.1887 81.9644 54.135 79.8961 53.8798C78.9718 53.7939 78.066 53.5674 77.21 53.2083C77.0082 53.1543 76.8218 53.0539 76.6656 52.9152C76.5094 52.7764 76.3877 52.6032 76.3102 52.4092Z" fill="white"/>
<path d="M76.4914 50.522C76.5988 51.1935 76.2765 51.7777 76.3101 52.4157C76.1414 52.1198 76.0683 51.7791 76.1008 51.4401C76.1332 51.1011 76.2697 50.7804 76.4914 50.522Z" fill="white"/>
<path d="M116.635 79.115C117.663 79.8336 117.656 80.5722 116.635 81.2773C115.614 81.9824 114.956 81.9489 113.949 81.1162C113.165 79.7016 112.72 78.125 112.646 76.5095C112.622 76.2599 112.543 76.0185 112.417 75.8018C112.291 75.5851 112.119 75.3982 111.914 75.2538C110.484 74.139 109.08 72.9975 107.677 71.8559C107.321 71.6369 107.024 71.3351 106.811 70.9762C107.443 70.9559 108.07 70.8566 108.678 70.6807C106.871 70.0898 105.145 69.5794 103.487 68.8743C99.2087 67.1731 95.3539 64.5581 92.1916 61.2122C91.802 60.8618 91.4467 60.4751 91.1306 60.0572L91.4798 59.708C91.7319 59.526 92.0075 59.3792 92.2991 59.2715C93.2258 58.929 93.4809 59.0096 94.1256 59.7617C95.86 61.6972 97.902 63.3331 100.169 64.6034C101.284 65.2749 102.439 65.8457 103.191 66.2621C101.897 65.5604 100.67 64.7422 99.5247 63.8177C99.0944 63.4937 98.7044 63.1195 98.3629 62.703C98.2219 62.5284 98.0876 62.3135 98.2756 62.0986C98.4637 61.8837 98.6517 61.9912 98.8263 62.0986C99.7717 62.4559 100.662 62.9442 101.472 63.5491L102.191 63.9923C106.38 66.8492 110.288 70.0984 113.862 73.6958C114.079 73.8614 114.246 74.084 114.345 74.3389C114.443 74.5938 114.469 74.8709 114.419 75.1396C114.164 76.9796 115.205 78.1615 116.635 79.115Z" fill="white"/>
<path d="M101.472 63.522C100.424 63.0855 99.5045 62.3402 98.3159 62.179C99.8402 64.1197 101.976 65.268 103.97 66.6111C103.086 66.4212 102.241 66.0805 101.472 65.6038C98.5243 64.091 95.8847 62.0413 93.6891 59.5601C93.5867 59.4107 93.4348 59.3024 93.2602 59.2545C93.0857 59.2065 92.8997 59.222 92.7355 59.2982C92.3421 59.5187 91.9122 59.6666 91.4663 59.7346C92.4266 58.6266 93.6421 58.6602 94.4143 59.8757C95.1866 61.0911 96.4289 61.6283 97.369 62.6356C97.6645 62.9647 97.8995 62.6356 97.9062 62.32C97.9062 61.6485 98.2756 61.7223 98.7053 61.9171C99.6858 62.3334 100.807 62.5483 101.472 63.522Z" fill="#684A52"/>
<path d="M78.2172 58.4925C80.1046 58.847 82.0272 58.9777 83.9453 58.882C86.989 58.6794 89.9958 58.0997 92.8967 57.1562C93.4003 57.0085 93.4272 56.7734 93.0377 56.4847C92.4606 56.0296 91.9338 55.5141 91.4663 54.9469C91.3658 54.8698 91.2891 54.7658 91.2451 54.647C91.2011 54.5282 91.1917 54.3994 91.2179 54.2754L94.6963 56.5048C94.5321 56.5357 94.3636 56.5357 94.1994 56.5048C93.7361 56.3101 93.5279 56.2832 93.6488 56.9279C93.7294 57.2704 92.5072 58.0091 91.876 58.0494C91.5066 58.0494 91.144 58.0494 90.7746 58.0494C88.6565 58.5999 86.4915 58.9506 84.3079 59.0969C82.5414 59.1679 80.7722 59.1005 79.0163 58.8954C78.7006 58.8417 78.3918 58.8149 78.2172 58.4925Z" fill="#684A52"/>
<path d="M116.286 68.3706H118.878V68.6325C118.124 69.0072 117.278 69.1608 116.44 69.0757C116.682 68.5653 117.233 69.0757 117.569 68.7467C117.219 68.3437 116.622 68.7937 116.286 68.3706Z" fill="#684A52"/>
<path d="M117.971 61.81L116.326 60.6416C117.266 60.4334 117.884 61.0042 118.656 61.3735L118.307 60.608C118.455 60.7222 118.616 60.8229 118.764 60.9505C118.857 61.0128 118.927 61.1029 118.966 61.2078C119.005 61.3127 119.009 61.4271 118.979 61.5347C118.878 61.8302 118.65 61.5884 118.482 61.6086C118.314 61.6287 118.092 61.5884 117.971 61.81Z" fill="#684A52"/>
<path d="M117.132 49.7225C116.724 49.9579 116.286 50.1363 115.829 50.253C115.99 49.8165 116.434 49.8233 116.534 49.4808C116.4 49.2659 116.024 49.5211 115.937 49.2054C116.19 49.1539 116.423 49.0304 116.608 48.8496L117.092 48.6548C117.454 48.9704 117.219 49.3263 117.132 49.7225Z" fill="white"/>
<path d="M118.166 58.6872C117.565 58.2696 117.052 57.7381 116.655 57.1226C117.296 57.4918 117.82 58.034 118.166 58.6872Z" fill="white"/>
<path d="M117.992 59.0367L118.166 58.6875C118.448 58.9282 118.64 59.2572 118.71 59.6209L117.992 59.0367Z" fill="white"/>
<path d="M85.8526 44.2432C84.0191 43.2637 82.3732 41.9679 80.9907 40.4155C82.7501 41.6981 84.7177 42.598 86.5644 43.7194C86.2152 43.7396 85.8727 43.7664 85.8526 44.2432Z" fill="#684A52"/>
<path d="M87.8806 44.2636C88.0149 44.089 88.5857 44.5658 88.391 43.9144C88.4118 43.8891 88.4379 43.8687 88.4675 43.8547C88.4971 43.8407 88.5295 43.8335 88.5622 43.8335C88.595 43.8335 88.6273 43.8407 88.6569 43.8547C88.6865 43.8687 88.7127 43.8891 88.7334 43.9144C90.5509 44.8131 92.4264 45.5893 94.3474 46.2379C92.0974 45.9422 89.9121 45.2751 87.8806 44.2636Z" fill="white"/>
<path d="M87.3365 45.9755C87.7663 45.9016 88.0081 45.7069 87.7193 45.2637C89.2492 45.896 90.8196 46.4255 92.42 46.8485C92.6617 46.9089 92.9102 46.9358 93.1519 46.9828C93.0311 47.4394 92.655 47.2111 92.42 47.1977C91.8189 47.1673 91.2213 47.0864 90.6337 46.9559H90.5532H90.4793C89.5098 46.9426 88.5521 46.7419 87.6589 46.365C87.5699 46.3444 87.4901 46.2952 87.4318 46.2248C87.3736 46.1544 87.3401 46.0668 87.3365 45.9755Z" fill="white"/>
<path d="M87.3364 45.9753C88.2967 46.5461 89.4517 46.4991 90.4523 46.9355C90.4046 47.0207 90.3796 47.1167 90.3796 47.2143C90.3796 47.3118 90.4046 47.4078 90.4523 47.4929C88.5492 47.1049 86.7302 46.3818 85.0801 45.3575C85.8792 45.3508 86.5507 45.8813 87.3364 45.9753Z" fill="#684A52"/>
<path d="M97.7856 49.5413C97.1141 49.81 96.5433 50.327 95.7039 50.3002C95.8852 49.6958 96.4493 49.6287 96.8052 49.2795C96.973 49.125 97.5371 49.1787 97.2215 48.6818C97.3479 48.6426 97.4827 48.6395 97.6109 48.6727C97.739 48.7059 97.8553 48.7742 97.9467 48.8698C98.2758 49.0511 96.5164 49.2056 97.7856 49.5413Z" fill="#684A52"/>
<path d="M90.6068 46.9557C91.4462 46.8147 92.2856 47.3452 93.125 46.9557C93.3399 46.9557 93.5749 46.8482 93.7965 47.2109C92.7297 47.4139 91.6278 47.3258 90.6068 46.9557Z" fill="#684A52"/>
<path d="M88.7333 43.9072H88.3909C87.7679 43.6737 87.1957 43.3226 86.7053 42.873C87.444 43.0946 88.2498 43.1887 88.7333 43.9072Z" fill="#684A52"/>
<path d="M92.6619 48.0103C91.8892 47.9857 91.1291 47.8077 90.4258 47.4865C91.2062 47.4404 91.9832 47.6225 92.6619 48.0103Z" fill="#684A52"/>
<path d="M49.2276 43.9875C49.2276 44.1755 49.4022 44.1956 49.5029 44.2829C49.6036 44.3702 50.1207 44.5717 49.8454 44.894C49.57 45.2163 49.3484 44.8335 49.1403 44.6724C48.5395 44.1652 48.1141 43.4814 47.9248 42.7183C48.6743 43.0553 49.4462 43.3402 50.2348 43.5711C50.3759 43.5711 50.3692 43.7188 50.3289 43.8397C50.3115 43.9083 50.2701 43.9684 50.2122 44.0091C50.1543 44.0498 50.0837 44.0683 50.0133 44.0613C49.7514 44.0412 49.5096 43.7994 49.2276 43.9875Z" fill="white"/>
<path d="M46.0378 36.769C46.0633 37.6335 46.1485 38.495 46.293 39.3477C45.42 38.9515 45.0037 38.1456 44.5269 37.407C44.5806 37.1988 44.1844 36.9839 44.4665 36.8227C44.7485 36.6616 44.8694 36.9772 44.997 37.1854C45.1246 37.3936 45.232 37.8569 45.5812 37.9845C45.7759 37.5816 44.9835 36.8228 46.0378 36.769Z" fill="white"/>
<path d="M43.674 30.813C43.9157 31.7464 44.735 31.0883 45.2588 31.4241C44.9834 31.7732 44.735 32.1829 45.5475 32.156C45.6953 32.156 45.8631 32.2164 45.8161 32.3843C45.7288 32.6865 45.4602 32.6932 45.1983 32.6731C45.1983 32.5925 45.2453 32.5119 45.2655 32.4313C44.4731 32.5052 44.3455 31.5919 43.7143 31.3838C43.5195 31.3233 43.0025 31.048 43.674 30.813Z" fill="white"/>
<path d="M48.0926 34.553C47.7166 34.2105 47.4816 33.7271 46.8638 33.4517C47.0858 33.3669 47.3309 33.365 47.5542 33.4464C47.7775 33.5279 47.9639 33.6871 48.0792 33.8949C47.8039 34.1232 48.1867 34.3314 48.0926 34.553Z" fill="#684A52"/>
<path d="M47.5621 35.2645C47.4076 35.1302 47.1323 35.1034 47.1592 34.8348C47.4211 34.5125 47.9583 35.2645 48.0926 34.5527C48.1869 34.6097 48.2629 34.6925 48.3116 34.7912C48.3604 34.89 48.38 35.0006 48.3679 35.1101C48.1194 35.278 47.7635 34.8818 47.5621 35.2645Z" fill="#684A52"/>
<path d="M48.2675 34.0488C48.5448 34.1403 48.7977 34.2937 49.0071 34.4973C49.2165 34.7008 49.3769 34.9493 49.4762 35.224C49.0131 34.8994 48.605 34.5026 48.2675 34.0488Z" fill="#684A52"/>
<path d="M117.132 49.7228C117.011 49.6758 116.763 49.5616 116.91 49.4945C117.367 49.2662 117.018 48.917 117.112 48.6551C117.691 48.2092 118.182 47.6606 118.562 47.0367L116.675 48.3193C117.403 47.7068 118.031 46.984 118.535 46.1771C119.657 44.0216 119.099 42.054 117.777 40.2275C116.292 38.2435 114.241 36.7567 111.894 35.9633C109.295 35.0097 106.67 34.1233 104.064 33.21C102.661 32.4915 101.17 31.9409 99.9275 30.9269C98.1815 29.5032 97.8793 28.1535 98.8396 26.1523C99.2192 25.3414 99.7872 24.633 100.496 24.0863C101.205 23.5396 102.035 23.1704 102.916 23.0096C105.095 22.5389 107.367 22.7741 109.403 23.6811C111.062 24.528 112.828 25.1448 114.654 25.5144C115.137 25.5883 115.144 25.8434 114.896 26.1456C113.794 27.4887 112.592 28.6437 110.867 29.1406C109.961 29.327 109.038 29.4103 108.113 29.389C107.979 29.389 107.798 29.3891 107.811 29.201C107.825 29.013 108.026 29.06 108.14 28.9996C108.934 28.9896 109.709 28.7569 110.376 28.3281L108.147 28.2072C107.551 28.2552 106.957 28.0937 106.468 27.7506C106.3 27.6633 106.065 27.5491 106.132 27.3208C106.2 27.0925 106.502 27.0656 106.71 27.1126C107.462 27.2805 108.221 27.3275 108.973 27.4417C110.271 27.6098 111.59 27.3951 112.767 26.8238C110.892 27.1174 108.975 26.9936 107.153 26.4612C106.745 26.3468 106.352 26.1821 105.985 25.971C105.79 25.8569 105.541 25.7226 105.609 25.4674C105.676 25.2122 105.964 25.2323 106.179 25.2592C107.787 25.4656 109.408 25.5397 111.028 25.4808C110.21 25.3161 109.43 24.997 108.731 24.5407C106.105 23.0432 103.661 23.7214 101.237 25.004C100.989 25.1316 100.787 25.3532 100.485 25.3734C98.5643 26.9783 98.7792 29.2481 100.962 30.3897C103.144 31.5312 105.662 32.1557 108.08 32.8743C110.767 33.5704 113.351 34.6134 115.769 35.9767C117.671 37.2147 119.205 38.943 120.208 40.9796C121.235 43.2627 121.369 46.7278 118.757 48.682C118.233 49.0513 117.669 49.3468 117.132 49.7228Z" fill="white"/>
<path d="M100.472 25.36C102.614 23.7013 104.951 22.8821 107.637 23.8088C108.98 24.2788 110.195 25.1115 111.606 25.4943C109.638 25.9308 107.691 25.6085 105.723 25.4943C108.067 26.8844 110.639 26.8374 113.244 26.6628C111.035 28.2207 108.637 27.7036 106.112 27.2268C106.784 27.8178 107.529 27.8581 108.127 28.2006C108.288 28.59 108.684 28.3416 109.047 28.5363C108.208 28.6236 107.435 28.6303 106.75 28.7579C105.841 28.9167 104.905 28.7973 104.064 28.4154C103.285 27.4181 102.362 26.5422 101.325 25.8166C100.982 25.5547 100.774 25.9442 100.478 26.0047L100.472 25.36Z" fill="#684A52"/>
<path d="M108.127 28.9727C108.066 29.0868 107.724 29.2883 108.201 29.2614L110.853 29.1137C109.42 29.6088 107.854 29.5586 106.455 28.9727H108.127Z" fill="white"/>
<path d="M111.424 70.7618C110.753 70.6208 110.672 70.2649 110.477 69.7612C110.887 69.991 111.217 70.34 111.424 70.7618Z" fill="#684A52"/>
<path d="M47.7703 29.9667C48.1127 29.3422 48.1732 28.6237 48.65 28.026C48.7569 27.8564 48.9005 27.7128 49.0701 27.6059C49.2398 27.499 49.4312 27.4315 49.6304 27.4082C49.4222 27.7574 49.0529 28.0193 48.9589 28.5297C49.7819 28.3536 50.6344 28.3696 51.4502 28.5767C50.1553 29.2021 48.9211 29.9462 47.7636 30.7994C47.2465 30.5107 47.6494 30.2421 47.7636 29.9667H47.7703Z" fill="#684A52"/>
<path d="M56.7822 27.9184C57.7754 27.6463 58.8252 27.6603 59.8108 27.9587C59.5556 29.0667 58.4677 29.698 56.9501 29.5972C57.0575 29.107 57.2993 28.8384 57.8499 28.9257C57.9068 28.9403 57.9665 28.9402 58.0234 28.9256C58.0802 28.911 58.1325 28.8824 58.1754 28.8422C58.2182 28.802 58.2502 28.7517 58.2685 28.6959C58.2867 28.64 58.2906 28.5805 58.2797 28.5228C58.2797 28.2743 58.0312 28.2609 57.8298 28.234C57.2928 28.2195 56.7617 28.3494 56.292 28.6101C56.1778 28.6705 56.0771 28.6571 56.0838 28.5027C56.0905 28.3482 56.2786 28.2004 56.4464 28.1199L56.7822 27.9184Z" fill="#684A52"/>
<path d="M47.7704 29.9668C47.8442 30.2421 47.4212 30.5107 47.7704 30.7995C47.6159 31.0345 47.5152 31.4374 47.0988 31.142C46.9713 31.048 46.5482 30.7122 47.1861 30.6114C47.5286 30.5644 47.3809 30.0205 47.7704 29.9668Z" fill="white"/>
<path d="M56.4397 28.1201C56.4397 28.3014 56.0167 28.3484 56.2853 28.6103C56.2151 28.7177 56.1092 28.7968 55.9863 28.8337C55.8634 28.8705 55.7315 28.8628 55.6138 28.8118C55.7951 28.4424 55.9764 28.1201 56.4397 28.1201Z" fill="#684A52"/>
<path d="M57.0509 53.1609C57.12 53.1732 57.1857 53.1999 57.2439 53.2392C57.302 53.2784 57.3513 53.3294 57.3886 53.3889C57.4259 53.4483 57.4504 53.5148 57.4605 53.5843C57.4706 53.6537 57.466 53.7245 57.4471 53.7921C57.4471 53.9331 57.3733 54.0876 57.192 54.0204C57.0552 53.9757 56.9392 53.8832 56.8652 53.7598C56.7912 53.6365 56.7642 53.4906 56.7891 53.3489C56.7823 53.2213 56.8763 53.0803 57.0509 53.1609Z" fill="white"/>
</svg>
