<svg width="262" height="149" viewBox="0 0 262 149" fill="none" xmlns="http://www.w3.org/2000/svg">
<path d="M185.82 70.7039L214.38 107.845L213.78 108.686L161.07 65.5284L149.17 79.9382C143.6 69.6232 138.23 59.6684 132.17 48.4768C129.88 66.0087 127.76 82.3037 125.49 99.6915L106.97 71.8327L73.97 118.328L48.83 93.039L40.06 120.49C37.78 114.822 35.82 109.983 33.7 104.699L0 129.328L46.69 73.0335L71.06 87.5994L127.81 0C132.81 5.36764 138.07 10.2429 142.61 15.9348C155.87 32.542 168.85 49.5576 181.96 66.2849C183.2 67.882 184.59 69.3109 185.91 70.8119L185.82 70.7039Z" fill="#FFBA08"/>
<path d="M185.9 70.7645L204.72 50.915L261.91 120.442L261.82 120.766C260.63 119.698 259.45 118.593 258.24 117.536C241.3 102.694 224.34 87.8842 207.36 73.1061C205.835 71.9998 204.092 71.4028 202.31 71.377C196.84 70.9927 191.31 70.9207 185.85 70.7165C185.82 70.7045 185.9 70.7645 185.9 70.7645Z" fill="#FFBA08"/>
<path d="M78.6074 106.658C78.9095 104.669 79.542 102.774 80.4674 101.086C80.8674 100.402 81.0074 99.8132 80.1374 99.513C77.5338 98.4964 74.8237 97.9264 72.0874 97.8199C69.0874 97.8199 68.1474 99.4649 69.0874 102.851C69.4674 104.244 69.7774 105.661 70.0874 107.066C70.9174 110.428 70.4074 111.869 67.0874 112.674C62.4974 113.875 59.5874 111.365 58.5274 105.757C57.7274 101.518 57.6474 97.3515 59.6474 93.4609C60.571 91.5236 61.9671 89.9729 63.6474 89.0179C63.9974 88.8137 64.3874 88.6336 64.6474 89.0179C64.9074 89.4021 64.6474 89.9425 64.4074 90.3508C61.0974 93.3528 59.9474 97.5556 59.9174 102.359C59.9252 104.293 60.3305 106.194 61.0974 107.895C61.6137 109.098 62.4501 110.06 63.4737 110.628C64.4973 111.196 65.6495 111.337 66.7474 111.029C66.9865 111.005 67.219 110.924 67.4308 110.788C67.6426 110.653 67.8291 110.467 67.979 110.243C68.1288 110.018 68.2388 109.758 68.3021 109.481C68.3655 109.203 68.3809 108.912 68.3474 108.627C68.262 107.671 68.0668 106.733 67.7674 105.841C67.4202 104.436 67.1957 102.991 67.0974 101.53C66.8974 98.1921 67.8774 96.2588 70.7174 94.6256C72.6672 93.5806 74.8782 93.4816 76.8874 94.3495C77.2874 94.5056 77.8374 94.6857 77.7574 95.2621C77.6774 95.8385 77.0974 95.6943 76.7574 95.6463C75.8183 95.4922 74.8622 95.6075 73.9674 95.9826C75.1074 96.2588 76.2174 96.4389 77.2974 96.7511C78.4549 96.9973 79.5854 97.4002 80.6674 97.9519C80.4021 97.0084 79.9736 96.143 79.41 95.4124C78.8464 94.6819 78.1605 94.1027 77.3974 93.713C76.7274 93.4008 76.0274 93.2087 75.3474 92.9445C74.5874 92.0319 74.5874 92.0199 75.9774 91.3714C73.9685 90.4675 71.7663 90.3915 69.7174 91.1553C69.0633 91.4206 68.3951 91.6333 67.7174 91.7917C67.4274 91.7917 67.1074 91.7917 66.9874 91.3834C66.8674 90.9752 67.1074 90.819 67.2874 90.6269C67.7091 90.1561 68.1797 89.7525 68.6874 89.4261C69.8586 88.6844 71.116 88.1582 72.4174 87.8651C70.7441 88.3097 69.0515 88.6425 67.3474 88.8618C66.9274 88.7897 66.4174 88.8618 66.4074 88.1173C66.3974 87.3728 66.8974 87.5049 67.2474 87.3728C70.0872 86.2875 73.0582 85.7802 76.0374 85.8717C78.0374 85.8717 78.2774 85.3313 77.2874 83.1939C77.6763 81.8791 78.305 80.6852 79.1274 79.6995C79.5066 79.1979 79.7727 78.5882 79.9005 77.9282C80.0283 77.2683 80.0134 76.5801 79.8574 75.929C79.8755 75.479 79.9781 75.0398 80.1574 74.6441C80.43 74.0474 80.5877 73.3849 80.6188 72.7053C80.65 72.0257 80.5538 71.3465 80.3374 70.7175C79.7274 70.2011 79.8474 69.4086 79.8274 68.6761C79.9438 67.5401 79.7396 66.39 79.2474 65.4098C78.6574 64.5452 78.3574 63.4525 77.6974 62.636C77.3974 61.7834 77.6174 61.3751 78.3874 61.5192C78.8774 61.6033 79.3374 61.8434 79.8274 61.9755C80.0618 62.0634 80.2867 62.1843 80.4974 62.3358C81.1422 62.6937 81.7698 63.0946 82.3774 63.5366C82.9874 63.9929 83.5774 64.4612 84.1774 64.9655C84.1774 64.5573 83.8474 64.5093 83.7074 64.2691C82.7742 62.717 81.7446 61.2518 80.6274 59.8861C80.3374 59.5619 79.8474 59.2377 80.1474 58.6853C80.4474 58.1329 80.8974 58.3131 81.3074 58.4572C83.9211 59.4118 86.3774 60.9028 88.5674 62.8641C88.7974 63.0803 89.0374 63.2724 89.2674 63.4645C87.9917 61.195 86.3739 59.232 84.4974 57.6766C84.4 57.5939 84.3183 57.4876 84.2574 57.3644C84.1874 56.0556 84.9474 56.5599 85.4174 56.692C87.1754 57.2559 88.8734 58.0618 90.4774 59.0936C89.7875 58.3354 89.0175 57.6894 88.1874 57.1723C87.9544 57.0805 87.7374 56.938 87.5474 56.752C86.6435 55.8852 85.6025 55.2479 84.4874 54.8787C83.8774 54.4945 82.6974 54.3864 82.7974 53.6779C82.9374 52.6212 84.0574 53.1736 84.7474 53.0535C86.1652 52.9163 87.5507 52.4728 88.8374 51.7446C89.4782 51.373 90.055 50.8598 90.5374 50.2316C91.1974 49.343 90.9574 48.8026 90.1674 48.4664C88.1517 47.5432 85.931 47.4923 83.8874 48.3223L83.6474 48.4184C83.2374 48.5264 82.7074 48.7906 82.4974 48.2623C82.2874 47.7339 82.7674 47.2896 83.1174 46.9293C83.3526 46.776 83.5767 46.5992 83.7874 46.401C80.9604 45.7962 78.0644 45.8288 75.2474 46.4971C74.0474 46.6051 73.1074 47.5417 72.0074 47.938C70.7174 47.3976 71.7674 46.9173 72.0074 46.425C77.1974 42.0781 82.6274 38.3675 89.0574 37.527C95.9045 36.3982 102.851 38.4654 108.467 43.3029C108.915 43.6518 109.379 43.9686 109.857 44.2515L109.967 44.4436C110.018 44.5865 110.033 44.7438 110.012 44.8969C109.991 45.05 109.934 45.1927 109.847 45.3082C108.517 45.4763 107.387 44.5517 106.137 44.2515C105.977 44.2515 106.057 44.5397 106.067 44.3356C106.077 44.1314 106.067 44.2395 106.177 44.2635C107.518 44.8928 108.739 45.8403 109.767 47.0494C111.994 49.1344 113.922 51.6409 115.477 54.4704C116.477 56.3197 116.907 58.4572 117.927 60.2704C121.246 66.2238 125.726 71.1129 130.977 74.512C131.337 74.7522 131.677 75.0404 132.027 75.3165C131.397 75.953 130.867 75.2565 130.287 75.1245C129.862 74.9908 129.444 74.8223 129.037 74.6201C128.807 75.0164 129.227 75.3526 128.957 75.6648C128.447 75.953 128.087 75.5567 127.697 75.2685C124.134 72.7289 121.065 69.3017 118.697 65.2177C118.697 66.0583 118.697 66.7068 118.637 67.3312C118.587 67.6794 118.507 68.0517 118.147 68.0997C117.787 68.1478 117.707 67.8715 117.567 67.6194C116.756 66.0835 115.8 64.6652 114.717 63.3925C114.157 62.545 113.428 61.8802 112.597 61.4592C112.739 62.0872 112.995 62.6696 113.347 63.1643C115.614 68.1428 116.586 73.823 116.137 79.4714C116.137 80.0358 116.007 80.6722 115.477 80.8043C114.947 80.9364 114.747 80.348 114.547 79.9037C113.594 77.7692 112.462 75.7573 111.167 73.8996C111.915 77.2706 112.071 80.7911 111.627 84.2386C111.604 84.59 111.561 84.9392 111.497 85.2834C111.367 85.8117 111.267 86.4842 110.727 86.5562C110.187 86.6283 110.037 86.0639 109.827 85.6436C108.132 82.2468 105.892 79.2877 103.237 76.9377C102.627 76.3973 102.237 76.4213 101.777 77.0938C100.082 79.4946 98.7972 82.2735 97.9974 85.2713C97.163 88.0925 96.7106 91.0561 96.6574 94.0493C96.6574 94.6017 96.6074 95.154 96.5574 95.7064C96.5074 96.2588 96.5574 97.0393 96.0274 97.1354C95.4974 97.2314 95.4174 96.4269 95.2374 95.9346C94.6074 94.1334 94.6274 94.1574 93.0274 94.7338C90.8317 95.4631 88.6827 96.3821 86.5974 97.4836C84.8573 98.2951 83.3382 99.6693 82.2086 101.454C81.0789 103.239 80.3828 105.364 80.1974 107.594C80.0774 108.651 80.2674 109.84 79.4874 110.693C78.7774 109.924 79.1574 108.975 79.1974 108.087C79.2274 107.45 79.4674 106.754 78.6074 106.658Z" fill="#684A52"/>
<path d="M78.6073 106.658C78.8973 106.526 78.9973 105.89 79.4173 106.154C79.8373 106.418 79.5073 106.778 79.5373 107.102C79.6373 108.303 79.1873 109.504 79.4173 110.705C79.7989 111.719 79.9835 112.823 79.9573 113.935C80.2573 118.894 83.0473 121.008 86.1773 121.944C86.6783 122.062 87.1947 122.044 87.6893 121.892C88.1838 121.74 88.6442 121.459 89.0373 121.068C90.2973 119.963 90.3573 119.015 89.3773 117.538C87.9985 115.68 86.9745 113.484 86.3773 111.101C86.1233 109.997 86.129 108.831 86.3938 107.73C86.6586 106.63 87.1721 105.64 87.8773 104.869C88.859 103.827 89.9774 102.987 91.1873 102.383C91.6773 102.095 92.3573 101.831 92.6973 102.443C93.0373 103.056 92.2173 103.344 91.9973 103.98C96.3373 102.683 100.547 103.416 104.727 104.749C105.657 105.037 106.027 104.749 106.147 103.548C106.559 98.9378 108.109 94.5805 110.597 91.0355C111.295 90.0209 112.095 89.1135 112.977 88.3337C113.367 87.9975 113.767 87.301 114.277 87.8413C114.787 88.3817 114.277 88.8501 114.057 89.3304C113.809 89.792 113.655 90.3176 113.608 90.8645C113.561 91.4113 113.622 91.9637 113.787 92.4765C113.847 92.6086 113.917 92.7407 113.977 92.8848C115.267 94.3978 116.977 94.662 118.627 94.9382C121.37 95.4043 124.137 95.6251 126.907 95.5986C127.241 95.5335 127.583 95.5709 127.901 95.7074C128.219 95.8439 128.504 96.075 128.727 96.3792C124.317 98.1204 120.027 97.7361 116.437 97.52C120.316 98.4016 124.289 98.511 128.197 97.8441C128.977 97.7601 130.247 97.3638 130.357 98.2164C130.497 99.2971 129.187 99.4172 128.417 99.6094C124.321 100.806 120.057 100.929 115.917 99.9696C118.4 100.617 120.928 100.991 123.467 101.086C126.267 101.302 128.977 100.054 131.857 100.102C131.793 100.443 131.651 100.756 131.446 101.005C131.24 101.253 130.981 101.427 130.697 101.507C126.527 103.524 119.447 104.257 114.697 102.467C114.997 102.647 115.417 102.671 115.627 103.128C115.597 103.247 115.545 103.356 115.475 103.447C115.405 103.539 115.319 103.61 115.223 103.656C115.127 103.702 115.024 103.722 114.921 103.714C114.818 103.705 114.717 103.669 114.627 103.608C113.427 103.008 112.227 103.464 111.027 103.428C110.615 103.506 110.192 103.444 109.807 103.248C109.567 103.08 109.237 102.791 109.147 103.404C109.057 104.016 109.297 104.389 109.657 104.232C111.017 103.668 111.857 104.593 112.757 105.529C113.117 105.902 113.647 105.746 114.107 105.77C114.499 105.749 114.886 105.889 115.203 106.166C115.521 106.443 115.752 106.841 115.857 107.295C113.632 107.107 111.449 106.474 109.397 105.421C108.677 105.073 107.927 104.293 107.697 106.202C107.517 107.619 106.347 107.499 105.417 107.126C103.879 106.438 102.288 105.931 100.667 105.613C96.8571 104.957 92.9706 105.465 89.3673 107.09C88.5073 107.487 87.9073 109.132 88.0473 110.693C88.2534 112.612 88.9728 114.398 90.0973 115.784C90.3773 116.169 90.6973 116.505 90.9973 116.853C91.335 117.163 91.6032 117.569 91.7781 118.035C91.953 118.5 92.029 119.01 91.9992 119.52C91.9695 120.029 91.835 120.522 91.6078 120.953C91.3805 121.385 91.0677 121.742 90.6973 121.993C87.3773 124.959 83.0273 123.998 80.2373 119.699C77.6573 115.7 77.3373 111.329 78.6073 106.658Z" fill="#684A52"/>
<path d="M171.297 122.473C170.467 121.668 169.437 121.969 168.507 121.716C166.898 121.309 165.317 120.755 163.777 120.059C163.683 120.343 163.658 120.653 163.706 120.953C163.754 121.253 163.872 121.531 164.047 121.752C164.367 122.269 164.697 122.857 164.207 123.361C163.717 123.866 163.267 123.361 162.857 122.989C161.316 121.649 159.849 120.189 158.467 118.618C157.446 117.644 156.381 116.738 155.277 115.904C154.649 115.495 154.09 114.949 153.627 114.295C153.227 113.563 152.567 113.815 152.027 113.635C151.541 113.484 151.107 113.152 150.787 112.686C149.787 111.257 148.257 110.753 146.887 110.02C146.407 109.768 146.137 109.924 145.937 110.549C145.587 111.642 144.937 111.594 144.377 110.861C142.917 109.072 141.017 107.847 139.867 105.613C139.167 104.257 137.687 104.473 136.267 105.914C136.05 106.195 135.812 106.452 135.557 106.682C135.304 106.878 135.014 106.995 134.714 107.022C134.413 107.049 134.112 106.986 133.837 106.838C133.291 106.754 132.737 106.803 132.207 106.982C131.718 107.209 131.176 107.209 130.687 106.982C130.89 106.673 131.152 106.427 131.452 106.268C131.752 106.109 132.08 106.041 132.407 106.07C133.187 106.07 133.817 105.89 133.927 104.749C133.952 104.598 134.011 104.458 134.098 104.343C134.184 104.229 134.294 104.145 134.417 104.1C134.977 103.86 134.967 103.284 135.027 102.744C135.367 102.347 135.807 102.431 136.217 102.371C137.517 102.143 138.817 101.927 139.087 99.9696C139.093 99.8654 139.121 99.7649 139.17 99.6783C139.219 99.5917 139.286 99.5222 139.364 99.477C139.442 99.4317 139.529 99.4124 139.616 99.4209C139.703 99.4294 139.786 99.4654 139.857 99.5253C140.221 99.6452 140.592 99.7295 140.967 99.7775C143.057 100.738 145.037 101.975 147.157 102.864C151.252 104.606 155.545 105.586 159.887 105.77C160.447 105.77 161.297 105.529 161.417 106.37C161.537 107.211 160.637 107.283 160.137 107.427C158.221 108.062 156.219 108.233 154.247 107.931C153.889 107.799 153.506 107.799 153.147 107.931C153.637 109.081 154.318 110.099 155.147 110.921C159.708 116.2 165.55 119.598 171.827 120.624C172.287 120.662 172.74 120.787 173.167 120.996C173.631 121.209 174.121 121.323 174.617 121.332C174.917 121.404 175.217 121.536 175.207 121.969C175.197 122.401 174.887 122.509 174.587 122.557C174.215 122.56 173.846 122.641 173.497 122.797C173.259 122.919 173.016 123.023 172.767 123.109C172.233 123.096 171.716 122.872 171.297 122.473Z" fill="#684A52"/>
<path d="M172.577 90.2799C172.077 90.7722 172.577 91.0604 172.757 91.3726C173.676 92.7224 174.464 94.1928 175.107 95.7556C176.107 98.9017 177.487 101.868 178.307 105.11C178.977 107.74 179.607 110.381 180.217 113.035C180.827 115.689 181.217 118.439 182.707 120.696C182.967 121.249 182.707 121.573 182.327 121.765C182.148 121.844 181.951 121.847 181.77 121.775C181.589 121.703 181.433 121.56 181.327 121.369C180.753 120.497 180.25 119.56 179.827 118.571C179.288 117.199 178.663 115.878 177.957 114.62C177.207 112.867 176.337 111.21 175.487 109.517C175.587 108.664 176.257 108.976 176.667 108.712C176.667 108.064 176.177 107.896 175.877 107.511C174.324 105.313 172.415 103.516 170.267 102.228C172.467 101.375 174.027 102.888 175.637 104.197C175.842 104.353 176.025 104.547 176.177 104.774C176.177 104.51 175.927 104.425 175.837 104.233C175.765 104.126 175.698 104.014 175.637 103.897C175.024 102.808 174.223 101.89 173.287 101.207C172.162 100.135 170.925 99.2427 169.607 98.5535C169.277 98.3854 168.757 98.2172 168.847 97.7009C168.937 97.1845 169.497 97.1965 169.907 97.1725C170.411 97.1275 170.916 97.2178 171.387 97.4367C169.336 95.4212 166.949 93.9554 164.387 93.1378C163.887 92.9577 163.017 92.9097 163.097 92.2372C163.177 91.5647 164.097 91.7088 164.607 91.6848C165.623 91.5374 166.652 91.6899 167.607 92.1291C162.958 89.2221 157.703 88.0077 152.487 88.6348C152.277 88.6348 152.067 88.7308 151.857 88.7308C151.487 88.7308 150.997 88.8269 150.907 88.2745C150.817 87.7222 151.297 87.6741 151.607 87.53C153.573 86.6052 155.649 86.066 157.757 85.9329C158.923 85.7317 160.101 85.6594 161.277 85.7168C160.557 85.4046 159.597 86.2091 158.877 85.2125C158.852 84.9244 158.898 84.6337 159.01 84.3772C159.122 84.1208 159.295 83.91 159.507 83.7715C162.075 84.1304 164.591 84.9018 166.987 86.065C167.377 86.2571 167.797 86.6414 168.167 86.4133C169.657 85.5367 171.287 86.137 172.807 85.6687C173.207 85.5486 173.557 85.5607 173.737 86.1011C173.737 86.7735 173.297 87.0017 172.887 87.3019C172.237 87.6621 171.827 88.1665 172.697 88.7188C173.567 89.2712 173.157 89.7275 172.577 90.2799Z" fill="#684A52"/>
<path d="M159.407 83.8665C159.407 84.4309 158.987 84.7071 158.867 85.1874C157.627 85.8719 156.297 85.4636 155.017 85.5957C152.261 85.9197 149.538 86.5673 146.887 87.529C146.528 87.6645 146.16 87.7649 145.787 87.8292C145.137 87.7692 144.267 87.9733 144.787 86.5564C144.867 86.3762 144.547 86.4243 144.407 86.4003C142.206 86.344 140.021 85.9403 137.907 85.1994C136.915 84.6611 135.859 84.3087 134.777 84.1547C134.648 84.1041 134.529 84.0223 134.427 83.9146C134.366 83.8486 134.318 83.7668 134.288 83.6753C134.257 83.5838 134.244 83.485 134.25 83.3866C134.255 83.2881 134.28 83.1927 134.321 83.1073C134.362 83.0219 134.419 82.9488 134.487 82.8938C134.595 82.8232 134.715 82.786 134.837 82.7858C135.925 83.0495 137.029 83.2022 138.137 83.2421C135.489 82.6334 132.914 81.6373 130.467 80.2761C129.467 79.5916 128.257 79.2554 127.537 78.0185C127.537 77.166 127.997 76.8898 128.617 76.8177C129.395 77.0008 130.144 77.329 130.837 77.7904C133.823 79.3603 136.918 80.6101 140.087 81.525C137.231 80.7617 134.48 79.5122 131.917 77.8144C131.227 76.6136 129.997 76.5176 129.077 75.8091L128.977 75.6289C128.877 75.4728 128.807 75.2687 128.677 75.1726C128.347 74.9205 128.157 74.6803 128.497 74.236C128.837 73.7917 128.947 74.0559 129.237 74.236C130.087 74.8114 131.02 75.1864 131.987 75.3408C135.211 77.1501 138.512 78.7534 141.877 80.144C144.793 81.2534 147.757 82.1674 150.757 82.8819C153.127 83.2782 155.517 83.2541 157.897 83.4942C158.417 83.4828 158.933 83.61 159.407 83.8665Z" fill="#684A52"/>
<path d="M77.5872 82.87C78.0072 85.9921 78.0072 86.0281 75.2772 85.9801C72.7189 86.0207 70.1778 86.4896 67.7273 87.3731C67.301 87.4324 66.9034 87.6605 66.5973 88.0215C66.7673 88.6699 67.2372 88.2977 67.5472 88.4538C67.5682 88.5281 67.5737 88.6075 67.5633 88.6849C67.5528 88.7624 67.5267 88.8355 67.4872 88.8981C66.4872 89.5825 65.4873 90.4351 64.1973 90.243C64.7373 89.4144 64.7773 88.8981 63.6973 89.0422C65.9173 87.0968 68.5272 86.4845 71.1472 86.0161C72.9843 85.6941 74.8417 85.5696 76.6973 85.6439C77.0873 85.6439 77.5873 85.8 77.6973 85.0194C77.7284 84.8723 77.7321 84.7187 77.7081 84.5696C77.6842 84.4206 77.6331 84.2796 77.5586 84.1569C77.4842 84.0342 77.3881 83.9328 77.2772 83.8598C77.1663 83.7868 77.0435 83.744 76.9173 83.7346C76.0931 83.5845 75.3118 83.1955 74.6409 82.6013C73.9701 82.0071 73.4299 81.2256 73.0673 80.3243C72.3573 78.7032 70.9272 77.5384 70.5272 75.521C70.4072 74.9806 70.1072 74.3202 70.4572 73.9479C70.8072 73.5757 71.1772 74.2361 71.5472 74.3922C72.1072 74.6444 72.6272 74.9806 73.1872 75.1967C75.4672 76.0613 75.4272 76.2895 75.6272 73.1193C75.8672 69.0606 74.5172 66.9111 71.0472 65.2659C70.3772 65.35 69.6072 64.3894 69.0472 65.7343C68.8372 66.2506 68.6072 65.41 68.3372 65.326C68.0672 65.2419 68.1372 65.7222 68.1172 65.9384C68.1172 66.3467 68.3673 66.9471 67.8473 67.1392C67.3273 67.3313 67.2172 66.755 66.9972 66.3707C66.7772 65.9865 66.8273 65.8784 66.6673 65.7463C66.5073 65.6142 66.4673 65.9144 66.3773 66.0345C66.1073 66.5268 65.8973 66.1426 65.6673 65.9624C64.8073 63.2486 63.1173 61.015 62.4773 58.1451C62.3161 57.4177 62.1893 56.6801 62.0973 55.9356C62.0411 55.6927 62.0289 55.4381 62.0616 55.189C62.0942 54.9399 62.1709 54.7021 62.2865 54.4916C62.4021 54.2811 62.5539 54.1029 62.7317 53.9687C62.9095 53.8346 63.1092 53.7477 63.3173 53.7141C65.1573 53.0416 66.9672 52.213 68.8072 51.5406C69.1697 51.4384 69.5012 51.2168 69.7644 50.9007C70.0276 50.5846 70.2122 50.1866 70.2972 49.7514C70.6572 48.5505 70.8273 47.0375 72.0373 46.4131C72.2073 46.8334 70.9873 47.3017 72.0373 47.698C71.6673 49.5472 71.3872 51.4565 69.8072 52.5012C68.3472 53.2697 66.8072 53.7021 65.2972 54.3505C65.771 55.144 66.3406 55.8482 66.9872 56.4399C67.5572 56.7161 67.6972 57.0764 67.2372 57.6408C66.5994 58.2311 65.7992 58.5099 64.9972 58.4212C63.8772 58.4212 63.8373 58.5534 64.2873 59.8383C65.4273 63.1045 65.4273 63.1045 68.2873 63.1045C69.164 63.0275 70.0452 63.1208 70.8972 63.3806C71.0772 62.8523 70.6573 62.6121 70.6373 62.1798C70.3873 61.3152 71.4273 61.6034 71.3873 60.979C71.3373 60.8589 71.2973 60.7389 71.2573 60.6188C71.1773 60.1865 70.8772 59.7061 71.4572 59.4179C71.6338 59.4499 71.7979 59.5464 71.9272 59.6942C72.5772 60.4147 73.1673 61.2072 73.8772 61.8556C75.5294 64.2526 76.5519 67.1844 76.8154 70.2798C77.0789 73.3751 76.5714 76.4947 75.3573 79.2435C74.6373 80.9246 74.7572 81.345 76.1772 82.1135C76.6737 82.2875 77.1481 82.5421 77.5872 82.87Z" fill="#684A52"/>
<path d="M133.837 106.658C134.436 106.758 135.046 106.654 135.597 106.357C136.518 107.059 137.345 107.925 138.047 108.927C143.967 116.396 151.317 120.935 159.377 124.045C159.985 124.252 160.583 124.501 161.167 124.79C161.397 124.91 161.687 125.054 161.667 125.39C161.647 125.727 161.347 125.823 161.117 125.955C160.707 126.207 160.207 126.051 159.667 126.435C161.347 127.996 162.807 129.773 164.527 131.094C165.68 131.872 166.642 133.001 167.316 134.367C167.99 135.733 168.353 137.288 168.367 138.875C168.417 140.761 169.367 142.382 169.727 144.219C169.627 144.675 169.447 144.964 169.017 144.687C168.296 143.709 167.744 142.568 167.392 141.331C167.04 140.095 166.896 138.787 166.967 137.483C166.999 136.837 166.888 136.193 166.646 135.615C166.403 135.037 166.038 134.546 165.587 134.192C162.927 131.719 160.267 129.233 157.687 126.639C156.365 125.405 154.862 124.477 153.257 123.901C147.75 121.433 142.718 117.646 138.467 112.77C136.817 110.969 135.357 108.963 133.797 107.066C133.677 106.91 133.697 106.778 133.837 106.658Z" fill="#684A52"/>
<path d="M153.587 58.9147C150.917 57.92 148.525 56.0681 146.667 53.5591C144.487 50.6051 144.837 45.8739 147.337 42.8358C149.657 40.0139 152.577 38.9332 155.737 38.513C158.695 38.1998 161.664 38.9479 164.267 40.6624C165.267 41.2868 166.267 41.8632 167.317 42.4996C168.92 43.4541 170.755 43.6843 172.487 43.1481C172.877 43.028 173.297 43.004 173.757 42.9199C169.447 52.5264 162.757 56.453 154.757 49.8726L154.867 49.6805C154.937 49.6805 155.037 49.5363 155.097 49.5724C157.317 50.6651 159.637 49.5724 161.887 50.0407C161.727 49.6084 160.727 50.509 161.047 49.2842C161.974 48.9866 162.945 48.9456 163.887 49.1641C164.137 49.1641 164.417 49.3322 164.447 49.6685C164.442 49.8183 164.399 49.9627 164.324 50.0827C164.249 50.2027 164.146 50.2927 164.027 50.3409C163.102 50.9132 162.068 51.1864 161.027 51.1335C160.324 51.1116 159.623 51.0354 158.927 50.9053C160.859 51.376 162.855 51.3227 164.767 50.7492C166.869 49.8055 168.725 48.2104 170.147 46.1261C170.747 45.3095 170.587 44.9252 169.747 44.7451C167.559 44.2076 165.448 43.2936 163.477 42.0313C160.541 40.2965 157.232 39.6846 153.997 40.2781C152.431 40.4669 150.941 41.179 149.694 42.3336C148.448 43.4883 147.497 45.0392 146.947 46.8105C146.549 47.8302 146.432 48.9754 146.611 50.0806C146.791 51.1859 147.259 52.1938 147.947 52.9587C149.54 54.7009 151.374 56.0948 153.367 57.0774C153.917 57.3776 154.617 57.4137 154.907 58.2782C154.667 59.0588 154.107 58.9147 153.587 58.9147Z" fill="#684A52"/>
<path d="M133.837 106.658V107.066C131.837 107.282 129.837 107.571 127.837 107.715C123.861 108.177 119.853 108.032 115.907 107.282C115.187 106.538 114.487 105.793 113.407 106.19C113.262 106.229 113.111 106.229 112.966 106.19C112.82 106.15 112.684 106.072 112.567 105.962C111.767 104.689 110.917 103.896 109.517 104.761C109.227 104.941 108.867 104.533 108.847 104.064C108.827 103.596 108.617 102.779 109.057 102.335C109.497 101.891 109.697 102.479 109.897 102.84C110.247 103.416 110.707 103.02 111.067 102.96C112.618 102.807 114.179 102.908 115.707 103.26C116.067 102.948 116.397 103.128 116.707 103.356C117.019 103.613 117.381 103.766 117.757 103.8C121.652 104.443 125.604 104.394 129.487 103.656C131.177 103.308 132.857 102.972 134.537 102.527C134.638 102.498 134.743 102.497 134.844 102.527C134.945 102.556 135.039 102.614 135.117 102.695C135.357 103.332 135.967 104.088 134.737 104.232C134.64 104.228 134.544 104.252 134.456 104.304C134.369 104.356 134.294 104.433 134.239 104.529C134.183 104.625 134.148 104.736 134.137 104.852C134.127 104.968 134.14 105.085 134.177 105.193C134.487 106.394 133.847 106.394 133.237 106.322C132.425 106.296 131.617 106.476 130.867 106.85C131.977 107.018 132.897 106.442 133.837 106.658Z" fill="#684A52"/>
<path d="M178.077 114.296C179.077 115.365 179.367 116.902 180.027 118.187C180.517 119.111 180.947 120.084 181.467 120.984C181.987 121.885 182.467 121.705 182.707 120.648C184.61 123.867 186.833 126.795 189.327 129.366C189.562 129.569 189.736 129.857 189.825 130.188C189.913 130.518 189.91 130.874 189.817 131.203C189.547 132.642 189.547 134.135 189.817 135.574C189.946 136.579 190.29 137.525 190.816 138.321C191.342 139.117 192.032 139.735 192.817 140.113C193.917 140.69 194.877 141.506 194.817 143.079C194.819 143.87 194.645 144.646 194.315 145.33C193.985 146.013 193.509 146.579 192.937 146.97C189.737 149.216 187.047 148.171 185.447 144.22C184.596 141.79 184.118 139.194 184.037 136.559C184.016 136.162 183.924 135.775 183.767 135.425C183.61 135.075 183.392 134.769 183.127 134.53C179.127 130.531 175.217 126.496 171.267 122.521L172.887 122.798C173.887 122.798 174.397 123.662 175.017 124.299C178.077 127.385 181.197 130.411 184.317 133.425C184.72 133.784 185.042 134.257 185.257 134.802C185.471 135.346 185.571 135.945 185.547 136.547C185.484 139.011 185.845 141.463 186.607 143.752C186.794 144.456 187.148 145.079 187.626 145.544C188.104 146.01 188.685 146.296 189.297 146.37C190.048 146.517 190.817 146.415 191.522 146.074C192.227 145.733 192.841 145.167 193.297 144.436C193.431 144.252 193.531 144.037 193.591 143.803C193.65 143.57 193.668 143.324 193.644 143.082C193.619 142.84 193.553 142.606 193.448 142.397C193.344 142.187 193.204 142.007 193.037 141.867C192.539 141.364 192.014 140.898 191.467 140.474C190.484 139.754 189.685 138.723 189.156 137.495C188.627 136.267 188.389 134.888 188.467 133.509C188.547 132.591 188.435 131.663 188.142 130.81C187.849 129.957 187.383 129.205 186.787 128.622C184.277 126.068 182.013 123.184 180.037 120.024C179.268 118.566 178.6 117.036 178.037 115.449C177.95 115.273 177.908 115.07 177.915 114.865C177.922 114.66 177.978 114.463 178.077 114.296Z" fill="#684A52"/>
<path d="M153.587 58.9141C153.907 58.4337 154.467 58.7099 154.817 58.3257C155.167 57.9414 155.617 58.2416 155.997 58.4097C159.467 59.8627 162.937 61.2917 166.377 62.8167C169.934 64.214 173.066 66.8467 175.377 70.3818C176.212 71.5981 176.825 73.0105 177.178 74.5285C177.532 76.0464 177.616 77.6363 177.427 79.1958C177.279 80.2297 176.956 81.2162 176.478 82.094C176 82.9719 175.377 83.7225 174.647 84.2993C174.647 84.2993 174.877 84.0951 175.097 83.939C175.317 83.7829 175.477 83.3986 175.717 83.1945C175.957 82.9904 176.147 82.7742 176.387 83.0384C176.627 83.3026 176.497 83.6148 176.387 83.867C175.932 84.784 175.301 85.5577 174.547 86.1245C174.257 86.2926 173.977 86.4968 173.647 86.2566L173.507 86.0165C172.127 87.0131 170.617 85.5481 169.207 86.3406C168.422 86.6748 167.562 86.6406 166.797 86.2446C165.334 85.5174 163.803 85.0053 162.237 84.7196C161.293 84.546 160.365 84.2604 159.467 83.867C156.727 83.6508 153.997 83.4467 151.267 83.2185C151.127 83.2185 150.997 83.0264 150.857 82.9304C155.187 83.0865 159.537 83.0864 163.777 84.3953C164.443 84.5388 165.087 84.8019 165.687 85.1759C167.877 86.821 169.867 85.8003 171.857 84.6355C172.382 84.3087 172.889 83.9438 173.377 83.5428C176.287 81.2252 177.047 78.1751 175.597 74.3685C174.713 72.0906 173.455 70.0506 171.898 68.371C170.341 66.6913 168.518 65.4066 166.537 64.5939C162.757 62.8767 158.907 61.3877 155.097 59.7906C154.536 59.6718 154.013 59.3684 153.587 58.9141Z" fill="#684A52"/>
<path d="M154.797 49.871C153.433 48.9637 152.233 47.7391 151.267 46.2686C150.647 45.4401 150.267 45.6682 149.787 46.3527C148.027 48.7543 148.527 51.1559 151.157 52.5369C153.75 53.7296 156.398 54.7439 159.087 55.5749C163.357 56.9485 167.503 58.8228 171.467 61.1707C171.979 61.3979 172.433 61.7782 172.787 62.2754C172.637 62.7437 172.617 63.3201 172.047 63.3801C171.834 63.3792 171.624 63.3131 171.437 63.188C167.097 59.9819 162.147 58.721 157.367 56.8958C154.763 56.0447 152.235 54.8905 149.817 53.4495C146.907 51.5282 146.537 48.286 148.487 44.9717C148.586 44.7755 148.72 44.608 148.879 44.4814C149.038 44.3547 149.218 44.272 149.407 44.2393C149.757 44.2393 149.577 44.8037 149.987 44.8517C152.447 45.1279 153.577 47.5295 154.987 49.5108C154.987 49.5108 154.987 49.6909 154.887 49.763L154.797 49.871Z" fill="#684A52"/>
<path d="M172.287 63.2731C172.577 63.0329 172.197 62.3124 172.787 62.2764C174.764 63.48 176.499 65.1881 177.869 67.2811C179.238 69.374 180.211 71.8012 180.717 74.3927C181.375 77.1542 181.21 80.1049 180.249 82.7357C179.289 85.3664 177.594 87.5121 175.457 88.8025C174.55 89.4282 173.583 89.9201 172.577 90.2675C172.857 89.7151 173.467 89.0666 172.247 89.0666C171.697 89.0666 171.847 88.4182 171.757 88.0339C171.577 87.2174 172.247 87.2774 172.557 86.9652C173.797 87.2054 173.797 87.2054 173.177 88.2861C173.537 87.9499 173.947 87.8178 174.297 87.5416C175.017 86.9171 175.807 86.4248 176.507 85.7764C179.277 83.1946 179.997 79.6643 179.437 75.7376C178.777 71.1504 176.437 67.8002 173.527 64.9302C173.057 64.4259 172.377 64.1617 172.287 63.2731Z" fill="#684A52"/>
<path d="M152.087 113.346C152.498 113.211 152.935 113.258 153.319 113.479C153.702 113.699 154.007 114.078 154.177 114.547C154.257 114.729 154.383 114.876 154.537 114.967C157.767 116.984 160.227 120.227 163.087 122.82C163.377 123.073 163.747 123.565 164.087 123.205C164.427 122.844 164.087 122.316 163.847 121.896C163.237 120.863 163.247 120.563 163.847 120.107C164.737 123.625 166.847 126.111 168.927 128.596C169.014 128.709 169.112 128.809 169.217 128.896C170.947 130.205 172.127 131.73 171.677 134.552C171.417 136.233 172.467 137.554 173.437 138.731C173.767 139.115 174.077 139.524 174.437 139.932C174.727 140.736 174.217 140.676 173.817 140.749C172.67 140.222 171.692 139.27 171.027 138.03C170.361 136.79 170.043 135.328 170.117 133.856C170.166 133.263 170.093 132.665 169.907 132.113C169.721 131.561 169.426 131.071 169.047 130.686C164.15 124.751 158.793 119.391 153.047 114.679C152.607 114.295 152.037 114.139 152.087 113.346Z" fill="#684A52"/>
<path d="M182.707 120.648C181.517 119.759 181.387 118.15 180.947 116.781C179.947 113.863 179.747 110.669 178.807 107.775C178.237 106.046 178.087 104.173 177.337 102.54C176.625 100.84 175.988 99.096 175.427 97.3161C175.201 96.8245 175.091 96.2683 175.107 95.707C176.635 98.7347 177.819 101.994 178.627 105.398C179.717 109.529 180.627 113.719 181.727 117.862C182.01 118.812 182.337 119.742 182.707 120.648Z" fill="#684A52"/>
<path d="M173.597 140.437C173.927 140.437 174.307 140.437 174.337 139.873C175.987 142.191 175.687 143.896 173.387 145.217C171.087 146.537 170.387 146.417 169.017 144.688C169.091 144.69 169.165 144.674 169.233 144.64C169.302 144.607 169.364 144.558 169.416 144.495C169.469 144.432 169.51 144.357 169.537 144.275C169.565 144.193 169.579 144.105 169.577 144.016C170.407 144.016 170.967 145.217 171.907 144.784C172.349 144.65 172.778 144.461 173.187 144.22C174.467 143.295 174.547 142.443 173.597 140.437Z" fill="#684A52"/>
<path d="M65.6472 65.9387C65.8572 65.9387 66.0872 66.2269 66.2572 65.8546C67.2572 66.5271 67.5972 68.0882 68.5372 68.7126C68.5372 67.4277 67.7872 66.1068 68.5372 64.7139C68.8572 64.894 68.7172 65.3262 68.8872 65.6385C69.4672 64.1254 70.2872 65.0381 71.0472 65.3023C69.2372 65.3023 68.7372 66.5031 69.3972 69.217C69.5172 69.6733 69.9072 70.0696 69.5872 70.754C67.8472 69.6012 66.3072 68.3163 65.6472 65.9387Z" fill="#684A52"/>
<path d="M178.077 114.295C179.077 118.474 181.317 121.692 183.777 124.694C185.227 126.459 186.777 128.129 188.317 129.75C188.518 129.966 188.667 130.242 188.75 130.55C188.833 130.858 188.845 131.187 188.787 131.503C188.707 133.905 188.597 136.306 189.967 138.311C190.513 139.147 191.172 139.866 191.917 140.437C192.917 141.193 194.337 141.758 194.037 143.595C193.737 145.432 192.387 146.321 190.937 146.717C190.464 146.905 189.963 146.974 189.466 146.922C188.969 146.87 188.486 146.698 188.047 146.415C187.607 146.132 187.22 145.744 186.909 145.276C186.598 144.808 186.369 144.269 186.237 143.691C185.522 141.251 185.183 138.676 185.237 136.09C185.237 135.418 185.237 134.817 184.757 134.313C180.797 130.47 176.844 126.616 172.897 122.749L173.327 122.485C174.117 122.064 175.117 122.641 175.767 121.728C174.967 121.116 173.947 121.668 173.057 121.224C168.913 120.632 164.901 119.096 161.237 116.697C158.058 114.588 155.241 111.772 152.937 108.399C152.737 108.099 152.427 107.823 152.547 107.198C155.497 107.547 158.457 107.751 161.337 106.274C154.223 106.024 147.247 103.853 140.927 99.9215C139.348 99.3178 137.892 98.3192 136.657 96.9915C136.737 97.5079 137.037 97.748 137.237 98.0602C137.482 98.4063 137.753 98.724 138.047 99.0089C139.467 100.51 139.407 101.134 137.567 101.771C135.107 102.599 132.567 103.128 130.077 103.74C126.592 104.394 123.058 104.587 119.537 104.316C118.456 104.278 117.388 104.005 116.387 103.512C116.292 103.401 116.176 103.319 116.049 103.271C115.923 103.223 115.788 103.211 115.657 103.236L113.517 102.035C119.697 103.608 125.747 103.452 131.617 100.342C125.787 101.723 120.007 101.963 114.327 99.4291C119.005 100.401 123.793 100.295 128.437 99.1169C129.171 99.0555 129.871 98.7196 130.437 98.1563C129.687 97.8441 128.977 98.1563 128.287 98.0722C127.217 98.4565 126.137 98.0722 125.067 98.1683C125.005 98.1824 124.94 98.1785 124.879 98.1567C124.818 98.135 124.763 98.096 124.717 98.0432C124.671 97.9903 124.636 97.9251 124.615 97.8529C124.594 97.7807 124.588 97.7035 124.597 97.6279C124.585 97.5386 124.591 97.447 124.616 97.3613C124.64 97.2757 124.682 97.1989 124.738 97.138C124.794 97.077 124.861 97.0338 124.935 97.0124C125.008 96.991 125.084 96.9921 125.157 97.0155C126.076 96.9919 126.99 96.8346 127.877 96.5471C128.187 96.5471 128.657 96.5472 128.597 95.9948C128.537 95.4424 128.137 95.6346 127.847 95.6346C125.537 95.719 123.225 95.6106 120.927 95.3103C118.627 94.9861 116.227 95.0702 114.197 93.341C113.966 93.1253 113.754 92.8797 113.567 92.6085C113.411 91.4707 113.504 90.3037 113.837 89.2222C113.837 88.7179 114.397 88.4537 114.227 87.7212C112.343 89.1663 110.749 91.0935 109.557 93.365C107.823 96.5486 106.762 100.193 106.467 103.98C106.367 105.181 106.037 105.517 105.007 105.181C100.564 103.479 95.8262 103.206 91.2673 104.388C91.5073 103.44 92.2673 103.188 92.8473 102.455C91.4973 102.119 90.6373 103.08 89.7473 103.656C86.4773 105.829 85.7473 109.336 87.4773 113.263C88.0796 114.658 88.8109 115.967 89.6573 117.165C90.9173 118.894 90.6573 120.768 88.8273 121.68C87.7949 122.284 86.6149 122.416 85.5073 122.052C81.5073 120.636 79.7273 117.73 79.5073 111.942C79.5073 111.485 79.5073 111.029 79.4573 110.573C79.8873 108.735 80.0373 106.814 80.3973 104.953C81.0973 101.266 83.1573 99.1049 85.7173 97.4958C88.2438 95.9994 90.8908 94.8165 93.6173 93.9654C94.6173 93.6172 95.3473 93.6773 95.4573 95.2503C95.5346 95.8825 95.768 96.4722 96.1273 96.9434C96.2873 94.782 96.3373 92.5965 96.6273 90.4591C97.1837 85.2568 98.9907 80.362 101.827 76.3735C102.287 75.7611 102.577 75.653 103.147 76.1814C106.159 78.8482 108.656 82.2642 110.467 86.1961C110.517 86.3162 110.637 86.3763 110.877 86.6044C111.909 81.9201 111.767 76.9741 110.467 72.3868C112.375 74.9049 114.018 77.6958 115.357 80.6965C116.667 78.0186 115.557 68.1599 113.067 63.1886C112.947 62.7683 112.407 62.336 112.907 61.9157C113.407 61.4954 113.687 62.0238 113.997 62.336C114.263 62.6455 114.551 62.9267 114.857 63.1766C116.123 64.6121 117.241 66.2247 118.187 67.9798C118.587 66.839 118.187 65.7103 118.507 64.3774L119.567 66.1065C121.995 69.8718 125.007 73.0363 128.437 75.4249C128.626 75.5237 128.824 75.5962 129.027 75.641C129.975 76.1398 130.876 76.7556 131.717 77.4783C131.947 78.8352 131.167 78.0546 130.777 78.1147L128.777 77.142C126.202 75.9761 123.786 74.3573 121.607 72.3388C123.187 74.4162 125.667 75.9412 127.717 78.0547L130.497 79.8799C131.317 80.7565 130.747 81.0807 130.097 81.4049C129.117 81.3254 128.164 80.985 127.307 80.4083C129.214 81.4547 131.171 82.3649 133.167 83.1341C133.663 83.255 134.131 83.5051 134.537 83.8666C135.662 84.1005 136.773 84.4133 137.867 84.8032C140.09 85.4858 142.365 85.8882 144.657 86.004C144.947 86.1962 145.137 86.3403 144.767 86.7485C144.397 87.1568 143.767 87.7693 143.247 88.2856C143.967 87.9193 144.723 87.6688 145.497 87.541C149.777 85.7335 154.304 84.9186 158.837 85.1394C159.837 85.6197 161.017 85.0194 162.067 85.92C158.247 86.1721 154.507 86.2922 151.017 88.2375C157.095 87.2774 163.267 88.7504 168.577 92.4284C166.787 92.2723 165.017 91.5878 162.917 92.1762C166.446 93.1133 169.72 95.104 172.437 97.9642C171.248 97.541 169.999 97.4143 168.767 97.5919C170.529 98.4116 172.163 99.585 173.597 101.062C174.39 101.944 175.141 102.878 175.847 103.86C175.977 104.208 176.057 104.521 175.587 104.485C173.997 103.284 172.507 101.891 170.197 102.083C172.509 103.13 174.536 104.921 176.057 107.258C176.267 107.703 176.947 108.051 176.617 108.591C176.287 109.132 175.797 108.519 175.417 108.303C174.781 107.921 174.11 107.631 173.417 107.439C173.257 107.439 173.357 107.787 173.357 107.583C173.357 106.97 175.087 108.435 175.517 109.408C176.595 110.851 177.46 112.504 178.077 114.295Z" fill="#F3F2F2"/>
<path d="M96.5872 59.2621L95.5872 57.7131C95.2872 56.7405 95.5872 56.5123 96.3672 56.7765C97.6044 57.2104 98.7906 57.8319 99.8972 58.6258C100.637 59.1901 101.637 59.1421 102.227 60.0787C101.755 59.3364 101.244 58.6306 100.697 57.9653C99.1475 56.3981 97.4727 55.0184 95.6972 53.8465C98.4572 53.5703 100.777 55.1314 103.127 56.5243C103.64 56.6299 104.126 56.8765 104.547 57.2448C104.221 56.9388 103.928 56.5836 103.677 56.1881C100.957 53.09 97.5772 51.589 94.0672 50.3882C94.0327 50.3596 93.9958 50.3354 93.9572 50.3161C92.5672 50.1359 92.5672 50.136 93.0372 48.5749C93.6568 47.7202 94.3778 46.9798 95.1772 46.3774C95.2872 46.3174 95.3372 46.1012 95.4172 45.9571L94.8172 45.8491C92.8099 46.3653 90.7344 46.3653 88.7272 45.8491C87.9772 45.5249 87.9772 45.1286 88.6672 44.7323C89.7028 44.1756 90.7052 43.5336 91.6672 42.811C86.5572 43.8077 81.4772 45.0445 76.3572 44.1679C82.4039 39.631 89.6349 37.9414 96.6572 39.4247C94.4972 39.9171 92.2272 39.845 90.0272 41.262C93.3511 40.5789 96.7684 41.0497 99.8772 42.6189C97.9938 42.8092 96.1386 43.2894 94.3572 44.0479C95.8672 44.0479 97.3572 43.9398 98.9072 44.0479C100.465 44.1725 101.977 44.7272 103.327 45.669C100.707 46.2934 98.1172 46.1733 95.6272 48.1426L97.9772 48.3708C101.334 48.7024 104.568 50.0356 107.387 52.2494C107.787 52.4315 108.172 52.6565 108.537 52.9219C108.451 52.5735 108.33 52.2388 108.177 51.9252C106.827 50.4482 105.657 48.695 103.777 47.8424C105.927 47.3741 109.847 49.2954 111.717 51.637C111.717 52.5016 111.717 52.5016 110.717 51.9372C110.417 51.8411 110.277 51.3007 109.797 51.5169C110.487 52.6336 111.167 53.6904 111.797 54.7831C112.538 55.9104 113.067 57.2173 113.347 58.6137C110.437 56.2842 107.787 53.9786 104.477 53.2341C108.107 57.1007 111.207 61.3876 112.667 67.0795C110.717 64.7979 108.907 62.2762 106.357 60.8833C106.067 61.6158 106.607 61.7838 106.697 62.1801C107.697 63.8012 108.897 65.2182 109.957 66.7913L110.957 68.6405C110.627 69.8413 110.167 69.0728 109.907 68.6405C109.16 67.4882 108.206 66.5525 107.117 65.9027C106.377 65.1942 105.337 65.1581 104.627 64.3656C104.297 64.0414 103.807 64.3657 103.627 64.0414C103.835 64.2165 104.006 64.4466 104.127 64.7139L104.647 65.2903C105.274 65.7373 105.803 66.3593 106.187 67.1035C107.303 68.7748 108.252 70.5962 109.017 72.5311C109.117 73.0595 109.307 73.6119 108.847 74.0321C108.387 74.4524 108.257 73.8521 107.977 73.708L105.467 71.1262C105.327 70.91 105.147 70.778 104.937 70.9461C104.727 71.1142 104.827 71.2823 104.937 71.4504C105.324 71.9028 105.676 72.3972 105.987 72.9274C107.538 75.2239 108.706 77.8577 109.427 80.6847C106.557 77.0823 103.797 73.2396 99.6272 70.814C99.9872 72.1589 100.707 72.6873 101.097 73.4678C101.487 74.2483 101.647 74.6686 101.097 75.233C100.114 76.4154 99.2791 77.7623 98.6172 79.2317C98.2272 80.0602 97.8472 79.9882 97.6172 79.2317C97.1372 77.8387 96.7372 76.4218 96.2272 74.7767C95.6344 77.5334 95.6344 80.4257 96.2272 83.1824C96.5972 85.1517 96.0272 86.6888 95.3772 88.562C94.4672 86.6047 94.2872 84.5873 93.5172 82.7981C93.1356 85.0494 93.218 87.3784 93.7572 89.5827C94.3172 91.9843 94.2572 92.1164 92.2872 92.6808C90.3172 93.2452 90.2872 93.2452 89.2872 91.0597C87.9427 88.0667 87.1674 84.753 87.0172 81.3571C86.7672 77.2624 86.3272 73.2156 84.4772 69.6132C84.3372 68.8807 84.5971 68.6165 85.0471 69.1449C85.431 69.5488 85.7674 70.0133 86.0471 70.5258C89.0471 75.6653 90.2972 81.5973 91.3972 87.6014C91.6678 81.0153 90.5969 74.4493 88.2772 68.4724C88.0383 67.4361 87.5998 66.4818 86.9972 65.6865L86.7971 65.3623C86.9372 64.4977 87.0172 64.4137 87.4972 64.87C88.1472 65.4824 88.6271 66.323 89.3271 66.8753C91.3271 69.277 92.5172 72.3871 93.8372 75.3771C93.5772 70.2617 92.6072 65.4584 89.9672 61.2435C92.326 62.5285 94.2862 64.6762 95.5672 67.3797C95.9072 65.2782 95.1272 63.8373 94.7172 62.3123C94.2228 60.7022 93.5501 59.1795 92.7172 57.7852C94.2272 57.9533 94.9572 59.118 95.8472 59.9226C96.4672 60.2348 96.8472 61.0514 97.4772 61.2315C97.4003 60.4629 97.0819 59.7584 96.5872 59.2621Z" fill="#F3F2F2"/>
<path d="M70.7372 62.0233C71.2241 62.5722 71.5709 63.276 71.7372 64.0527C69.8965 63.441 67.9773 63.2456 66.0772 63.4763C65.9503 63.4942 65.8218 63.474 65.703 63.4174C65.5843 63.3608 65.4792 63.2696 65.3972 63.1521C64.6311 61.7665 64.0003 60.2797 63.5172 58.7211C63.2872 58.0246 63.7872 58.0366 64.1772 58.0486C65.2097 58.1957 66.2552 57.9656 67.1772 57.3882C67.3172 57.2681 67.4872 57.2081 67.5572 57.0159C66.7172 56.7758 66.8172 55.2628 65.8072 55.1787C65.3372 55.1787 64.5772 55.1787 64.9072 54.062L69.7272 52.2247C69.9672 52.0326 70.2672 52.0086 70.5072 51.7924C71.0272 51.3121 71.1472 51.7323 71.1872 52.2727C71.1692 52.4174 71.1356 52.5588 71.0872 52.693C70.9016 53.2661 70.5778 53.7595 70.1572 54.11C70.5972 54.3141 70.6672 53.9059 70.8472 53.7498C72.303 52.3361 73.9066 51.1573 75.6172 50.2433C74.9724 50.1594 74.3219 50.1594 73.6772 50.2433C73.3172 50.2433 72.8772 50.4835 72.6772 49.9192C72.4772 49.3548 72.7572 49.0425 72.9672 48.6583C73.14 48.3771 73.3378 48.1194 73.5572 47.8898C73.8972 47.1333 74.2072 46.3287 75.0372 46.1726C78.2158 45.3555 81.5003 45.331 84.6872 46.1006C83.9472 46.9892 82.9672 47.1213 82.4572 48.154C82.9772 48.4181 83.4072 47.8538 83.8572 47.9618C84.2072 47.8297 84.6172 47.6376 84.8572 48.0339C85.0972 48.4301 84.7872 48.6703 84.6272 48.9345C84.4526 49.151 84.2457 49.3262 84.0172 49.4508C83.9172 49.4508 83.7972 49.5589 83.6972 49.631C83.5972 49.703 83.4072 49.751 83.3672 49.9552C83.5272 49.9552 83.6172 49.8111 83.7572 49.7631C84.4344 49.2461 85.242 49.0334 86.0372 49.1626C86.3772 49.2347 86.7172 49.3428 86.7972 49.8231C86.8368 50.0469 86.8068 50.2804 86.7128 50.4796C86.6189 50.6787 86.4675 50.8296 86.2872 50.9038C85.8672 51.12 85.4172 51.2761 84.9272 51.5883C85.7149 51.6816 86.5066 51.4665 87.1842 50.9753C87.8619 50.4841 88.3891 49.7429 88.6872 48.8624C89.3772 47.9498 89.9872 47.8297 90.5272 48.5622C91.2372 49.5229 90.4672 50.2193 90.0872 50.8437C89.74 51.2618 89.358 51.6361 88.9472 51.9606C87.1172 53.4736 84.9472 53.3055 82.8372 53.4616C83.3572 54.158 84.0872 54.2301 84.6572 54.6624C85.6572 55.3108 86.6572 55.8632 87.6572 56.5357L88.1672 56.8718C88.4472 57.0159 88.5672 57.2441 88.3772 57.5804C88.3389 57.6562 88.2878 57.7216 88.2272 57.7723C88.1666 57.823 88.0979 57.858 88.0254 57.875C87.9529 57.8919 87.8782 57.8905 87.8062 57.8708C87.7342 57.8511 87.6664 57.8135 87.6072 57.7604C86.9177 57.405 86.2094 57.1041 85.4872 56.8598C85.2237 56.6861 84.9337 56.5785 84.6346 56.5434C84.3355 56.5083 84.0336 56.5465 83.7472 56.6557C83.7472 57.124 84.1472 57.196 84.3572 57.4482C85.9162 58.8165 87.3448 60.3871 88.6172 62.1314C89.2372 62.8759 89.1772 63.02 88.4172 63.2001C85.8572 61.2428 83.2772 59.3455 80.1872 58.7691C81.5065 60.4573 82.7293 62.2506 83.8472 64.1367C83.9772 64.8812 83.7472 64.8933 83.3172 64.521C82.4454 63.6237 81.4218 62.9641 80.3172 62.5877L79.7972 62.2995C79.3372 61.9753 78.7972 61.9393 78.3272 61.591C78.0272 61.3749 77.6772 61.1828 77.4472 61.591C77.2172 61.9993 77.6172 62.2755 77.7872 62.5997C78.5672 63.1641 78.7872 64.2328 79.2472 65.0614C79.4251 65.2765 79.5633 65.5341 79.6529 65.8175C79.7425 66.101 79.7814 66.4038 79.7672 66.7065C80.0272 69.3603 80.2672 72.0381 79.1572 74.4758C79.5872 74.2116 79.3572 73.0588 80.2172 73.1669C80.6572 73.6712 80.4172 74.2356 80.3072 74.7879C80.0933 75.1321 80 75.5631 80.0472 75.9888C79.8972 77.3217 79.1072 78.4625 79.2472 79.8795L77.4872 82.9054C76.6385 82.9623 75.8 82.6607 75.1172 82.0529C74.2972 81.5005 74.0672 80.8521 74.6772 79.6513C75.8012 77.5096 76.4355 75.0501 76.5162 72.5204C76.597 69.9908 76.1214 67.4803 75.1372 65.2415C74.7495 64.0712 74.1907 62.9935 73.4872 62.0594C72.9874 61.2449 72.3792 60.5349 71.6872 59.9579L71.4072 59.6818C71.1972 59.4296 70.8072 59.6817 70.7272 59.4055C70.9872 59.7298 71.1072 60.3662 71.4272 60.8585C71.6772 61.3629 71.4872 61.567 71.0772 61.603C70.6672 61.6391 70.5772 61.4589 70.7372 62.0233Z" fill="#F3F2F2"/>
<path d="M64.1972 90.2799L67.4972 88.7549C67.6624 88.6522 67.8429 88.5898 68.0282 88.5713C68.2136 88.5527 68.4002 88.5784 68.5772 88.6468C69.1372 88.815 69.1672 89.2352 68.7772 89.7275L66.9672 91.3726C68.1072 91.7209 68.8372 90.6762 69.7272 90.8443C71.2239 90.3729 72.7907 90.3196 74.3072 90.6882C74.9072 90.8323 75.5372 90.9644 74.8972 92.0091C74.4872 92.6695 75.1972 92.4654 75.3672 92.6695C79.0172 93.4621 79.8872 94.723 81.3072 98.5655C78.5054 97.3889 75.6048 96.5836 72.6572 96.1639C74.2628 95.181 76.1125 94.9375 77.8573 95.4795C77.6061 95.1411 77.2979 94.8709 76.953 94.6866C76.6082 94.5023 76.2347 94.4083 75.8573 94.4107C74.7248 94.1108 73.5515 94.11 72.4188 94.4086C71.2861 94.7072 70.2209 95.2979 69.2972 96.1399C68.5486 96.834 67.9794 97.7688 67.6554 98.8358C67.3315 99.9028 67.2663 101.058 67.4672 102.168C67.6921 103.862 68.0264 105.532 68.4672 107.163C69.2272 110.069 68.4672 111.426 65.9872 111.57C64.7143 111.714 63.4401 111.311 62.3923 110.431C61.3445 109.551 60.5913 108.252 60.2672 106.767C59.5611 104.281 59.3925 101.62 59.7773 99.0348C60.1621 96.4492 61.0877 94.0234 62.4672 91.9851C62.9472 91.2285 63.7372 90.9764 64.1972 90.2799Z" fill="#F3F2F2"/>
<path d="M83.1672 92.4044C81.5304 88.1714 81.0677 83.4194 81.8472 78.8471C82.463 76.1098 82.626 73.2541 82.3271 70.4414C82.882 70.8597 83.2881 71.51 83.4672 72.2667C83.0189 73.4768 82.8232 74.7999 82.8971 76.1213C82.8971 78.1867 82.1272 80.024 82.1372 82.0534C82.1968 81.9178 82.2802 81.7995 82.3818 81.7066C82.4833 81.6136 82.6004 81.5483 82.7251 81.5152C82.8497 81.4821 82.9788 81.4819 83.1035 81.5147C83.2282 81.5475 83.3455 81.6124 83.4472 81.7051C83.3872 85.7657 84.1781 89.7794 85.7472 93.3771C86.0072 94.0255 87.1172 94.3738 86.4972 95.3104C86.1472 95.8388 85.3871 95.9709 84.8271 96.3191C82.3471 97.8442 82.3472 97.8562 80.8872 94.9622C79.5165 92.4471 78.8187 89.4891 78.8872 86.4844C78.8646 85.7123 79.0544 84.9526 79.4271 84.3229C80.2871 88.2616 81.4272 91.876 83.7872 94.77C84.0972 93.9054 83.3972 93.5692 83.4072 92.9568C83.7919 91.953 83.8766 90.8207 83.6471 89.7506C83.5971 89.4144 83.4972 89.0781 83.4172 88.7419C83.3372 88.4056 83.8871 87.8173 83.0171 87.9253C82.6671 87.9253 82.5971 87.1208 82.6771 86.6165C82.7453 85.5375 82.879 84.4659 83.0771 83.4103C82.0771 85.7279 82.4472 87.9974 83.2272 90.2549C83.4672 90.9874 83.6972 91.72 83.1672 92.4044Z" fill="#F3F2F2"/>
<path d="M83.4672 81.7296C83.0572 81.9577 82.2872 81.6215 82.4172 82.7143C82.4284 82.777 82.4264 82.8421 82.4113 82.9037C82.3961 82.9652 82.3684 83.0212 82.3306 83.0666C82.2928 83.112 82.2462 83.1452 82.1949 83.1634C82.1437 83.1816 82.0895 83.184 82.0372 83.1706C81.7072 83.1706 81.6772 82.7743 81.7072 82.4741C81.7523 81.9271 81.8326 81.3852 81.9472 80.853C82.3951 78.1653 82.7289 75.4519 82.9472 72.7235C83.0172 72.1951 83.1472 72.1351 83.4972 72.2912C84.9803 75.1392 85.8084 78.4083 85.8972 81.7656C85.9796 85.7698 86.9758 89.6701 88.7772 93.0413C88.9772 93.4495 89.4472 93.8098 88.8472 94.2421C88.2472 94.6744 88.1372 94.2421 87.8472 93.7498C85.9846 90.4309 84.6708 86.7129 83.9772 82.7983C83.8972 82.4141 83.7872 82.0418 83.6772 81.6696C83.6772 81.6696 83.6072 81.6696 83.5672 81.6696C83.5324 81.6859 83.499 81.7059 83.4672 81.7296Z" fill="#F3F2F2"/>
<path d="M83.1673 92.4039C83.2306 91.6062 83.1059 90.8031 82.8073 90.0864C82.202 88.418 81.9876 86.5827 82.1873 84.7787C82.1873 83.9141 83.1873 83.5778 83.0573 82.6172C83.4473 84.3944 82.8773 86.2197 83.1273 88.3091L83.6173 87.1083C83.8473 89.0896 84.1373 90.9389 84.2373 92.8002C84.2873 93.7608 83.7173 93.0044 83.4173 93.0044L83.1673 92.4039Z" fill="#F3F2F2"/>
<path d="M84.4672 48.8869C85.2072 47.8062 84.3972 48.0103 83.9172 47.9503C84.9901 47.4405 86.1392 47.2029 87.2923 47.2525C88.4454 47.3021 89.5775 47.6378 90.6172 48.2384C91.4172 48.6347 91.6972 49.1871 90.9672 50.1598C90.4814 50.9726 89.8065 51.595 89.0272 51.949C89.0272 50.9283 90.2872 50.9523 90.3272 49.7635C90.3272 49.3552 90.8972 48.959 90.3272 48.5627C90.2228 48.456 90.0982 48.3816 89.9644 48.346C89.8305 48.3104 89.6914 48.3147 89.5592 48.3585C89.427 48.4023 89.3058 48.4843 89.2061 48.5974C89.1064 48.7104 89.0312 48.851 88.9872 49.007C87.4833 49.2205 85.9618 49.1801 84.4672 48.8869Z" fill="#F3F2F2"/>
<path d="M75.0873 46.1611C74.2073 46.3052 74.5374 47.6742 73.8174 47.9744C72.8236 48.7543 72.0934 49.9334 71.7574 51.3006C71.5874 51.757 71.6973 52.5015 71.0473 52.5015C70.9873 52.1172 71.1073 51.4688 70.4673 52.0212C70.2973 52.1773 69.9973 52.1293 69.7673 52.1773C71.2273 51.1686 71.0874 48.9951 72.0374 47.6261C72.9158 46.7963 73.9746 46.2877 75.0873 46.1611Z" fill="#F3F2F2"/>
<path d="M84.4674 57.4131C83.7674 57.4972 83.4674 56.9568 83.0674 56.2964C84.8174 55.828 86.1474 56.9808 87.5874 57.4371C88.0874 57.5932 88.5874 57.9415 88.2774 56.8367C89.4831 57.403 90.5039 58.4224 91.1874 59.7427C89.276 58.6375 87.2969 57.7102 85.2674 56.9688C84.8974 56.8727 84.3074 56.2843 84.4674 57.4131Z" fill="#F3F2F2"/>
<path d="M107.187 65.9502C107.748 66.0638 108.282 66.3237 108.75 66.7117C109.218 67.0997 109.61 67.6062 109.897 68.1957C110.067 68.544 110.317 69.7088 111.027 68.6761C111.858 69.7249 112.429 71.0304 112.677 72.4467C110.994 70.1092 109.158 67.9368 107.187 65.9502Z" fill="#F3F2F2"/>
<path d="M80.1074 73.156C79.8218 74.1202 79.3683 75.0004 78.7773 75.7378C79.7773 72.2074 80.4474 68.6889 79.3474 65.0264C80.4174 66.2272 80.0573 67.7282 80.1773 69.1572C80.1773 69.5655 79.8073 70.3581 80.7073 70.226C80.796 70.7372 80.7881 71.2657 80.6843 71.7727C80.5804 72.2798 80.3833 72.7525 80.1074 73.156Z" fill="#684A52"/>
<path d="M75.3673 92.6806C74.9673 92.6806 74.5573 92.9087 74.2273 92.5245C74.1673 92.2243 74.3373 92.1522 74.4573 92.0322C74.5773 91.9121 75.0973 91.792 74.9373 91.2996C74.7773 90.8073 74.4673 90.9755 74.1873 90.8914C72.7084 90.6332 71.2062 90.6332 69.7273 90.8914C72.2173 89.7867 74.5973 90.363 77.3373 91.5398C76.4373 91.792 75.8873 91.9241 75.3373 92.0922C74.6073 92.2483 75.3873 92.4284 75.3673 92.6806Z" fill="#F3F2F2"/>
<path d="M110.757 51.9731C111.057 51.7089 111.627 52.6935 111.757 51.6729C113.168 52.8365 114.222 54.5239 114.757 56.4761L110.757 51.9731Z" fill="#F3F2F2"/>
<path d="M68.7773 89.6907C68.9973 88.1176 67.9573 88.9822 67.4873 88.718C67.4966 88.6269 67.5168 88.5379 67.5473 88.4538C69.3684 87.9923 71.2179 87.7112 73.0773 87.6133L68.7773 89.6907Z" fill="#F3F2F2"/>
<path d="M93.0574 48.5742C92.6474 49.775 93.3474 50.1113 94.0574 50.3875C93.7659 50.3603 93.4734 50.4207 93.2063 50.5632C92.9392 50.7058 92.7059 50.926 92.5274 51.204C91.732 52.4063 90.5833 53.1969 89.3174 53.4135C90.8632 52.1755 92.1445 50.5176 93.0574 48.5742Z" fill="#F3F2F2"/>
<path d="M88.5172 63.165C89.3772 62.8528 88.7772 62.4565 88.5172 62.1803C87.4233 60.6863 86.2147 59.3193 84.9073 58.0976C84.7219 57.9002 84.5633 57.6692 84.4373 57.4131C86.7472 59.0156 88.6197 61.3893 89.8272 64.2457L88.5172 63.165Z" fill="#F3F2F2"/>
<path d="M108.007 73.7555C109.087 74.3078 109.007 73.4313 109.007 72.5547C109.634 73.9129 109.977 75.4333 110.007 76.9856L108.007 73.7555Z" fill="#F3F2F2"/>
<path d="M85.9774 70.4777C85.5638 70.153 85.1987 69.7471 84.8974 69.2768C84.5674 68.8686 84.5374 69.3609 84.4474 69.6011C83.8974 68.4003 82.9074 67.5597 82.5474 66.1787C84.0287 67.1586 85.2255 68.6585 85.9774 70.4777Z" fill="#F3F2F2"/>
<path d="M80.4673 62.5527C81.7073 62.4567 82.5473 63.3934 83.4673 64.186C83.6773 64.3781 83.9073 64.8224 84.0273 64.1019C84.6073 64.4381 84.7973 65.0625 85.1173 66.0112L80.4673 62.5527Z" fill="#F3F2F2"/>
<path d="M100.697 57.9648C101.627 58.3491 102.117 59.3338 102.757 60.1143C102.907 60.3064 102.987 60.5586 102.757 60.7747C102.726 60.8089 102.689 60.8344 102.648 60.8494C102.608 60.8644 102.565 60.8687 102.523 60.8618C102.481 60.8549 102.441 60.8371 102.406 60.8096C102.37 60.7821 102.34 60.7456 102.317 60.7027C101.667 59.742 100.607 59.5019 99.8872 58.6253H100.357C100.567 58.6253 100.817 59.0215 100.957 58.6853C101.097 58.3491 100.797 58.217 100.697 57.9648Z" fill="#684A52"/>
<path d="M79.3474 79.8439C78.6774 78.2708 79.6074 77.166 80.1474 75.9531C80.3394 76.6254 80.3661 77.3499 80.2242 78.0399C80.0824 78.7299 79.7779 79.3562 79.3474 79.8439Z" fill="#F3F2F2"/>
<path d="M88.7473 45.8485C90.7473 46.2448 92.8073 45.7765 94.8373 45.8485C92.8711 46.7126 90.7135 46.7126 88.7473 45.8485Z" fill="#F3F2F2"/>
<path d="M114.847 63.1767C114.077 63.1767 113.847 61.9759 113.007 62.072C112.717 62.4682 113.177 62.8165 113.007 63.1887C112.367 62.6604 112.367 61.7598 111.917 60.7871C113.089 61.1672 114.121 62.0086 114.847 63.1767Z" fill="#F3F2F2"/>
<path d="M80.1072 73.1555L80.7072 70.2256C80.9198 70.9642 81.0029 71.7477 80.9513 72.5267C80.8996 73.3058 80.7144 74.0636 80.4072 74.7526C80.2872 74.2242 80.5972 73.5758 80.1072 73.1555Z" fill="#F3F2F2"/>
<path d="M110.017 66.8279C108.691 65.5608 107.583 63.9944 106.757 62.2168C108.055 63.5192 109.158 65.0787 110.017 66.8279Z" fill="#F3F2F2"/>
<path d="M96.5874 59.2627C97.5174 59.8151 97.6374 61.0039 98.2874 62.2407C97.335 61.6479 96.4916 60.8312 95.8074 59.8391C96.3474 59.671 96.5374 60.3674 97.0574 60.5355L96.5874 59.2627Z" fill="#F3F2F2"/>
<path d="M89.2574 66.8264C88.4374 66.6943 88.1374 65.7458 87.5574 65.2414C87.2574 64.9892 86.9374 64.3168 86.7274 65.3135L85.8074 63.4521C87.1724 64.2163 88.3579 65.3758 89.2574 66.8264Z" fill="#F3F2F2"/>
<path d="M77.8872 62.5648C77.4472 62.2646 76.8872 61.9044 77.2572 61.244C77.6272 60.5835 78.0972 60.8237 78.5272 61.376C78.9572 61.9284 79.5872 61.6282 79.8972 62.2646C79.359 62.2215 78.8327 62.0544 78.3472 61.7723C77.4672 61.4601 77.9172 62.1926 77.8872 62.5648Z" fill="#F3F2F2"/>
<path d="M103.697 56.1875C104.527 56.3316 104.847 57.2082 105.697 58.0488C104.768 57.7983 103.906 57.2743 103.187 56.5238L103.697 56.1875Z" fill="#684A52"/>
<path d="M108.237 51.9609C108.897 52.1771 108.977 52.9096 109.457 53.6902C108.675 53.5156 107.967 53.0187 107.457 52.2851C107.717 52.1891 108.037 52.3092 108.237 51.9609Z" fill="#684A52"/>
<path d="M105.967 72.9279C105.235 72.3388 104.665 71.5033 104.327 70.5261C104.857 70.358 105.237 70.4541 105.447 71.0906C105.047 71.0906 105.097 71.2947 105.297 71.5949C105.497 71.8951 106.007 72.2674 105.967 72.9279Z" fill="#684A52"/>
<path d="M87.7273 56.5002C86.6249 56.1478 85.6007 55.5083 84.7273 54.627C85.8456 54.9285 86.8795 55.574 87.7273 56.5002Z" fill="#F3F2F2"/>
<path d="M104.157 64.7625L102.657 63.6578C103.016 63.5992 103.382 63.6365 103.728 63.7673C104.073 63.8981 104.391 64.119 104.657 64.4143C104.555 64.4109 104.454 64.4416 104.366 64.5031C104.278 64.5646 104.205 64.6544 104.157 64.7625Z" fill="#684A52"/>
<path d="M96.3672 56.7772C95.8372 56.7772 95.5272 57.0174 95.5872 57.7139C95.2172 57.4017 94.5872 56.9934 94.9472 56.5131C95.3072 56.0327 95.9072 56.453 96.3672 56.7772Z" fill="#F3F2F2"/>
<path d="M86.9272 65.6387C87.6872 66.3591 88.3772 67.1036 88.2072 68.4244C87.6803 67.5675 87.25 66.6308 86.9272 65.6387Z" fill="#F3F2F2"/>
<path d="M109.747 44.3838C109.955 44.4375 110.15 44.542 110.322 44.6907C110.495 44.8395 110.639 45.0294 110.747 45.2484C111.297 46.089 110.587 45.7407 110.317 45.8008L109.787 45.2484L109.747 44.3838Z" fill="#684A52"/>
<path d="M106.217 67.1511C105.63 66.6443 105.111 66.0328 104.677 65.3379C105.058 65.4138 105.41 65.6286 105.685 65.953C105.961 66.2773 106.147 66.6957 106.217 67.1511Z" fill="#684A52"/>
<path d="M113.547 92.6816C115.677 94.9151 118.367 94.6749 120.917 95.0832C123.173 95.3633 125.441 95.4636 127.707 95.3834C127.972 95.3619 128.238 95.411 128.485 95.5273C128.732 95.6435 128.955 95.8241 129.137 96.0559C128.247 97.2566 126.977 96.8364 125.917 97.1966C125.664 97.2208 125.41 97.2208 125.157 97.1966C124.917 97.1966 124.727 97.3647 124.777 97.6649C124.827 97.9651 125.097 97.761 125.217 97.809C126.221 98.0465 127.246 98.1352 128.267 98.0732C126.049 98.6283 123.776 98.8022 121.517 98.5895C119.16 98.5806 116.825 98.0515 114.627 97.0285C116.887 97.1966 119.137 97.2807 121.397 97.1966C123.698 97.2136 125.988 96.8087 128.187 95.9958C125.077 95.8637 121.967 95.7677 118.887 95.3114C117.511 95.1577 116.162 94.7528 114.887 94.1106C114.587 94.014 114.309 93.8345 114.077 93.5864C113.844 93.3383 113.663 93.0286 113.547 92.6816Z" fill="#F3F2F2"/>
<path d="M113.817 89.3066C113.977 90.5075 113.497 91.5522 113.547 92.693C113.296 92.164 113.187 91.5547 113.236 90.9485C113.284 90.3423 113.487 89.7688 113.817 89.3066Z" fill="#F3F2F2"/>
<path d="M173.597 140.437C175.127 141.722 175.117 143.043 173.597 144.304C172.077 145.565 171.097 145.505 169.597 144.016C168.43 141.486 167.766 138.667 167.657 135.778C167.62 135.332 167.504 134.9 167.316 134.513C167.128 134.125 166.873 133.791 166.567 133.532C164.437 131.539 162.347 129.498 160.257 127.456C159.728 127.065 159.285 126.525 158.967 125.883C159.909 125.847 160.842 125.669 161.747 125.355C159.057 124.298 156.487 123.386 154.017 122.125C147.647 119.083 141.906 114.407 137.197 108.423C136.617 107.797 136.088 107.105 135.617 106.358L136.137 105.734C136.513 105.408 136.923 105.146 137.357 104.953C138.737 104.341 139.117 104.485 140.077 105.83C142.66 109.291 145.701 112.216 149.077 114.488C150.737 115.688 152.457 116.709 153.577 117.454C151.65 116.199 149.823 114.736 148.117 113.083C147.476 112.503 146.896 111.834 146.387 111.089C146.177 110.777 145.977 110.393 146.257 110.009C146.537 109.624 146.817 109.816 147.077 110.009C148.485 110.647 149.811 111.521 151.017 112.602L152.087 113.395C158.326 118.503 164.145 124.314 169.467 130.747C169.791 131.043 170.04 131.441 170.186 131.896C170.333 132.352 170.371 132.848 170.297 133.328C169.917 136.618 171.467 138.732 173.597 140.437Z" fill="#F3F2F2"/>
<path d="M151.017 112.553C149.457 111.773 148.087 110.44 146.317 110.152C148.587 113.622 151.767 115.676 154.737 118.077C153.42 117.738 152.162 117.128 151.017 116.276C146.628 113.571 142.697 109.906 139.427 105.469C139.275 105.202 139.049 105.008 138.789 104.922C138.529 104.836 138.252 104.864 138.007 105C137.421 105.395 136.781 105.659 136.117 105.781C137.547 103.799 139.357 103.86 140.507 106.033C141.657 108.207 143.507 109.167 144.907 110.968C145.347 111.557 145.697 110.968 145.707 110.404C145.707 109.203 146.257 109.335 146.897 109.683C148.357 110.428 150.027 110.812 151.017 112.553Z" fill="#684A52"/>
<path d="M116.387 103.56C119.198 104.193 122.061 104.427 124.917 104.256C129.45 103.894 133.927 102.857 138.247 101.17C138.997 100.906 139.037 100.486 138.457 99.9692C137.598 99.1553 136.813 98.2335 136.117 97.2194C135.967 97.0815 135.853 96.8956 135.788 96.6831C135.722 96.4706 135.708 96.2402 135.747 96.0186L140.927 100.005C140.683 100.06 140.432 100.06 140.187 100.005C139.497 99.6569 139.187 99.6089 139.367 100.762C139.487 101.374 137.667 102.695 136.727 102.767C136.177 102.767 135.637 102.767 135.087 102.767C131.933 103.752 128.709 104.379 125.457 104.64C122.827 104.767 120.192 104.647 117.577 104.28C117.107 104.184 116.647 104.136 116.387 103.56Z" fill="#684A52"/>
<path d="M173.077 121.224H176.937V121.692C175.814 122.362 174.555 122.637 173.307 122.484C173.667 121.572 174.487 122.484 174.987 121.896C174.467 121.176 173.577 121.98 173.077 121.224Z" fill="#684A52"/>
<path d="M175.587 109.492L173.137 107.403C174.537 107.03 175.457 108.051 176.607 108.711L176.087 107.343C176.307 107.547 176.547 107.727 176.767 107.955C176.905 108.066 177.011 108.227 177.068 108.415C177.126 108.603 177.132 108.807 177.087 109C176.937 109.528 176.597 109.096 176.347 109.132C176.097 109.168 175.767 109.096 175.587 109.492Z" fill="#684A52"/>
<path d="M174.337 87.8772C173.73 88.298 173.077 88.6172 172.397 88.8258C172.637 88.0453 173.297 88.0573 173.447 87.4449C173.247 87.0606 172.687 87.5169 172.557 86.9525C172.935 86.8604 173.282 86.6394 173.557 86.3161L174.277 85.9678C174.817 86.5322 174.467 87.1687 174.337 87.8772Z" fill="#F3F2F2"/>
<path d="M175.877 103.908C174.982 103.161 174.217 102.211 173.627 101.11C174.581 101.771 175.361 102.74 175.877 103.908Z" fill="#F3F2F2"/>
<path d="M175.617 104.533L175.877 103.908C176.297 104.339 176.582 104.927 176.687 105.577L175.617 104.533Z" fill="#F3F2F2"/>
<path d="M127.757 78.079C125.027 76.3275 122.576 74.0103 120.517 71.2344C123.137 73.5279 126.067 75.137 128.817 77.1423C128.297 77.1783 127.787 77.2264 127.757 78.079Z" fill="#684A52"/>
<path d="M130.777 78.1148C130.977 77.8026 131.827 78.6552 131.537 77.4904C131.568 77.4451 131.607 77.4087 131.651 77.3837C131.695 77.3586 131.744 77.3457 131.792 77.3457C131.841 77.3457 131.889 77.3586 131.933 77.3837C131.977 77.4087 132.016 77.4451 132.047 77.4904C134.754 79.0974 137.547 80.4855 140.407 81.6453C137.057 81.1166 133.803 79.9235 130.777 78.1148Z" fill="#F3F2F2"/>
<path d="M129.967 81.1762C130.607 81.0441 130.967 80.6959 130.537 79.9033C132.815 81.0341 135.154 81.9809 137.537 82.7373C137.897 82.8453 138.267 82.8934 138.627 82.9774C138.447 83.794 137.887 83.3857 137.537 83.3617C136.642 83.3073 135.752 83.1628 134.877 82.9294H134.757H134.647C133.204 82.9056 131.777 82.5467 130.447 81.8727C130.315 81.8359 130.196 81.7478 130.109 81.622C130.022 81.4961 129.973 81.3394 129.967 81.1762Z" fill="#F3F2F2"/>
<path d="M129.967 81.1761C131.397 82.1968 133.117 82.1127 134.607 82.8932C134.536 83.0455 134.499 83.2171 134.499 83.3916C134.499 83.5661 134.536 83.7376 134.607 83.8899C131.773 83.196 129.064 81.9031 126.607 80.0714C127.797 80.0594 128.797 81.008 129.967 81.1761Z" fill="#684A52"/>
<path d="M145.527 87.553C144.527 88.0334 143.677 88.958 142.427 88.9099C142.697 87.8292 143.537 87.7092 144.067 87.0848C144.317 86.8086 145.157 86.9046 144.687 86.0161C144.876 85.946 145.076 85.9403 145.267 85.9997C145.458 86.0591 145.631 86.1812 145.767 86.3522C146.257 86.6765 143.637 86.9526 145.527 87.553Z" fill="#684A52"/>
<path d="M134.837 82.9296C136.087 82.6774 137.337 83.6261 138.587 82.9296C138.907 82.9296 139.257 82.7375 139.587 83.3859C137.998 83.7491 136.358 83.5914 134.837 82.9296Z" fill="#684A52"/>
<path d="M132.047 77.4783H131.537C130.61 77.0607 129.758 76.4328 129.027 75.6289C130.127 76.0252 131.327 76.1934 132.047 77.4783Z" fill="#684A52"/>
<path d="M137.897 84.8154C136.747 84.7715 135.615 84.4531 134.567 83.8787C135.73 83.7964 136.887 84.1219 137.897 84.8154Z" fill="#684A52"/>
<path d="M73.2173 77.6221C73.2173 77.9583 73.4773 77.9944 73.6273 78.1505C73.7773 78.3066 74.5474 78.6668 74.1374 79.2432C73.7274 79.8196 73.3973 79.1351 73.0873 78.8469C72.1927 77.94 71.5592 76.7171 71.2773 75.3525C72.3935 75.9552 73.5429 76.4648 74.7173 76.8776C74.9273 76.8776 74.9174 77.1417 74.8574 77.3579C74.8315 77.4806 74.7698 77.5881 74.6836 77.6608C74.5973 77.7335 74.4922 77.7667 74.3874 77.7542C73.9974 77.7181 73.6373 77.2859 73.2173 77.6221Z" fill="#F3F2F2"/>
<path d="M68.4672 64.7139C68.5051 66.2596 68.6321 67.8003 68.8472 69.325C67.5472 68.6165 66.9272 67.1755 66.2172 65.8546C66.2972 65.4823 65.7072 65.0981 66.1272 64.8099C66.5472 64.5217 66.7273 65.0861 66.9173 65.4584C67.1073 65.8306 67.2672 66.6592 67.7872 66.8873C68.0772 66.1668 66.8972 64.8099 68.4672 64.7139Z" fill="#F3F2F2"/>
<path d="M64.9472 54.0625C65.3072 55.7316 66.5272 54.5548 67.3072 55.1552C66.8972 55.7796 66.5272 56.5122 67.7372 56.4641C67.9572 56.4641 68.2072 56.5722 68.1372 56.8724C68.0072 57.4127 67.6072 57.4247 67.2172 57.3887C67.2172 57.2446 67.2872 57.1005 67.3172 56.9564C66.1372 57.0885 65.9472 55.4554 65.0072 55.0832C64.7172 54.9751 63.9472 54.4828 64.9472 54.0625Z" fill="#F3F2F2"/>
<path d="M71.5273 60.7515C70.9673 60.1391 70.6173 59.2746 69.6973 58.7823C70.0279 58.6306 70.3929 58.6272 70.7254 58.7728C71.0579 58.9184 71.3356 59.2031 71.5073 59.5747C71.0973 59.983 71.6673 60.3552 71.5273 60.7515Z" fill="#805B65"/>
<path d="M70.7372 62.0228C70.5072 61.7827 70.0972 61.7347 70.1372 61.2544C70.5272 60.678 71.3272 62.0228 71.5272 60.75C71.6676 60.8519 71.7808 60.9999 71.8534 61.1765C71.9261 61.3531 71.9552 61.5509 71.9372 61.7467C71.5672 62.0469 71.0372 61.3384 70.7372 62.0228Z" fill="#805B65"/>
<path d="M71.7874 59.8496C72.2004 60.0132 72.577 60.2875 72.8889 60.6515C73.2007 61.0156 73.4395 61.4599 73.5873 61.951C72.8977 61.3706 72.29 60.6611 71.7874 59.8496Z" fill="#805B65"/>
<path d="M174.337 87.8772C174.157 87.7931 173.787 87.589 174.007 87.4689C174.687 87.0606 174.167 86.4362 174.307 85.9679C175.169 85.1706 175.901 84.1896 176.467 83.0739L173.657 85.3675C174.741 84.2722 175.676 82.9797 176.427 81.5368C178.097 77.6822 177.267 74.1639 175.297 70.8976C173.087 67.35 170.032 64.6912 166.537 63.2725C162.667 61.5673 158.757 59.9822 154.877 58.3491C152.787 57.0642 150.567 56.0796 148.717 54.2664C146.117 51.7206 145.667 49.307 147.097 45.7285C147.662 44.2784 148.508 43.0117 149.564 42.0341C150.62 41.0564 151.856 40.3963 153.167 40.1087C156.412 39.2671 159.795 39.6877 162.827 41.3095C165.298 42.8239 167.929 43.9268 170.647 44.5878C171.367 44.7199 171.377 45.1762 171.007 45.7165C169.367 48.1182 167.577 50.1835 165.007 51.0721C163.659 51.4055 162.283 51.5545 160.907 51.5164C160.707 51.5164 160.437 51.5165 160.457 51.1802C160.477 50.844 160.777 50.9281 160.947 50.82C162.129 50.8021 163.283 50.386 164.277 49.6192L160.957 49.403C160.07 49.4889 159.186 49.2001 158.457 48.5865C158.207 48.4304 157.857 48.2263 157.957 47.818C158.057 47.4097 158.507 47.3616 158.817 47.4457C159.937 47.7459 161.067 47.83 162.187 48.0341C164.12 48.3349 166.084 47.9509 167.837 46.9293C165.045 47.4544 162.19 47.2329 159.477 46.2809C158.869 46.0763 158.285 45.7818 157.737 45.4043C157.447 45.2002 157.077 44.96 157.177 44.5037C157.277 44.0474 157.707 44.0834 158.027 44.1315C160.421 44.5005 162.836 44.633 165.247 44.5277C164.029 44.2331 162.868 43.6626 161.827 42.8466C157.917 40.1688 154.277 41.3816 150.667 43.6751C150.297 43.9033 149.997 44.2996 149.547 44.3356C146.687 47.2055 147.007 51.2643 150.257 53.3057C153.507 55.3471 157.257 56.4638 160.857 57.7487C164.858 58.9936 168.707 60.8585 172.307 63.2965C175.141 65.5103 177.424 68.6008 178.917 72.2425C180.447 76.3253 180.647 82.5216 176.757 86.0159C175.977 86.6764 175.137 87.2047 174.337 87.8772Z" fill="#F3F2F2"/>
<path d="M149.527 44.3122C152.717 41.3462 156.197 39.8812 160.197 41.5383C162.197 42.3789 164.007 43.8679 166.107 44.5524C163.177 45.3329 160.277 44.7565 157.347 44.5524C160.837 47.0381 164.667 46.954 168.547 46.6418C165.257 49.4277 161.687 48.5031 157.927 47.6505C158.927 48.7072 160.037 48.7793 160.927 49.3917C161.167 50.0882 161.757 49.6439 162.297 49.9921C161.047 50.1482 159.897 50.1603 158.877 50.3884C157.523 50.6723 156.129 50.4589 154.877 49.776C153.717 47.9925 152.342 46.4262 150.797 45.1288C150.287 44.6605 149.977 45.3569 149.537 45.465L149.527 44.3122Z" fill="#684A52"/>
<path d="M160.927 50.7725C160.837 50.9766 160.327 51.3369 161.037 51.2889L164.987 51.0247C162.852 51.91 160.521 51.8202 158.437 50.7725H160.927Z" fill="#F3F2F2"/>
<path d="M165.837 125.499C164.837 125.247 164.717 124.611 164.427 123.71C165.037 124.121 165.529 124.745 165.837 125.499Z" fill="#684A52"/>
<path d="M71.0473 52.5497C71.5573 51.433 71.6473 50.1481 72.3573 49.0794C72.5165 48.776 72.7303 48.5193 72.9829 48.3282C73.2356 48.137 73.5207 48.0162 73.8173 47.9746C73.5073 48.599 72.9573 49.0674 72.8173 49.98C74.0429 49.6651 75.3124 49.6938 76.5273 50.064C74.5989 51.1824 72.7611 52.5129 71.0373 54.0387C70.2673 53.5224 70.8673 53.042 71.0373 52.5497H71.0473Z" fill="#684A52"/>
<path d="M84.4672 48.8865C85.9462 48.3999 87.5096 48.4249 88.9772 48.9585C88.5972 50.9399 86.9772 52.0687 84.7172 51.8886C84.8772 51.012 85.2372 50.5317 86.0572 50.6878C86.142 50.7138 86.2308 50.7137 86.3155 50.6876C86.4002 50.6615 86.4781 50.6102 86.5419 50.5384C86.6057 50.4666 86.6534 50.3766 86.6805 50.2768C86.7077 50.1769 86.7134 50.0704 86.6973 49.9672C86.6973 49.5229 86.3272 49.4989 86.0272 49.4509C85.2275 49.4249 84.4367 49.6572 83.7372 50.1234C83.5672 50.2314 83.4172 50.2074 83.4272 49.9313C83.4372 49.6551 83.7172 49.3908 83.9672 49.2467L84.4672 48.8865Z" fill="#684A52"/>
<path d="M71.0472 52.5498C71.1572 53.0422 70.5272 53.5225 71.0472 54.0389C70.8172 54.4592 70.6672 55.1797 70.0472 54.6513C69.8572 54.4832 69.2272 53.8827 70.1772 53.7026C70.6872 53.6185 70.4672 52.6459 71.0472 52.5498Z" fill="#F3F2F2"/>
<path d="M83.9573 49.248C83.9573 49.5723 83.3273 49.6564 83.7273 50.1247C83.6228 50.3168 83.4651 50.4582 83.2821 50.5242C83.0991 50.5901 82.9026 50.5762 82.7273 50.485C82.9973 49.8245 83.2673 49.248 83.9573 49.248Z" fill="#684A52"/>
<path d="M84.8673 94.0247C84.9701 94.0468 85.068 94.0946 85.1546 94.1648C85.2412 94.235 85.3146 94.3261 85.3702 94.4324C85.4257 94.5387 85.4622 94.6577 85.4772 94.7819C85.4922 94.906 85.4854 95.0326 85.4573 95.1534C85.4573 95.4056 85.3473 95.6818 85.0773 95.5617C84.8737 95.4818 84.7009 95.3163 84.5907 95.0958C84.4805 94.8752 84.4402 94.6143 84.4773 94.361C84.4673 94.1328 84.6073 93.8806 84.8673 94.0247Z" fill="#F3F2F2"/>
</svg>
