<svg width="40" height="40" viewBox="0 0 40 40" fill="none" xmlns="http://www.w3.org/2000/svg">
<path d="M31.6666 6.66699H8.33331C7.00723 6.66699 5.73546 7.19378 4.79778 8.13146C3.8601 9.06914 3.33331 10.3409 3.33331 11.667V28.3337C3.33331 29.6597 3.8601 30.9315 4.79778 31.8692C5.73546 32.8069 7.00723 33.3337 8.33331 33.3337H31.6666C32.9927 33.3337 34.2645 32.8069 35.2022 31.8692C36.1399 30.9315 36.6666 29.6597 36.6666 28.3337V11.667C36.6666 10.3409 36.1399 9.06914 35.2022 8.13146C34.2645 7.19378 32.9927 6.66699 31.6666 6.66699ZM31.6666 10.0003L20.8333 17.4503C20.5799 17.5966 20.2925 17.6736 20 17.6736C19.7074 17.6736 19.42 17.5966 19.1666 17.4503L8.33331 10.0003H31.6666Z" fill="#50393F"/>
</svg>
