<svg width="40" height="40" viewBox="0 0 40 40" fill="none" xmlns="http://www.w3.org/2000/svg">
<path d="M24.6679 25.8994L27.0789 23.4874C27.4037 23.1665 27.8145 22.9469 28.2616 22.8551C28.7087 22.7634 29.1729 22.8035 29.5976 22.9705L32.5361 24.1442C32.9654 24.3185 33.3335 24.6161 33.594 24.9993C33.8545 25.3826 33.9958 25.8344 34 26.2978V31.6819C33.9975 31.9971 33.9313 32.3086 33.8053 32.5976C33.6792 32.8866 33.4961 33.1471 33.2668 33.3634C33.0375 33.5797 32.7668 33.7473 32.4711 33.8562C32.1753 33.9651 31.8606 34.013 31.5459 33.997C10.9549 32.7156 6.80009 15.2713 6.01433 8.59515C5.97786 8.2673 6.01119 7.93544 6.11212 7.6214C6.21306 7.30736 6.37931 7.01826 6.59995 6.77312C6.82059 6.52798 7.09062 6.33235 7.39226 6.19911C7.6939 6.06586 8.02033 5.99802 8.35006 6.00004H13.5489C14.0129 6.00142 14.4658 6.14161 14.8494 6.40259C15.233 6.66356 15.5299 7.03339 15.7017 7.4645L16.8749 10.4042C17.0474 10.8274 17.0914 11.2922 17.0015 11.7403C16.9115 12.1884 16.6915 12.6001 16.369 12.9239L13.958 15.3359C13.958 15.3359 15.3465 24.7365 24.6679 25.8994Z" fill="#50393F"/>
</svg>
