<svg width="70" height="70" viewBox="0 0 70 70" fill="none" xmlns="http://www.w3.org/2000/svg">
<path d="M59.0834 58.0833C59.0834 59.1879 58.188 60.0833 57.0834 60.0833H11.9168C10.8122 60.0833 9.91675 59.1879 9.91675 58.0833V57.1667C9.91675 56.0621 10.8122 55.1667 11.9167 55.1667H57.0834C58.188 55.1667 59.0834 56.0621 59.0834 57.1667V58.0833ZM59.0834 18.75C59.0834 19.8546 58.188 20.75 57.0834 20.75H11.9168C10.8122 20.75 9.91675 19.8546 9.91675 18.75V15.375C9.91675 14.2704 10.8122 13.375 11.9167 13.375H57.0834C58.188 13.375 59.0834 14.2704 59.0834 15.375V18.75ZM52.1668 23.2083C53.2713 23.2083 54.1668 24.1038 54.1668 25.2083V50.7083C54.1668 51.8129 53.2713 52.7083 52.1668 52.7083H48.7918C47.6872 52.7083 46.7918 51.8129 46.7918 50.7083V34.3957C46.7918 33.5779 46.2947 32.8448 45.5195 32.5843C43.4035 31.8732 38.9518 30.5833 34.5001 30.5833C30.0484 30.5833 25.5966 31.8732 23.4806 32.5843C22.7054 32.8448 22.2084 33.5779 22.2084 34.3957V50.7083C22.2084 51.8129 21.313 52.7083 20.2084 52.7083H16.8334C15.7288 52.7083 14.8334 51.8129 14.8334 50.7083V25.2083C14.8334 24.1038 15.7288 23.2083 16.8334 23.2083H52.1668ZM40.6167 42.0337C40.6276 42.0449 40.6196 42.0637 40.604 42.0637C40.5901 42.0637 40.5816 42.079 40.5889 42.0908L41.408 43.4158L41.5555 43.7108C42.588 46.1937 41.8751 49.0208 39.933 50.84C38.1876 52.4625 35.7292 52.8804 33.4676 52.5854C31.3288 52.315 29.3376 50.9629 28.2313 49.0946C27.8626 48.5292 27.5922 47.8654 27.4447 47.2262L27.1399 45.6789C27.13 45.6289 27.1239 45.5782 27.1223 45.5273C27.0947 44.6717 27.2023 43.8017 27.4356 42.9708C27.7235 41.9458 29.2276 42.5852 29.6172 43.576C29.7913 44.0186 30.0259 44.4378 30.3209 44.8171L30.4056 44.9301C30.4474 44.9857 30.4936 45.0387 30.5513 45.0775C30.71 45.1841 30.9001 45.2295 31.0717 45.1737C31.1305 45.1546 31.1875 45.1291 31.2419 45.0998C31.3809 45.0251 31.4901 44.8907 31.5318 44.7343C31.5557 44.6445 31.5371 44.5505 31.5116 44.4612L31.4517 44.2517C30.1488 40.8346 31.2551 36.8521 33.9838 34.5904C34.1863 34.4272 34.4043 34.2674 34.6324 34.1162C35.3519 33.6391 36.1275 34.4458 36.0839 35.308C36.0085 36.7968 36.522 38.3086 37.573 39.3596L39.7609 41.1542L40.6167 42.0337ZM37.1313 48.9294C37.1961 48.8921 37.2571 48.8483 37.3097 48.7953C37.9009 48.1992 38.2582 47.262 38.1876 46.415V46.0469C38.1876 45.9811 38.1816 45.9148 38.1664 45.8507C37.8384 44.4676 36.5989 43.9914 35.7579 42.9122C35.7388 42.8876 35.7219 42.8612 35.7072 42.8337C35.4779 42.4036 34.8878 42.4494 34.8571 42.9359C34.8355 43.2775 34.8608 43.6283 34.918 44.0058C35.0655 44.8417 35.4097 45.5546 35.213 46.415C35.1035 46.8897 34.8674 47.3644 34.4988 47.7615C33.9634 48.3382 33.7402 49.3476 34.4981 49.559C34.9627 49.6885 35.4654 49.7118 35.9745 49.5672C36.0406 49.5485 36.1034 49.5198 36.163 49.4856L37.1313 48.9294Z" fill="#E0A200"/>
</svg>
