<svg width="40" height="40" viewBox="0 0 40 40" fill="none" xmlns="http://www.w3.org/2000/svg">
<path d="M19.1227 2.50509C16.3042 2.539 10.2448 3.00062 6.8556 6.0996C4.33458 8.58928 3.45436 12.2702 3.35119 16.8219C3.26558 21.3571 3.16242 29.8741 11.3994 32.1931V35.7253C11.3994 35.7253 11.3478 37.1386 12.2851 37.4285C13.4397 37.7927 14.0971 36.7054 15.1946 35.5371L17.2415 33.2301C22.8773 33.6972 27.1939 32.6208 27.6911 32.4611C28.8347 32.0969 35.2761 31.2765 36.3286 22.7584C37.4086 13.9614 35.8029 8.41864 32.9043 5.91145H32.8868C32.012 5.10854 28.4967 2.55541 20.6427 2.52697C20.6427 2.52697 20.06 2.48759 19.1227 2.504V2.50509Z" fill="#50393F"/>
<path d="M26.7983 16.7032C26.8217 13.8912 24.4268 11.3135 21.4602 10.9567C21.3961 10.9487 21.3323 10.939 21.2687 10.9275C21.1196 10.899 20.9683 10.8827 20.8166 10.8789C20.2079 10.8789 20.0455 11.3067 20.0027 11.5605C19.9609 11.8085 20.0008 12.0175 20.1204 12.1799C20.3216 12.4531 20.6765 12.5017 20.9614 12.5406C21.0441 12.5523 21.1228 12.563 21.189 12.5776C23.8551 13.1736 24.7525 14.11 25.1911 16.7537C25.2018 16.8179 25.2066 16.8976 25.2125 16.9822C25.2319 17.2982 25.2708 17.9555 25.9777 17.9555C26.036 17.9555 26.1002 17.9507 26.1663 17.9409C26.8236 17.8408 26.8032 17.2399 26.7935 16.9511C26.7906 16.8694 26.7876 16.7926 26.7954 16.7411C26.797 16.7282 26.7976 16.7152 26.7974 16.7022L26.7983 16.7032Z" fill="#F3F2F2"/>
<path d="M20.6437 9.9252C20.7234 9.93104 20.7973 9.93687 20.8595 9.94562C25.2379 10.6194 27.2516 12.6934 27.8088 17.1059C27.8185 17.1807 27.8205 17.2721 27.8214 17.3684C27.8273 17.7136 27.8389 18.4311 28.609 18.4457H28.6324C28.8745 18.4457 29.066 18.3728 29.2041 18.2289C29.4433 17.979 29.4277 17.6066 29.4131 17.3071C29.4102 17.2332 29.4073 17.1642 29.4073 17.1029C29.4637 12.5913 25.5569 8.4988 21.0492 8.34711C21.0297 8.34711 21.0122 8.34711 20.9947 8.35003C20.977 8.35227 20.9591 8.35324 20.9412 8.35295C20.8955 8.35295 20.8411 8.34906 20.7818 8.34517C20.7118 8.34031 20.6311 8.33447 20.5484 8.33447C19.8308 8.33447 19.6947 8.84495 19.6772 9.14928C19.6373 9.85228 20.317 9.90187 20.6437 9.9252ZM27.5978 22.8086C27.5039 22.7372 27.4108 22.6645 27.3187 22.5908C26.8403 22.2057 26.3318 21.8518 25.8408 21.5086L25.5345 21.2947C24.9044 20.8522 24.3385 20.6374 23.8038 20.6374C23.0823 20.6374 22.4542 21.036 21.9349 21.8207C21.7055 22.1688 21.4264 22.338 21.0832 22.338C20.8448 22.3296 20.6109 22.271 20.3967 22.1659C18.3646 21.2441 16.9119 19.8303 16.0815 17.9644C15.6799 17.0621 15.8102 16.4729 16.5162 15.9925C16.9177 15.7203 17.6635 15.2137 17.612 14.2423C17.5517 13.1407 15.1199 9.82408 14.0951 9.44779C13.6569 9.28798 13.1767 9.2866 12.7377 9.4439C11.5602 9.83964 10.7162 10.5358 10.2932 11.4547C9.88486 12.3434 9.90431 13.3867 10.3457 14.4718C11.6244 17.6095 13.4212 20.3457 15.6877 22.6034C17.9056 24.8135 20.632 26.623 23.7902 27.9833C24.075 28.1058 24.3735 28.1729 24.5923 28.2215C24.6662 28.2381 24.7304 28.2526 24.7771 28.2653C24.8028 28.2722 24.8292 28.2758 24.8558 28.276H24.8811C26.3668 28.276 28.151 26.9186 28.6985 25.3716C29.1788 24.0162 28.3018 23.3463 27.5978 22.8086ZM21.301 13.5102C21.0472 13.516 20.5173 13.5296 20.3316 14.0683C20.2441 14.3211 20.2548 14.5389 20.3627 14.7188C20.5202 14.9813 20.8226 15.063 21.0968 15.1077C22.0934 15.2672 22.6059 15.8175 22.7079 16.8414C22.7556 17.3178 23.0774 17.6513 23.4887 17.6513C23.5199 17.6513 23.5511 17.6493 23.5821 17.6455C24.078 17.5872 24.3181 17.2225 24.2967 16.5623C24.3045 15.8739 23.9448 15.0922 23.3312 14.4699C22.7167 13.8456 21.9758 13.4937 21.301 13.5102Z" fill="#F3F2F2"/>
</svg>
