<svg width="70" height="70" viewBox="0 0 70 70" fill="none" xmlns="http://www.w3.org/2000/svg">
<path d="M56.3921 20.7262L47.4064 24.3222L25.2814 15.4722L30.6652 13.3158C33.127 12.3309 35.8734 12.3309 38.3352 13.3158L55.3183 20.1096C55.7032 20.2629 56.0647 20.4694 56.3921 20.7232V20.7262ZM34.5031 29.4847L43.4357 25.9093L21.3107 17.0593L13.682 20.1126C13.2971 20.2658 12.9357 20.4724 12.6082 20.7262L34.5002 29.4847H34.5031ZM11.0005 23.2632C10.9325 23.5772 10.8988 23.8977 10.9002 24.219V46.7747C10.9 47.6592 11.165 48.5235 11.6609 49.256C12.1567 49.9885 12.8607 50.5556 13.682 50.884L30.6652 57.6779C30.9602 57.7959 31.2552 57.8991 31.559 57.9876C31.5532 57.8668 31.5502 57.7458 31.5502 57.6248V45.8248C31.5502 44.1639 32.0989 42.6299 33.0252 41.3998V32.0689L11.0034 23.2632H11.0005ZM58.1002 24.219V38.5943C58.0589 38.5862 58.0176 38.5783 57.9763 38.5707C57.6603 36.8787 56.7623 35.3505 55.438 34.2508C54.1137 33.1512 52.4465 32.5494 50.7252 32.5498H44.8252C43.1039 32.5494 41.4367 33.1512 40.1124 34.2508C38.7881 35.3505 37.8901 36.8787 37.5741 38.5707C37.0165 38.674 36.4826 38.8421 35.9752 39.0604V32.0689L57.9969 23.2632C58.0648 23.5729 58.1002 23.8945 58.1002 24.219ZM40.4002 41.3998V39.9248C40.4002 38.7512 40.8664 37.6257 41.6962 36.7958C42.5261 35.966 43.6516 35.4998 44.8252 35.4998H50.7252C51.8988 35.4998 53.0243 35.966 53.8541 36.7958C54.684 37.6257 55.1502 38.7512 55.1502 39.9248V41.3998H56.6252C57.7988 41.3998 58.9243 41.866 59.7541 42.6958C60.584 43.5257 61.0502 44.6512 61.0502 45.8248V50.2498H55.1502V48.7748C55.1502 48.3836 54.9948 48.0084 54.7182 47.7318C54.4416 47.4552 54.0664 47.2998 53.6752 47.2998C53.284 47.2998 52.9088 47.4552 52.6322 47.7318C52.3556 48.0084 52.2002 48.3836 52.2002 48.7748V50.2498H43.3502V48.7748C43.3502 48.3836 43.1948 48.0084 42.9182 47.7318C42.6416 47.4552 42.2664 47.2998 41.8752 47.2998C41.484 47.2998 41.1088 47.4552 40.8322 47.7318C40.5556 48.0084 40.4002 48.3836 40.4002 48.7748V50.2498H34.5002V45.8248C34.5002 44.6512 34.9664 43.5257 35.7962 42.6958C36.6261 41.866 37.7516 41.3998 38.9252 41.3998H40.4002ZM43.3502 39.9248V41.3998H52.2002V39.9248C52.2002 39.5336 52.0448 39.1584 51.7682 38.8818C51.4916 38.6052 51.1164 38.4498 50.7252 38.4498H44.8252C44.434 38.4498 44.0588 38.6052 43.7822 38.8818C43.5056 39.1584 43.3502 39.5336 43.3502 39.9248ZM55.1502 54.6748V53.1998H61.0502V57.6248C61.0502 58.7984 60.584 59.9239 59.7541 60.7537C58.9243 61.5836 57.7988 62.0498 56.6252 62.0498H38.9252C37.7516 62.0498 36.6261 61.5836 35.7962 60.7537C34.9664 59.9239 34.5002 58.7984 34.5002 57.6248V53.1998H40.4002V54.6748C40.4002 55.066 40.5556 55.4412 40.8322 55.7178C41.1088 55.9944 41.484 56.1498 41.8752 56.1498C42.2664 56.1498 42.6416 55.9944 42.9182 55.7178C43.1948 55.4412 43.3502 55.066 43.3502 54.6748V53.1998H52.2002V54.6748C52.2002 55.066 52.3556 55.4412 52.6322 55.7178C52.9088 55.9944 53.284 56.1498 53.6752 56.1498C54.0664 56.1498 54.4416 55.9944 54.7182 55.7178C54.9948 55.4412 55.1502 55.066 55.1502 54.6748Z" fill="#E0A200"/>
</svg>
