<svg width="70" height="70" viewBox="0 0 70 70" fill="none" xmlns="http://www.w3.org/2000/svg">
<path d="M50.4171 13.0602L50.1078 12.8797C45.6655 9.81708 40.3956 8.18037 34.9999 8.18752C30.1051 8.18927 25.3041 9.53095 21.1174 12.0671C16.9308 14.6032 13.5183 18.2371 11.2499 22.5746C8.98154 26.9122 7.94383 31.7879 8.24929 36.6732C8.55475 41.5586 10.1917 46.2671 12.9828 50.2883V50.3399L13.189 50.6235C15.2835 53.5432 17.9436 56.0121 21.0111 57.8836C24.0786 59.755 27.4909 60.9908 31.0455 61.5175C34.6 62.0442 38.2241 61.851 41.7024 60.9495C45.1808 60.048 48.4425 58.4565 51.2937 56.2696L51.6546 55.986C55.1052 53.2287 57.8309 49.6711 59.5953 45.6219C59.6491 45.5237 59.6923 45.4199 59.7242 45.3125C62.0754 39.68 62.4346 33.4139 60.7424 27.5497C59.0501 21.6854 55.4077 16.574 50.4171 13.0602ZM56.8624 41.0328L52.7632 37.2688C52.1839 36.742 51.4673 36.3899 50.6964 36.253C49.9254 36.1162 49.1315 36.2002 48.4062 36.4953L40.5429 39.7696C39.8873 40.0438 39.313 40.4817 38.8751 41.0415C38.4373 41.6012 38.1504 42.264 38.0421 42.9664L37.4234 47.143C37.2811 48.1508 37.5117 49.1759 38.0719 50.0257C38.6321 50.8754 39.4833 51.4914 40.4656 51.7578L46.0085 53.2016L47.0398 54.2328C42.452 57.103 36.9893 58.2388 31.6376 57.4351C26.2859 56.6314 21.3978 53.9412 17.8554 49.85L18.8609 49.2313C19.4674 48.8691 19.9693 48.3555 20.3173 47.7408C20.6654 47.1261 20.8476 46.4314 20.846 45.725L20.8976 37.011C20.9053 36.6176 21.0213 36.2341 21.2328 35.9024L24.8421 30.2305C24.9928 29.9944 25.1901 29.7915 25.4218 29.6342C25.6534 29.4768 25.9148 29.3683 26.1898 29.3152C26.4648 29.2621 26.7477 29.2656 27.0213 29.3255C27.2949 29.3853 27.5535 29.5003 27.7812 29.6633L31.0812 32.061C31.9495 32.6753 33.0165 32.9421 34.0718 32.8086L42.1671 31.7C43.1694 31.5718 44.0883 31.0756 44.7453 30.3078L50.4687 23.7078C51.1568 22.9085 51.508 21.8734 51.4484 20.8203L51.3968 19.325C55.4398 23.5412 57.6942 29.1586 57.6874 35C57.6899 37.0392 57.4123 39.0691 56.8624 41.0328Z" fill="#E0A200"/>
</svg>
